Roman_SC_Bold_Italic.ufo
<glyph name="numbersign" format="1">
  <advance width="351"/>
  <unicode hex="0023"/>
  <outline>
    <contour>
      <point x="168" y="367" type="line"/>
      <point x="32" y="0" type="line"/>
      <point x="87" y="0" type="line"/>
      <point x="224" y="367" type="line"/>
    </contour>
    <contour>
      <point x="275" y="367" type="line"/>
      <point x="138" y="0" type="line"/>
      <point x="194" y="0" type="line"/>
      <point x="331" y="367" type="line"/>
    </contour>
    <contour>
      <point x="43" y="260" type="line"/>
      <point x="32" y="211" type="line"/>
      <point x="342" y="211" type="line"/>
      <point x="353" y="260" type="line"/>
    </contour>
    <contour>
      <point x="24" y="166" type="line"/>
      <point x="13" y="117" type="line"/>
      <point x="322" y="117" type="line"/>
      <point x="334" y="166" type="line"/>
    </contour>
  </outline>
</glyph>
<glyph name="ampersand" format="1">
  <advance width="485"/>
  <unicode hex="0026"/>
  <outline>
    <contour>
      <point x="191" y="-10" type="curve" smooth="yes"/>
      <point x="310" y="-10"/>
      <point x="416" y="67"/>
      <point x="416" y="154" type="curve" smooth="yes"/>
      <point x="416" y="184"/>
      <point x="401" y="211"/>
      <point x="372" y="235" type="curve"/>
      <point x="382" y="234"/>
      <point x="389" y="233"/>
      <point x="392" y="233" type="curve" smooth="yes"/>
      <point x="438" y="233"/>
      <point x="467" y="262"/>
      <point x="467" y="307" type="curve" smooth="yes"/>
      <point x="467" y="358"/>
      <point x="446" y="379"/>
      <point x="391" y="379" type="curve" smooth="yes"/>
      <point x="360" y="379"/>
      <point x="337" y="364"/>
      <point x="337" y="345" type="curve" smooth="yes"/>
      <point x="337" y="324"/>
      <point x="354" y="306"/>
      <point x="374" y="306" type="curve" smooth="yes"/>
      <point x="389" y="306"/>
      <point x="397" y="323"/>
      <point x="409" y="323" type="curve" smooth="yes"/>
      <point x="425" y="323"/>
      <point x="434" y="317"/>
      <point x="434" y="305" type="curve" smooth="yes"/>
      <point x="434" y="279"/>
      <point x="417" y="264"/>
      <point x="388" y="264" type="curve" smooth="yes"/>
      <point x="369" y="264"/>
      <point x="325" y="266"/>
      <point x="319" y="266" type="curve" smooth="yes"/>
      <point x="260" y="266"/>
      <point x="210" y="224"/>
      <point x="210" y="175" type="curve" smooth="yes"/>
      <point x="210" y="144"/>
      <point x="244" y="102"/>
      <point x="270" y="102" type="curve" smooth="yes"/>
      <point x="293" y="102"/>
      <point x="306" y="118"/>
      <point x="306" y="149" type="curve" smooth="yes"/>
      <point x="306" y="185"/>
      <point x="251" y="168"/>
      <point x="251" y="193" type="curve" smooth="yes"/>
      <point x="251" y="211"/>
      <point x="270" y="224"/>
      <point x="294" y="224" type="curve" smooth="yes"/>
      <point x="314" y="224"/>
      <point x="323" y="202"/>
      <point x="323" y="163" type="curve" smooth="yes"/>
      <point x="323" y="88"/>
      <point x="271" y="32"/>
      <point x="200" y="32" type="curve" smooth="yes"/>
      <point x="138" y="32"/>
      <point x="103" y="72"/>
      <point x="103" y="140" type="curve" smooth="yes"/>
      <point x="103" y="193"/>
      <point x="110" y="225"/>
      <point x="124" y="235" type="curve"/>
      <point x="136" y="225"/>
      <point x="151" y="220"/>
      <point x="170" y="220" type="curve" smooth="yes"/>
      <point x="197" y="220"/>
      <point x="218" y="232"/>
      <point x="218" y="248" type="curve" smooth="yes"/>
      <point x="218" y="266"/>
      <point x="196" y="282"/>
      <point x="169" y="282" type="curve" smooth="yes"/>
      <point x="162" y="282"/>
      <point x="152" y="281"/>
      <point x="138" y="277" type="curve"/>
      <point x="126" y="288"/>
      <point x="119" y="301"/>
      <point x="119" y="317" type="curve" smooth="yes"/>
      <point x="119" y="362"/>
      <point x="151" y="399"/>
      <point x="191" y="399" type="curve" smooth="yes"/>
      <point x="220" y="399"/>
      <point x="240" y="380"/>
      <point x="240" y="354" type="curve" smooth="yes"/>
      <point x="240" y="334"/>
      <point x="235" y="326"/>
      <point x="235" y="323" type="curve" smooth="yes"/>
      <point x="235" y="318"/>
      <point x="240" y="316"/>
      <point x="248" y="316" type="curve" smooth="yes"/>
      <point x="266" y="316"/>
      <point x="293" y="350"/>
      <point x="293" y="374" type="curve" smooth="yes"/>
      <point x="293" y="411"/>
      <point x="254" y="437"/>
      <point x="195" y="437" type="curve" smooth="yes"/>
      <point x="114" y="437"/>
      <point x="57" y="392"/>
      <point x="57" y="330" type="curve" smooth="yes"/>
      <point x="57" y="306"/>
      <point x="72" y="283"/>
      <point x="100" y="262" type="curve"/>
      <point x="42" y="241"/>
      <point x="-2" y="185"/>
      <point x="-2" y="135" type="curve" smooth="yes"/>
      <point x="-2" y="53"/>
      <point x="82" y="-10"/>
    </contour>
  </outline>
</glyph>
<glyph name="quotesingle" format="1">
  <advance width="185"/>
  <unicode hex="0027"/>
  <outline>
    <contour>
      <point x="112" y="250" type="curve" smooth="yes"/>
      <point x="130" y="250"/>
      <point x="138" y="256"/>
      <point x="143" y="275" type="curve" smooth="yes"/>
      <point x="163" y="355"/>
      <point x="214" y="400"/>
      <point x="214" y="439" type="curve" smooth="yes"/>
      <point x="214" y="464"/>
      <point x="197" y="480"/>
      <point x="161" y="480" type="curve" smooth="yes"/>
      <point x="122" y="480"/>
      <point x="87" y="458"/>
      <point x="87" y="418" type="curve" smooth="yes"/>
      <point x="87" y="396"/>
      <point x="98" y="350"/>
      <point x="98" y="305" type="curve" smooth="yes"/>
      <point x="98" y="282"/>
      <point x="94" y="264"/>
      <point x="94" y="263" type="curve" smooth="yes"/>
      <point x="95" y="253"/>
      <point x="100" y="250"/>
    </contour>
  </outline>
</glyph>
<glyph name="parenright" format="1">
  <advance width="223"/>
  <unicode hex="0029"/>
  <outline>
    <contour>
      <point x="87" y="515" type="curve"/>
      <point x="66" y="495" type="line"/>
      <point x="103" y="463"/>
      <point x="124" y="392"/>
      <point x="124" y="317" type="curve" smooth="yes"/>
      <point x="124" y="180"/>
      <point x="59" y="1"/>
      <point x="-52" y="-65" type="curve"/>
      <point x="-40" y="-86" type="line"/>
      <point x="104" y="-37"/>
      <point x="242" y="112"/>
      <point x="242" y="261" type="curve" smooth="yes"/>
      <point x="242" y="361"/>
      <point x="177" y="482"/>
    </contour>
  </outline>
</glyph>
<glyph name="plus" format="1">
  <advance width="423"/>
  <unicode hex="002B"/>
  <outline>
    <contour>
      <point x="48" y="199" type="line"/>
      <point x="34" y="139" type="line"/>
      <point x="383" y="139" type="line"/>
      <point x="396" y="199" type="line"/>
    </contour>
    <contour>
      <point x="283" y="331" type="line"/>
      <point x="215" y="331" type="line"/>
      <point x="148" y="8" type="line"/>
      <point x="215" y="8" type="line"/>
    </contour>
  </outline>
</glyph>
<glyph name="period" format="1">
  <advance width="135"/>
  <unicode hex="002E"/>
  <outline>
    <contour>
      <point x="36" y="-6" type="curve" smooth="yes"/>
      <point x="72" y="-6"/>
      <point x="106" y="30"/>
      <point x="106" y="67" type="curve" smooth="yes"/>
      <point x="106" y="93"/>
      <point x="86" y="112"/>
      <point x="59" y="112" type="curve" smooth="yes"/>
      <point x="10" y="112"/>
      <point x="-14" y="72"/>
      <point x="-14" y="40" type="curve" smooth="yes"/>
      <point x="-14" y="17"/>
      <point x="0" y="-6"/>
    </contour>
  </outline>
</glyph>
<glyph name="slash" format="1">
  <advance width="317"/>
  <unicode hex="002F"/>
  <outline>
    <contour>
      <point x="382" y="519" type="line"/>
      <point x="313" y="519" type="line"/>
      <point x="-24" y="-19" type="line"/>
      <point x="44" y="-19" type="line"/>
    </contour>
  </outline>
</glyph>
<glyph name="zero" format="1">
  <advance width="405"/>
  <unicode hex="0030"/>
  <outline>
    <contour>
      <point x="172" y="-2" type="curve" smooth="yes"/>
      <point x="298" y="-2"/>
      <point x="394" y="151"/>
      <point x="394" y="283" type="curve" smooth="yes"/>
      <point x="394" y="380"/>
      <point x="343" y="441"/>
      <point x="265" y="441" type="curve" smooth="yes"/>
      <point x="134" y="441"/>
      <point x="38" y="287"/>
      <point x="38" y="156" type="curve" smooth="yes"/>
      <point x="38" y="59"/>
      <point x="91" y="-2"/>
    </contour>
    <contour>
      <point x="184" y="37" type="curve" smooth="yes"/>
      <point x="160" y="37"/>
      <point x="157" y="77"/>
      <point x="157" y="116" type="curve" smooth="yes"/>
      <point x="157" y="217"/>
      <point x="199" y="405"/>
      <point x="256" y="405" type="curve" smooth="yes"/>
      <point x="279" y="405"/>
      <point x="280" y="376"/>
      <point x="280" y="346" type="curve" smooth="yes"/>
      <point x="280" y="245"/>
      <point x="236" y="37"/>
    </contour>
  </outline>
</glyph>
<glyph name="one" format="1">
  <advance width="298"/>
  <unicode hex="0031"/>
  <outline>
    <contour>
      <point x="54" y="311" type="curve"/>
      <point x="96" y="332"/>
      <point x="106" y="333"/>
      <point x="113" y="333" type="curve" smooth="yes"/>
      <point x="122" y="333"/>
      <point x="130" y="328"/>
      <point x="126" y="306" type="curve" smooth="yes"/>
      <point x="79" y="86" type="line" smooth="yes"/>
      <point x="76" y="71"/>
      <point x="71" y="57"/>
      <point x="66" y="46" type="curve" smooth="yes"/>
      <point x="62" y="38"/>
      <point x="31" y="26"/>
      <point x="21" y="26" type="curve" smooth="yes"/>
      <point x="18" y="26"/>
      <point x="17" y="22"/>
      <point x="15" y="13" type="curve" smooth="yes"/>
      <point x="13" y="5"/>
      <point x="12" y="-1"/>
      <point x="15" y="-3" type="curve"/>
      <point x="3" y="-3"/>
      <point x="89" y="4"/>
      <point x="122" y="4" type="curve" smooth="yes"/>
      <point x="153" y="4"/>
      <point x="234" y="-3"/>
      <point x="220" y="-3" type="curve"/>
      <point x="220" y="0"/>
      <point x="223" y="4"/>
      <point x="225" y="10" type="curve" smooth="yes"/>
      <point x="228" y="21"/>
      <point x="227" y="26"/>
      <point x="226" y="26" type="curve" smooth="yes"/>
      <point x="219" y="26"/>
      <point x="193" y="38"/>
      <point x="193" y="44" type="curve" smooth="yes"/>
      <point x="192" y="59"/>
      <point x="192" y="73"/>
      <point x="196" y="86" type="curve" smooth="yes"/>
      <point x="254" y="365" type="line" smooth="yes"/>
      <point x="260" y="396"/>
      <point x="267" y="418"/>
      <point x="274" y="430" type="curve"/>
      <point x="273" y="439"/>
      <point x="272" y="443"/>
      <point x="268" y="443" type="curve" smooth="yes"/>
      <point x="267" y="443" type="line"/>
      <point x="154" y="394"/>
      <point x="70" y="346"/>
      <point x="51" y="338" type="curve"/>
      <point x="50" y="337"/>
      <point x="48" y="333"/>
      <point x="46" y="327" type="curve" smooth="yes"/>
      <point x="45" y="322"/>
      <point x="48" y="313"/>
    </contour>
  </outline>
</glyph>
<glyph name="two" format="1">
  <advance width="335"/>
  <unicode hex="0032"/>
  <outline>
    <contour>
      <point x="-30" y="0" type="curve" smooth="yes"/>
      <point x="261" y="0" type="line" smooth="yes"/>
      <point x="263" y="0"/>
      <point x="266" y="3"/>
      <point x="267" y="9" type="curve" smooth="yes"/>
      <point x="295" y="73"/>
      <point x="317" y="119"/>
      <point x="331" y="148" type="curve"/>
      <point x="327" y="152"/>
      <point x="320" y="153"/>
      <point x="313" y="153" type="curve" smooth="yes"/>
      <point x="304" y="153"/>
      <point x="299" y="153"/>
      <point x="298" y="150" type="curve"/>
      <point x="275" y="100"/>
      <point x="250" y="80"/>
      <point x="215" y="80" type="curve" smooth="yes"/>
      <point x="71" y="80" type="line"/>
      <point x="73" y="77" type="line"/>
      <point x="306" y="235"/>
      <point x="326" y="277"/>
      <point x="326" y="345" type="curve" smooth="yes"/>
      <point x="326" y="403"/>
      <point x="275" y="442"/>
      <point x="206" y="442" type="curve" smooth="yes"/>
      <point x="149" y="442"/>
      <point x="96" y="419"/>
      <point x="52" y="357" type="curve"/>
      <point x="50" y="346"/>
      <point x="60" y="335"/>
      <point x="73" y="335" type="curve"/>
      <point x="106" y="370"/>
      <point x="135" y="379"/>
      <point x="147" y="379" type="curve" smooth="yes"/>
      <point x="175" y="379"/>
      <point x="195" y="357"/>
      <point x="195" y="321" type="curve" smooth="yes"/>
      <point x="195" y="284"/>
      <point x="179" y="208"/>
      <point x="-35" y="24" type="curve"/>
      <point x="-36" y="24"/>
      <point x="-38" y="10"/>
    </contour>
  </outline>
</glyph>
<glyph name="four" format="1">
  <advance width="373"/>
  <unicode hex="0034"/>
  <outline>
    <contour>
      <point x="370" y="443" type="curve" smooth="yes"/>
      <point x="362" y="443"/>
      <point x="360" y="439"/>
      <point x="352" y="432" type="curve" smooth="yes"/>
      <point x="18" y="160" type="line"/>
      <point x="15" y="142"/>
      <point x="16" y="128"/>
      <point x="24" y="120" type="curve"/>
      <point x="207" y="120" type="line"/>
      <point x="184" y="8" type="line" smooth="yes"/>
      <point x="184" y="0"/>
      <point x="200" y="-3"/>
      <point x="236" y="-3" type="curve" smooth="yes"/>
      <point x="259" y="-3"/>
      <point x="274" y="0"/>
      <point x="293" y="5" type="curve"/>
      <point x="317" y="120" type="line"/>
      <point x="344" y="120" type="line"/>
      <point x="347" y="121"/>
      <point x="351" y="133"/>
      <point x="352" y="138" type="curve" smooth="yes"/>
      <point x="357" y="162"/>
      <point x="356" y="173"/>
      <point x="349" y="173" type="curve" smooth="yes"/>
      <point x="329" y="173" type="line"/>
      <point x="385" y="436" type="line" smooth="yes"/>
      <point x="385" y="441"/>
      <point x="381" y="443"/>
    </contour>
    <contour>
      <point x="219" y="173" type="line"/>
      <point x="83" y="173" type="line"/>
      <point x="69" y="151" type="line"/>
      <point x="257" y="298" type="line"/>
      <point x="246" y="298" type="line"/>
    </contour>
  </outline>
</glyph>
<glyph name="five" format="1">
  <advance width="317"/>
  <unicode hex="0035"/>
  <outline>
    <contour>
      <point x="60" y="-1" type="curve" smooth="yes"/>
      <point x="186" y="-1"/>
      <point x="311" y="65"/>
      <point x="311" y="185" type="curve" smooth="yes"/>
      <point x="311" y="256"/>
      <point x="245" y="304"/>
      <point x="181" y="304" type="curve" smooth="yes"/>
      <point x="164" y="304"/>
      <point x="145" y="304"/>
      <point x="123" y="301" type="curve"/>
      <point x="149" y="362" type="line"/>
      <point x="140" y="360" type="line"/>
      <point x="208" y="358" type="line" smooth="yes"/>
      <point x="237" y="357"/>
      <point x="283" y="357"/>
      <point x="309" y="356" type="curve"/>
      <point x="318" y="365"/>
      <point x="324" y="378"/>
      <point x="332" y="412" type="curve" smooth="yes"/>
      <point x="336" y="428"/>
      <point x="334" y="437"/>
      <point x="331" y="445" type="curve"/>
      <point x="324" y="444"/>
      <point x="259" y="444"/>
      <point x="133" y="446" type="curve"/>
      <point x="40" y="227" type="line"/>
      <point x="42" y="224"/>
      <point x="45" y="221"/>
      <point x="52" y="218" type="curve"/>
      <point x="75" y="225"/>
      <point x="90" y="228"/>
      <point x="106" y="228" type="curve" smooth="yes"/>
      <point x="155" y="228"/>
      <point x="181" y="195"/>
      <point x="181" y="151" type="curve" smooth="yes"/>
      <point x="181" y="94"/>
      <point x="147" y="40"/>
      <point x="96" y="40" type="curve" smooth="yes"/>
      <point x="47" y="40"/>
      <point x="74" y="91"/>
      <point x="23" y="91" type="curve" smooth="yes"/>
      <point x="2" y="91"/>
      <point x="-22" y="73"/>
      <point x="-22" y="47" type="curve" smooth="yes"/>
      <point x="-22" y="17"/>
      <point x="-5" y="-1"/>
    </contour>
  </outline>
</glyph>
<glyph name="eight" format="1">
  <advance width="378"/>
  <unicode hex="0038"/>
  <outline>
    <contour>
      <point x="155" y="-6" type="curve" smooth="yes"/>
      <point x="290" y="-6"/>
      <point x="354" y="93"/>
      <point x="354" y="144" type="curve" smooth="yes"/>
      <point x="354" y="234"/>
      <point x="193" y="256"/>
      <point x="193" y="329" type="curve" smooth="yes"/>
      <point x="193" y="372"/>
      <point x="215" y="409"/>
      <point x="244" y="409" type="curve" smooth="yes"/>
      <point x="256" y="409"/>
      <point x="265" y="396"/>
      <point x="265" y="367" type="curve" smooth="yes"/>
      <point x="265" y="330"/>
      <point x="248" y="281"/>
      <point x="227" y="263" type="curve"/>
      <point x="248" y="230" type="line"/>
      <point x="360" y="274"/>
      <point x="383" y="323"/>
      <point x="383" y="364" type="curve" smooth="yes"/>
      <point x="383" y="415"/>
      <point x="333" y="442"/>
      <point x="263" y="442" type="curve" smooth="yes"/>
      <point x="164" y="442"/>
      <point x="71" y="383"/>
      <point x="71" y="297" type="curve" smooth="yes"/>
      <point x="71" y="198"/>
      <point x="226" y="181"/>
      <point x="226" y="113" type="curve" smooth="yes"/>
      <point x="226" y="73"/>
      <point x="201" y="31"/>
      <point x="162" y="31" type="curve" smooth="yes"/>
      <point x="143" y="31"/>
      <point x="130" y="56"/>
      <point x="130" y="86" type="curve" smooth="yes"/>
      <point x="130" y="122"/>
      <point x="153" y="170"/>
      <point x="177" y="196" type="curve"/>
      <point x="171" y="221" type="line"/>
      <point x="70" y="201"/>
      <point x="10" y="150"/>
      <point x="10" y="95" type="curve" smooth="yes"/>
      <point x="10" y="33"/>
      <point x="80" y="-6"/>
    </contour>
  </outline>
</glyph>
<glyph name="nine" format="1">
  <advance width="364"/>
  <unicode hex="0039"/>
  <outline>
    <contour>
      <point x="231" y="446" type="curve" smooth="yes"/>
      <point x="130" y="446"/>
      <point x="53" y="359"/>
      <point x="53" y="273" type="curve" smooth="yes"/>
      <point x="53" y="220"/>
      <point x="97" y="178"/>
      <point x="157" y="178" type="curve" smooth="yes"/>
      <point x="166" y="178"/>
      <point x="195" y="183"/>
      <point x="215" y="189" type="curve"/>
      <point x="204" y="198" type="line"/>
      <point x="174" y="145"/>
      <point x="72" y="51"/>
      <point x="13" y="26" type="curve"/>
      <point x="11" y="14"/>
      <point x="16" y="5"/>
      <point x="25" y="-2" type="curve"/>
      <point x="193" y="52"/>
      <point x="361" y="188"/>
      <point x="361" y="328" type="curve" smooth="yes"/>
      <point x="361" y="396"/>
      <point x="313" y="446"/>
    </contour>
    <contour>
      <point x="230" y="404" type="curve" smooth="yes"/>
      <point x="235" y="404"/>
      <point x="246" y="381"/>
      <point x="246" y="343" type="curve" smooth="yes"/>
      <point x="246" y="313"/>
      <point x="235" y="276"/>
      <point x="224" y="245" type="curve"/>
      <point x="223" y="230"/>
      <point x="222" y="227"/>
      <point x="219" y="227" type="curve" smooth="yes"/>
      <point x="191" y="227"/>
      <point x="178" y="257"/>
      <point x="178" y="296" type="curve" smooth="yes"/>
      <point x="178" y="335"/>
      <point x="200" y="404"/>
    </contour>
  </outline>
</glyph>
<glyph name="less" format="1">
  <advance width="386"/>
  <unicode hex="003C"/>
  <outline>
    <contour>
      <point x="285" y="9" type="line"/>
      <point x="328" y="65" type="line"/>
      <point x="106" y="180" type="line"/>
      <point x="101" y="152" type="line"/>
      <point x="371" y="267" type="line"/>
      <point x="353" y="330" type="line"/>
      <point x="45" y="199" type="line"/>
      <point x="33" y="140" type="line"/>
    </contour>
  </outline>
</glyph>
<glyph name="equal" format="1">
  <advance width="423"/>
  <unicode hex="003D"/>
  <outline>
    <contour>
      <point x="24" y="84" type="line"/>
      <point x="372" y="84" type="line"/>
      <point x="384" y="144" type="line"/>
      <point x="35" y="144" type="line"/>
    </contour>
    <contour>
      <point x="47" y="194" type="line"/>
      <point x="395" y="194" type="line"/>
      <point x="407" y="254" type="line"/>
      <point x="59" y="254" type="line"/>
    </contour>
  </outline>
</glyph>
<glyph name="greater" format="1">
  <advance width="386"/>
  <unicode hex="003E"/>
  <outline>
    <contour>
      <point x="107" y="330" type="line"/>
      <point x="64" y="273" type="line"/>
      <point x="286" y="159" type="line"/>
      <point x="291" y="186" type="line"/>
      <point x="21" y="72" type="line"/>
      <point x="39" y="9" type="line"/>
      <point x="347" y="140" type="line"/>
      <point x="359" y="199" type="line"/>
    </contour>
  </outline>
</glyph>
<glyph name="question" format="1">
  <advance width="243"/>
  <unicode hex="003F"/>
  <outline>
    <contour>
      <point x="142" y="161" type="curve"/>
      <point x="126" y="169"/>
      <point x="101" y="171"/>
      <point x="101" y="189" type="curve" smooth="yes"/>
      <point x="101" y="199"/>
      <point x="110" y="203"/>
      <point x="131" y="211" type="curve" smooth="yes"/>
      <point x="192" y="231" type="line" smooth="yes"/>
      <point x="265" y="260"/>
      <point x="275" y="303"/>
      <point x="275" y="343" type="curve" smooth="yes"/>
      <point x="275" y="407"/>
      <point x="216" y="451"/>
      <point x="143" y="451" type="curve" smooth="yes"/>
      <point x="101" y="451"/>
      <point x="78" y="433"/>
      <point x="78" y="403" type="curve" smooth="yes"/>
      <point x="78" y="375"/>
      <point x="99" y="356"/>
      <point x="123" y="356" type="curve" smooth="yes"/>
      <point x="136" y="356"/>
      <point x="164" y="386"/>
      <point x="180" y="386" type="curve" smooth="yes"/>
      <point x="198" y="386"/>
      <point x="207" y="375"/>
      <point x="207" y="353" type="curve" smooth="yes"/>
      <point x="207" y="332"/>
      <point x="193" y="317"/>
      <point x="165" y="310" type="curve" smooth="yes"/>
      <point x="99" y="297" type="line" smooth="yes"/>
      <point x="49" y="280"/>
      <point x="36" y="252"/>
      <point x="36" y="223" type="curve" smooth="yes"/>
      <point x="36" y="163"/>
      <point x="103" y="140"/>
      <point x="131" y="140" type="curve"/>
      <point x="139" y="144"/>
      <point x="142" y="153"/>
    </contour>
    <contour>
      <point x="44" y="-6" type="curve" smooth="yes"/>
      <point x="81" y="-6"/>
      <point x="114" y="30"/>
      <point x="114" y="67" type="curve" smooth="yes"/>
      <point x="114" y="93"/>
      <point x="94" y="112"/>
      <point x="68" y="112" type="curve" smooth="yes"/>
      <point x="27" y="112"/>
      <point x="-5" y="80"/>
      <point x="-5" y="40" type="curve" smooth="yes"/>
      <point x="-5" y="11"/>
      <point x="15" y="-6"/>
    </contour>
  </outline>
</glyph>
<glyph name="B" format="1">
  <advance width="428"/>
  <unicode hex="0042"/>
  <outline>
    <contour>
      <point x="288" y="453" type="move" name="top"/>
    </contour>
    <contour>
      <point x="193" y="0" type="move" name="bottom"/>
    </contour>
    <contour>
      <point x="-9" y="-3" type="curve"/>
      <point x="64" y="2"/>
      <point x="87" y="2"/>
      <point x="116" y="2" type="curve" smooth="yes"/>
      <point x="138" y="2"/>
      <point x="176" y="0"/>
      <point x="215" y="0" type="curve" smooth="yes"/>
      <point x="336" y="0"/>
      <point x="458" y="57"/>
      <point x="458" y="153" type="curve" smooth="yes"/>
      <point x="458" y="209"/>
      <point x="412" y="236"/>
      <point x="345" y="241" type="curve"/>
      <point x="328" y="231" type="line"/>
      <point x="408" y="244"/>
      <point x="466" y="288"/>
      <point x="466" y="359" type="curve" smooth="yes"/>
      <point x="466" y="416"/>
      <point x="410" y="457"/>
      <point x="326" y="455" type="curve" smooth="yes"/>
      <point x="285" y="455"/>
      <point x="239" y="455"/>
      <point x="199" y="455" type="curve" smooth="yes"/>
      <point x="174" y="455"/>
      <point x="151" y="455"/>
      <point x="86" y="460" type="curve"/>
      <point x="85" y="459"/>
      <point x="83" y="454"/>
      <point x="81" y="446" type="curve" smooth="yes"/>
      <point x="80" y="434"/>
      <point x="79" y="430"/>
      <point x="81" y="430" type="curve" smooth="yes"/>
      <point x="92" y="430"/>
      <point x="125" y="415"/>
      <point x="125" y="409" type="curve"/>
      <point x="126" y="399"/>
      <point x="123" y="381"/>
      <point x="119" y="358" type="curve" smooth="yes"/>
      <point x="65" y="100" type="line" smooth="yes"/>
      <point x="59" y="74"/>
      <point x="53" y="54"/>
      <point x="49" y="41" type="curve" smooth="yes"/>
      <point x="47" y="34"/>
      <point x="15" y="26"/>
      <point x="-3" y="26" type="curve" smooth="yes"/>
      <point x="-5" y="26"/>
      <point x="-7" y="22"/>
      <point x="-10" y="9" type="curve" smooth="yes"/>
      <point x="-12" y="1"/>
      <point x="-11" y="-1"/>
    </contour>
    <contour>
      <point x="209" y="34" type="curve" smooth="yes"/>
      <point x="175" y="34"/>
      <point x="173" y="40"/>
      <point x="178" y="64" type="curve" smooth="yes"/>
      <point x="208" y="209" type="line"/>
      <point x="218" y="212"/>
      <point x="225" y="212"/>
      <point x="251" y="212" type="curve" smooth="yes"/>
      <point x="301" y="212"/>
      <point x="328" y="190"/>
      <point x="328" y="146" type="curve" smooth="yes"/>
      <point x="328" y="80"/>
      <point x="283" y="34"/>
    </contour>
    <contour>
      <point x="248" y="251" type="curve" smooth="yes"/>
      <point x="230" y="251"/>
      <point x="221" y="252"/>
      <point x="218" y="253" type="curve"/>
      <point x="250" y="408" type="line" smooth="yes"/>
      <point x="251" y="415"/>
      <point x="263" y="419"/>
      <point x="286" y="419" type="curve" smooth="yes"/>
      <point x="318" y="419"/>
      <point x="336" y="396"/>
      <point x="336" y="359" type="curve" smooth="yes"/>
      <point x="336" y="304"/>
      <point x="308" y="251"/>
    </contour>
  </outline>
</glyph>
<glyph name="D" format="1">
  <advance width="553"/>
  <unicode hex="0044"/>
  <outline>
    <contour>
      <point x="186" y="227" type="move" name="stroke"/>
    </contour>
    <contour>
      <point x="327" y="453" type="move" name="top"/>
    </contour>
    <contour>
      <point x="280" y="226" type="move" name="center"/>
    </contour>
    <contour>
      <point x="232" y="0" type="move" name="bottom"/>
    </contour>
    <contour>
      <point x="197" y="455" type="curve" smooth="yes"/>
      <point x="174" y="455"/>
      <point x="133" y="457"/>
      <point x="86" y="460" type="curve"/>
      <point x="85" y="459"/>
      <point x="82" y="454"/>
      <point x="81" y="446" type="curve" smooth="yes"/>
      <point x="79" y="436"/>
      <point x="79" y="430"/>
      <point x="81" y="430" type="curve" smooth="yes"/>
      <point x="92" y="430"/>
      <point x="124" y="415"/>
      <point x="125" y="409" type="curve"/>
      <point x="125" y="400"/>
      <point x="123" y="383"/>
      <point x="118" y="358" type="curve" smooth="yes"/>
      <point x="64" y="98" type="line" smooth="yes"/>
      <point x="60" y="74"/>
      <point x="53" y="54"/>
      <point x="48" y="41" type="curve" smooth="yes"/>
      <point x="45" y="36"/>
      <point x="10" y="26"/>
      <point x="-3" y="26" type="curve" smooth="yes"/>
      <point x="-6" y="26"/>
      <point x="-7" y="20"/>
      <point x="-11" y="9" type="curve" smooth="yes"/>
      <point x="-13" y="0"/>
      <point x="-11" y="-1"/>
      <point x="-9" y="-3" type="curve"/>
      <point x="31" y="-1"/>
      <point x="74" y="2"/>
      <point x="102" y="2" type="curve" smooth="yes"/>
      <point x="105" y="2"/>
      <point x="198" y="-2"/>
      <point x="219" y="-2" type="curve" smooth="yes"/>
      <point x="399" y="-2"/>
      <point x="544" y="123"/>
      <point x="544" y="283" type="curve" smooth="yes"/>
      <point x="544" y="383"/>
      <point x="467" y="454"/>
      <point x="319" y="454" type="curve" smooth="yes"/>
      <point x="253" y="454"/>
      <point x="214" y="455"/>
    </contour>
    <contour>
      <point x="239" y="359" type="line"/>
      <point x="243" y="380"/>
      <point x="249" y="394"/>
      <point x="257" y="402" type="curve" smooth="yes"/>
      <point x="264" y="410"/>
      <point x="310" y="413"/>
      <point x="325" y="413" type="curve" smooth="yes"/>
      <point x="388" y="413"/>
      <point x="416" y="363"/>
      <point x="416" y="298" type="curve" smooth="yes"/>
      <point x="416" y="182"/>
      <point x="354" y="38"/>
      <point x="245" y="38" type="curve" smooth="yes"/>
      <point x="207" y="38"/>
      <point x="192" y="38"/>
      <point x="178" y="43" type="curve"/>
      <point x="172" y="38"/>
      <point x="174" y="52"/>
      <point x="182" y="92" type="curve" smooth="yes"/>
    </contour>
  </outline>
</glyph>
<glyph name="F" format="1">
  <advance width="407"/>
  <unicode hex="0046"/>
  <outline>
    <contour>
      <point x="268" y="453" type="move" name="top"/>
    </contour>
    <contour>
      <point x="172" y="0" type="move" name="bottom"/>
    </contour>
    <contour>
      <point x="-10" y="-3" type="curve"/>
      <point x="33" y="-1"/>
      <point x="73" y="1"/>
      <point x="103" y="1" type="curve" smooth="yes"/>
      <point x="125" y="1"/>
      <point x="169" y="0"/>
      <point x="234" y="-3" type="curve"/>
      <point x="235" y="0"/>
      <point x="237" y="4"/>
      <point x="239" y="11" type="curve" smooth="yes"/>
      <point x="240" y="21"/>
      <point x="240" y="26"/>
      <point x="238" y="26" type="curve" smooth="yes"/>
      <point x="208" y="26"/>
      <point x="179" y="36"/>
      <point x="177" y="46" type="curve" smooth="yes"/>
      <point x="176" y="60"/>
      <point x="180" y="77"/>
      <point x="184" y="98" type="curve" smooth="yes"/>
      <point x="206" y="202" type="line" smooth="yes"/>
      <point x="207" y="206"/>
      <point x="201" y="208"/>
      <point x="237" y="208" type="curve" smooth="yes"/>
      <point x="272" y="208"/>
      <point x="296" y="208"/>
      <point x="300" y="191" type="curve" smooth="yes"/>
      <point x="298" y="188"/>
      <point x="301" y="177"/>
      <point x="302" y="165" type="curve"/>
      <point x="302" y="162"/>
      <point x="306" y="160"/>
      <point x="313" y="160" type="curve" smooth="yes"/>
      <point x="323" y="160"/>
      <point x="329" y="160"/>
      <point x="330" y="162" type="curve"/>
      <point x="358" y="290" type="line"/>
      <point x="356" y="292"/>
      <point x="350" y="294"/>
      <point x="340" y="294" type="curve" smooth="yes"/>
      <point x="333" y="294"/>
      <point x="330" y="292"/>
      <point x="327" y="289" type="curve"/>
      <point x="327" y="283"/>
      <point x="318" y="254"/>
      <point x="316" y="252" type="curve" smooth="yes"/>
      <point x="315" y="252"/>
      <point x="301" y="251"/>
      <point x="263" y="251" type="curve" smooth="yes"/>
      <point x="250" y="251" type="line" smooth="yes"/>
      <point x="228" y="251"/>
      <point x="217" y="252"/>
      <point x="218" y="255" type="curve" smooth="yes"/>
      <point x="239" y="357" type="line" smooth="yes"/>
      <point x="244" y="380"/>
      <point x="249" y="397"/>
      <point x="254" y="408" type="curve"/>
      <point x="256" y="414"/>
      <point x="268" y="417"/>
      <point x="292" y="417" type="curve" smooth="yes"/>
      <point x="290" y="417" type="line" smooth="yes"/>
      <point x="348" y="417"/>
      <point x="372" y="393"/>
      <point x="393" y="351" type="curve"/>
      <point x="394" y="348"/>
      <point x="397" y="346"/>
      <point x="402" y="346" type="curve" smooth="yes"/>
      <point x="412" y="346"/>
      <point x="420" y="348"/>
      <point x="422" y="350" type="curve"/>
      <point x="420" y="446"/>
      <point x="424" y="468"/>
      <point x="423" y="457" type="curve"/>
      <point x="398" y="457"/>
      <point x="362" y="456"/>
      <point x="304" y="456" type="curve" smooth="yes"/>
      <point x="255" y="457"/>
      <point x="237" y="455"/>
      <point x="199" y="455" type="curve" smooth="yes"/>
      <point x="171" y="455"/>
      <point x="142" y="457"/>
      <point x="86" y="460" type="curve"/>
      <point x="85" y="459"/>
      <point x="83" y="454"/>
      <point x="81" y="446" type="curve" smooth="yes"/>
      <point x="80" y="436"/>
      <point x="79" y="430"/>
      <point x="81" y="430" type="curve" smooth="yes"/>
      <point x="91" y="430"/>
      <point x="125" y="414"/>
      <point x="125" y="409" type="curve"/>
      <point x="126" y="400"/>
      <point x="123" y="383"/>
      <point x="119" y="358" type="curve" smooth="yes"/>
      <point x="65" y="102" type="line" smooth="yes"/>
      <point x="59" y="72"/>
      <point x="52" y="51"/>
      <point x="49" y="42" type="curve"/>
      <point x="45" y="36"/>
      <point x="10" y="26"/>
      <point x="-4" y="26" type="curve" smooth="yes"/>
      <point x="-6" y="26"/>
      <point x="-8" y="20"/>
      <point x="-11" y="9" type="curve" smooth="yes"/>
      <point x="-12" y="2"/>
      <point x="-11" y="-1"/>
    </contour>
  </outline>
</glyph>
<glyph name="H" format="1">
  <advance width="529"/>
  <unicode hex="0048"/>
  <outline>
    <contour>
      <point x="85" y="453" type="move" name="topleft"/>
    </contour>
    <contour>
      <point x="309" y="343" type="move" name="stroke"/>
    </contour>
    <contour>
      <point x="335" y="453" type="move" name="top"/>
    </contour>
    <contour>
      <point x="239" y="0" type="move" name="bottom"/>
    </contour>
    <contour>
      <point x="-10" y="-3" type="curve"/>
      <point x="32" y="0"/>
      <point x="75" y="4"/>
      <point x="98" y="4" type="curve" smooth="yes"/>
      <point x="138" y="4"/>
      <point x="161" y="0"/>
      <point x="215" y="-3" type="curve"/>
      <point x="218" y="-1"/>
      <point x="220" y="5"/>
      <point x="222" y="11" type="curve" smooth="yes"/>
      <point x="224" y="20"/>
      <point x="222" y="26"/>
      <point x="220" y="26" type="curve" smooth="yes"/>
      <point x="210" y="26"/>
      <point x="179" y="40"/>
      <point x="179" y="45" type="curve" smooth="yes"/>
      <point x="176" y="59"/>
      <point x="181" y="77"/>
      <point x="185" y="99" type="curve" smooth="yes"/>
      <point x="210" y="213" type="line"/>
      <point x="210" y="213" type="line"/>
      <point x="222" y="213"/>
      <point x="219" y="215"/>
      <point x="280" y="215" type="curve" smooth="yes"/>
      <point x="306" y="215"/>
      <point x="323" y="215"/>
      <point x="344" y="213" type="curve"/>
      <point x="345" y="211" type="line"/>
      <point x="321" y="96" type="line" smooth="yes"/>
      <point x="316" y="73"/>
      <point x="310" y="55"/>
      <point x="307" y="46" type="curve"/>
      <point x="303" y="40"/>
      <point x="264" y="26"/>
      <point x="253" y="26" type="curve" smooth="yes"/>
      <point x="250" y="26"/>
      <point x="248" y="19"/>
      <point x="246" y="10" type="curve" smooth="yes"/>
      <point x="245" y="6"/>
      <point x="245" y="-2"/>
      <point x="246" y="-3" type="curve"/>
      <point x="267" y="0"/>
      <point x="335" y="4"/>
      <point x="361" y="4" type="curve" smooth="yes"/>
      <point x="388" y="4"/>
      <point x="447" y="-1"/>
      <point x="471" y="-3" type="curve"/>
      <point x="474" y="2"/>
      <point x="477" y="6"/>
      <point x="478" y="10" type="curve" smooth="yes"/>
      <point x="480" y="21"/>
      <point x="480" y="27"/>
      <point x="478" y="27" type="curve" smooth="yes"/>
      <point x="467" y="27"/>
      <point x="437" y="39"/>
      <point x="436" y="44" type="curve" smooth="yes"/>
      <point x="434" y="59"/>
      <point x="437" y="77"/>
      <point x="442" y="99" type="curve" smooth="yes"/>
      <point x="495" y="354" type="line" smooth="yes"/>
      <point x="499" y="377"/>
      <point x="506" y="395"/>
      <point x="513" y="409" type="curve"/>
      <point x="515" y="413"/>
      <point x="552" y="426"/>
      <point x="563" y="426" type="curve" smooth="yes"/>
      <point x="566" y="426"/>
      <point x="568" y="431"/>
      <point x="570" y="442" type="curve" smooth="yes"/>
      <point x="571" y="446"/>
      <point x="572" y="450"/>
      <point x="571" y="455" type="curve"/>
      <point x="492" y="452"/>
      <point x="461" y="451"/>
      <point x="458" y="451" type="curve" smooth="yes"/>
      <point x="462" y="451"/>
      <point x="442" y="452"/>
      <point x="345" y="455" type="curve"/>
      <point x="343" y="455"/>
      <point x="340" y="448"/>
      <point x="338" y="442" type="curve" smooth="yes"/>
      <point x="336" y="434"/>
      <point x="338" y="426"/>
      <point x="340" y="426" type="curve" smooth="yes"/>
      <point x="351" y="426"/>
      <point x="380" y="413"/>
      <point x="380" y="406" type="curve"/>
      <point x="382" y="394"/>
      <point x="380" y="378"/>
      <point x="375" y="356" type="curve" smooth="yes"/>
      <point x="354" y="256" type="line"/>
      <point x="352" y="254" type="line"/>
      <point x="307" y="253"/>
      <point x="290" y="252"/>
      <point x="287" y="252" type="curve" smooth="yes"/>
      <point x="286" y="252"/>
      <point x="267" y="253"/>
      <point x="218" y="254" type="curve"/>
      <point x="218" y="256" type="line"/>
      <point x="238" y="354" type="line" smooth="yes"/>
      <point x="244" y="385"/>
      <point x="251" y="403"/>
      <point x="256" y="408" type="curve"/>
      <point x="259" y="413"/>
      <point x="297" y="426"/>
      <point x="307" y="426" type="curve" smooth="yes"/>
      <point x="310" y="426"/>
      <point x="311" y="428"/>
      <point x="313" y="437" type="curve" smooth="yes"/>
      <point x="315" y="448"/>
      <point x="315" y="453"/>
      <point x="313" y="455" type="curve"/>
      <point x="247" y="453"/>
      <point x="203" y="451"/>
      <point x="188" y="451" type="curve" smooth="yes"/>
      <point x="195" y="451"/>
      <point x="176" y="452"/>
      <point x="87" y="455" type="curve"/>
      <point x="88" y="456"/>
      <point x="85" y="451"/>
      <point x="83" y="443" type="curve" smooth="yes"/>
      <point x="80" y="433"/>
      <point x="81" y="426"/>
      <point x="84" y="426" type="curve" smooth="yes"/>
      <point x="101" y="426"/>
      <point x="122" y="415"/>
      <point x="123" y="405" type="curve"/>
      <point x="126" y="401"/>
      <point x="124" y="385"/>
      <point x="118" y="356" type="curve" smooth="yes"/>
      <point x="64" y="96" type="line" smooth="yes"/>
      <point x="59" y="74"/>
      <point x="55" y="57"/>
      <point x="47" y="44" type="curve"/>
      <point x="44" y="38"/>
      <point x="9" y="26"/>
      <point x="-7" y="26" type="curve" smooth="yes"/>
      <point x="-6" y="26"/>
      <point x="-10" y="20"/>
      <point x="-9" y="9" type="curve" smooth="yes"/>
      <point x="-10" y="2"/>
      <point x="-11" y="-1"/>
    </contour>
  </outline>
</glyph>
<glyph name="M" format="1">
  <advance width="630"/>
  <unicode hex="004D"/>
  <outline>
    <contour>
      <point x="354" y="453" type="move" name="top"/>
    </contour>
    <contour>
      <point x="264" y="0" type="move" name="bottom"/>
    </contour>
    <contour>
      <point x="-49" y="-3" type="curve"/>
      <point x="6" y="0"/>
      <point x="18" y="4"/>
      <point x="55" y="4" type="curve" smooth="yes"/>
      <point x="65" y="4"/>
      <point x="101" y="5"/>
      <point x="165" y="-3" type="curve"/>
      <point x="167" y="0"/>
      <point x="168" y="4"/>
      <point x="170" y="10" type="curve" smooth="yes"/>
      <point x="174" y="20"/>
      <point x="172" y="26"/>
      <point x="169" y="26" type="curve" smooth="yes"/>
      <point x="182" y="23"/>
      <point x="103" y="45"/>
      <point x="103" y="60" type="curve" smooth="yes"/>
      <point x="104" y="62"/>
      <point x="106" y="67"/>
      <point x="107" y="78" type="curve" smooth="yes"/>
      <point x="173" y="329" type="line"/>
      <point x="161" y="360" type="line"/>
      <point x="255" y="18" type="line" smooth="yes"/>
      <point x="259" y="3"/>
      <point x="265" y="-1"/>
      <point x="271" y="-1" type="curve" smooth="yes"/>
      <point x="280" y="-1"/>
      <point x="282" y="3"/>
      <point x="296" y="24" type="curve" smooth="yes"/>
      <point x="509" y="355" type="line"/>
      <point x="470" y="310" type="line"/>
      <point x="469" y="308"/>
      <point x="475" y="300"/>
      <point x="466" y="258" type="curve" smooth="yes"/>
      <point x="434" y="68" type="line" smooth="yes"/>
      <point x="432" y="64"/>
      <point x="431" y="60"/>
      <point x="426" y="51" type="curve" smooth="yes"/>
      <point x="422" y="39"/>
      <point x="385" y="26"/>
      <point x="373" y="26" type="curve" smooth="yes"/>
      <point x="372" y="26"/>
      <point x="370" y="20"/>
      <point x="368" y="8" type="curve" smooth="yes"/>
      <point x="368" y="3"/>
      <point x="369" y="-1"/>
      <point x="370" y="-3" type="curve"/>
      <point x="369" y="0"/>
      <point x="446" y="4"/>
      <point x="488" y="4" type="curve" smooth="yes"/>
      <point x="525" y="4"/>
      <point x="593" y="-3"/>
      <point x="579" y="-3" type="curve"/>
      <point x="581" y="0"/>
      <point x="582" y="4"/>
      <point x="584" y="9" type="curve" smooth="yes"/>
      <point x="588" y="20"/>
      <point x="586" y="26"/>
      <point x="583" y="26" type="curve" smooth="yes"/>
      <point x="576" y="26"/>
      <point x="551" y="38"/>
      <point x="550" y="47" type="curve"/>
      <point x="547" y="60"/>
      <point x="548" y="80"/>
      <point x="552" y="110" type="curve" smooth="yes"/>
      <point x="593" y="405" type="line" smooth="yes"/>
      <point x="594" y="410"/>
      <point x="599" y="416"/>
      <point x="608" y="422" type="curve" smooth="yes"/>
      <point x="618" y="427"/>
      <point x="622" y="426"/>
      <point x="635" y="426" type="curve" smooth="yes"/>
      <point x="637" y="426"/>
      <point x="640" y="432"/>
      <point x="642" y="444" type="curve" smooth="yes"/>
      <point x="643" y="450"/>
      <point x="643" y="454"/>
      <point x="641" y="455" type="curve"/>
      <point x="594" y="451"/>
      <point x="549" y="450"/>
      <point x="539" y="450" type="curve" smooth="yes"/>
      <point x="502" y="450"/>
      <point x="491" y="451"/>
      <point x="497" y="451" type="curve"/>
      <point x="490" y="432"/>
      <point x="460" y="370"/>
      <point x="443" y="344" type="curve" smooth="yes"/>
      <point x="334" y="178" type="line"/>
      <point x="333" y="176"/>
      <point x="333" y="174"/>
      <point x="332" y="174" type="curve" smooth="yes"/>
      <point x="330" y="174"/>
      <point x="329" y="177"/>
      <point x="327" y="186" type="curve" smooth="yes"/>
      <point x="286" y="355" type="line" smooth="yes"/>
      <point x="278" y="388"/>
      <point x="260" y="439"/>
      <point x="258" y="455" type="curve"/>
      <point x="243" y="453"/>
      <point x="188" y="451"/>
      <point x="179" y="451" type="curve" smooth="yes"/>
      <point x="159" y="451"/>
      <point x="117" y="454"/>
      <point x="91" y="455" type="curve"/>
      <point x="88" y="453"/>
      <point x="87" y="450"/>
      <point x="86" y="445" type="curve" smooth="yes"/>
      <point x="84" y="433"/>
      <point x="83" y="428"/>
      <point x="86" y="428" type="curve" smooth="yes"/>
      <point x="97" y="428"/>
      <point x="134" y="421"/>
      <point x="135" y="413" type="curve"/>
      <point x="136" y="412"/>
      <point x="136" y="411"/>
      <point x="127" y="376" type="curve" smooth="yes"/>
      <point x="119" y="347"/>
      <point x="101" y="269"/>
      <point x="75" y="171" type="curve" smooth="yes"/>
      <point x="62" y="125"/>
      <point x="52" y="89"/>
      <point x="40" y="50" type="curve" smooth="yes"/>
      <point x="39" y="49"/>
      <point x="37" y="53"/>
      <point x="29" y="47" type="curve"/>
      <point x="5" y="35"/>
      <point x="-32" y="25"/>
      <point x="-45" y="25" type="curve" smooth="yes"/>
      <point x="-46" y="25"/>
      <point x="-48" y="20"/>
      <point x="-48" y="9" type="curve" smooth="yes"/>
      <point x="-48" y="2"/>
      <point x="-51" y="-1"/>
    </contour>
  </outline>
</glyph>
<glyph name="R" format="1">
  <advance width="498"/>
  <unicode hex="0052"/>
  <outline>
    <contour>
      <point x="340" y="453" type="move" name="top"/>
    </contour>
    <contour>
      <point x="245" y="0" type="move" name="bottom"/>
    </contour>
    <contour>
      <point x="276" y="414" type="curve" smooth="yes"/>
      <point x="307" y="414"/>
      <point x="320" y="393"/>
      <point x="320" y="361" type="curve" smooth="yes"/>
      <point x="320" y="293"/>
      <point x="293" y="236"/>
      <point x="225" y="236" type="curve" smooth="yes"/>
      <point x="229" y="236" type="line" smooth="yes"/>
      <point x="223" y="236"/>
      <point x="217" y="236"/>
      <point x="214" y="238" type="curve"/>
      <point x="232" y="325" type="line" smooth="yes"/>
      <point x="243" y="372"/>
      <point x="250" y="403"/>
      <point x="257" y="407" type="curve"/>
      <point x="256" y="411"/>
      <point x="264" y="414"/>
    </contour>
    <contour>
      <point x="329" y="454" type="curve" smooth="yes"/>
      <point x="286" y="454"/>
      <point x="207" y="455"/>
      <point x="198" y="455" type="curve" smooth="yes"/>
      <point x="169" y="455"/>
      <point x="141" y="457"/>
      <point x="86" y="460" type="curve"/>
      <point x="85" y="459"/>
      <point x="83" y="454"/>
      <point x="82" y="446" type="curve" smooth="yes"/>
      <point x="80" y="436"/>
      <point x="79" y="430"/>
      <point x="81" y="430" type="curve" smooth="yes"/>
      <point x="91" y="430"/>
      <point x="125" y="416"/>
      <point x="126" y="409" type="curve"/>
      <point x="126" y="400"/>
      <point x="123" y="383"/>
      <point x="118" y="358" type="curve" smooth="yes"/>
      <point x="64" y="98" type="line" smooth="yes"/>
      <point x="60" y="74"/>
      <point x="54" y="54"/>
      <point x="48" y="41" type="curve" smooth="yes"/>
      <point x="45" y="33"/>
      <point x="8" y="25"/>
      <point x="-2" y="25" type="curve" smooth="yes"/>
      <point x="-5" y="25"/>
      <point x="-9" y="19"/>
      <point x="-9" y="8" type="curve" smooth="yes"/>
      <point x="-10" y="2"/>
      <point x="-11" y="-1"/>
      <point x="-9" y="-3" type="curve"/>
      <point x="32" y="-1"/>
      <point x="73" y="1"/>
      <point x="104" y="1" type="curve" smooth="yes"/>
      <point x="121" y="1"/>
      <point x="162" y="0"/>
      <point x="227" y="-3" type="curve"/>
      <point x="228" y="0"/>
      <point x="230" y="4"/>
      <point x="232" y="11" type="curve" smooth="yes"/>
      <point x="234" y="21"/>
      <point x="235" y="26"/>
      <point x="233" y="26" type="curve" smooth="yes"/>
      <point x="216" y="26"/>
      <point x="178" y="32"/>
      <point x="178" y="43" type="curve" smooth="yes"/>
      <point x="178" y="60"/>
      <point x="181" y="78"/>
      <point x="185" y="97" type="curve" smooth="yes"/>
      <point x="207" y="199" type="line"/>
      <point x="205" y="200"/>
      <point x="204" y="199"/>
      <point x="203" y="199" type="curve" smooth="yes"/>
      <point x="201" y="199"/>
      <point x="203" y="196"/>
      <point x="202" y="201" type="curve" smooth="yes"/>
      <point x="257" y="89" type="line" smooth="yes"/>
      <point x="289" y="24"/>
      <point x="324" y="-6"/>
      <point x="444" y="-6" type="curve" smooth="yes"/>
      <point x="456" y="-6"/>
      <point x="466" y="-5"/>
      <point x="474" y="-5" type="curve"/>
      <point x="477" y="0"/>
      <point x="480" y="6"/>
      <point x="480" y="11" type="curve" smooth="yes"/>
      <point x="482" y="19"/>
      <point x="482" y="24"/>
      <point x="480" y="25" type="curve"/>
      <point x="433" y="25"/>
      <point x="399" y="75"/>
      <point x="373" y="118" type="curve" smooth="yes"/>
      <point x="347" y="161"/>
      <point x="329" y="193"/>
      <point x="308" y="215" type="curve"/>
      <point x="307" y="205" type="line"/>
      <point x="402" y="234"/>
      <point x="452" y="284"/>
      <point x="452" y="369" type="curve" smooth="yes"/>
      <point x="452" y="416"/>
      <point x="408" y="454"/>
    </contour>
  </outline>
</glyph>
<glyph name="V" format="1">
  <advance width="499"/>
  <unicode hex="0056"/>
  <outline>
    <contour>
      <point x="309" y="453" type="move" name="top"/>
    </contour>
    <contour>
      <point x="214" y="0" type="move" name="bottom"/>
    </contour>
    <contour>
      <point x="212" y="-7" type="curve" smooth="yes"/>
      <point x="225" y="-7"/>
      <point x="233" y="4"/>
      <point x="240" y="15" type="curve" smooth="yes"/>
      <point x="478" y="370" type="line" smooth="yes"/>
      <point x="499" y="403"/>
      <point x="513" y="414"/>
      <point x="510" y="407" type="curve" smooth="yes"/>
      <point x="531" y="417"/>
      <point x="571" y="428"/>
      <point x="575" y="428" type="curve" smooth="yes"/>
      <point x="574" y="428"/>
      <point x="577" y="433"/>
      <point x="579" y="445" type="curve"/>
      <point x="580" y="450"/>
      <point x="581" y="454"/>
      <point x="577" y="455" type="curve"/>
      <point x="520" y="453"/>
      <point x="495" y="450"/>
      <point x="487" y="450" type="curve" smooth="yes"/>
      <point x="474" y="450"/>
      <point x="467" y="450"/>
      <point x="398" y="455" type="curve"/>
      <point x="399" y="452"/>
      <point x="396" y="447"/>
      <point x="394" y="439" type="curve" smooth="yes"/>
      <point x="393" y="431"/>
      <point x="392" y="428"/>
      <point x="393" y="426" type="curve" smooth="yes"/>
      <point x="433" y="426"/>
      <point x="446" y="414"/>
      <point x="441" y="402" type="curve" smooth="yes"/>
      <point x="438" y="391"/>
      <point x="429" y="377"/>
      <point x="417" y="358" type="curve" smooth="yes"/>
      <point x="265" y="125" type="line"/>
      <point x="294" y="125" type="line"/>
      <point x="247" y="363" type="line" smooth="yes"/>
      <point x="242" y="386"/>
      <point x="238" y="398"/>
      <point x="239" y="401" type="curve" smooth="yes"/>
      <point x="244" y="417"/>
      <point x="275" y="426"/>
      <point x="296" y="426" type="curve" smooth="yes"/>
      <point x="299" y="426"/>
      <point x="300" y="429"/>
      <point x="302" y="439" type="curve"/>
      <point x="303" y="448"/>
      <point x="305" y="453"/>
      <point x="302" y="455" type="curve"/>
      <point x="215" y="451"/>
      <point x="195" y="449"/>
      <point x="180" y="449" type="curve" smooth="yes"/>
      <point x="171" y="449"/>
      <point x="101" y="451"/>
      <point x="64" y="455" type="curve"/>
      <point x="64" y="455"/>
      <point x="63" y="449"/>
      <point x="60" y="440" type="curve" smooth="yes"/>
      <point x="58" y="431"/>
      <point x="58" y="426"/>
      <point x="61" y="426" type="curve" smooth="yes"/>
      <point x="76" y="426"/>
      <point x="112" y="416"/>
      <point x="114" y="399" type="curve" smooth="yes"/>
      <point x="112" y="403"/>
      <point x="115" y="385"/>
      <point x="123" y="349" type="curve" smooth="yes"/>
      <point x="192" y="13" type="line"/>
      <point x="196" y="-4"/>
      <point x="201" y="-7"/>
    </contour>
  </outline>
</glyph>
<glyph name="Y" format="1">
  <advance width="472"/>
  <unicode hex="0059"/>
  <outline>
    <contour>
      <point x="45" y="453" type="move" name="topleft"/>
    </contour>
    <contour>
      <point x="284" y="453" type="move" name="top"/>
    </contour>
    <contour>
      <point x="189" y="0" type="move" name="bottom"/>
    </contour>
    <contour>
      <point x="86" y="-3" type="curve"/>
      <point x="90" y="-2"/>
      <point x="160" y="4"/>
      <point x="196" y="4" type="curve" smooth="yes"/>
      <point x="217" y="4"/>
      <point x="311" y="-1"/>
      <point x="311" y="-3" type="curve"/>
      <point x="312" y="2"/>
      <point x="315" y="8"/>
      <point x="316" y="11" type="curve" smooth="yes"/>
      <point x="317" y="23"/>
      <point x="317" y="27"/>
      <point x="315" y="27" type="curve" smooth="yes"/>
      <point x="304" y="27"/>
      <point x="273" y="40"/>
      <point x="273" y="45" type="curve" smooth="yes"/>
      <point x="273" y="62"/>
      <point x="275" y="82"/>
      <point x="279" y="102" type="curve" smooth="yes"/>
      <point x="303" y="215" type="line" smooth="yes"/>
      <point x="304" y="221"/>
      <point x="311" y="231"/>
      <point x="321" y="242" type="curve" smooth="yes"/>
      <point x="446" y="379" type="line" smooth="yes"/>
      <point x="455" y="389"/>
      <point x="464" y="397"/>
      <point x="467" y="400" type="curve"/>
      <point x="484" y="418"/>
      <point x="505" y="427"/>
      <point x="529" y="427" type="curve" smooth="yes"/>
      <point x="531" y="427"/>
      <point x="532" y="431"/>
      <point x="534" y="442" type="curve" smooth="yes"/>
      <point x="535" y="446"/>
      <point x="536" y="450"/>
      <point x="535" y="455" type="curve"/>
      <point x="473" y="451"/>
      <point x="456" y="451"/>
      <point x="447" y="451" type="curve" smooth="yes"/>
      <point x="424" y="451"/>
      <point x="395" y="453"/>
      <point x="357" y="455" type="curve"/>
      <point x="356" y="455"/>
      <point x="353" y="448"/>
      <point x="351" y="442" type="curve" smooth="yes"/>
      <point x="348" y="433"/>
      <point x="351" y="425"/>
      <point x="353" y="425" type="curve" smooth="yes"/>
      <point x="389" y="425"/>
      <point x="397" y="425"/>
      <point x="395" y="415" type="curve" smooth="yes"/>
      <point x="393" y="409"/>
      <point x="391" y="402"/>
      <point x="392" y="403" type="curve" smooth="yes"/>
      <point x="294" y="290" type="line"/>
      <point x="302" y="290" type="line"/>
      <point x="253" y="405" type="line"/>
      <point x="252" y="410"/>
      <point x="250" y="414"/>
      <point x="251" y="417" type="curve" smooth="yes"/>
      <point x="253" y="421"/>
      <point x="273" y="425"/>
      <point x="290" y="425" type="curve" smooth="yes"/>
      <point x="291" y="425"/>
      <point x="294" y="434"/>
      <point x="296" y="444" type="curve" smooth="yes"/>
      <point x="297" y="448"/>
      <point x="297" y="454"/>
      <point x="297" y="455" type="curve"/>
      <point x="242" y="453"/>
      <point x="198" y="451"/>
      <point x="182" y="451" type="curve" smooth="yes"/>
      <point x="165" y="451"/>
      <point x="124" y="453"/>
      <point x="78" y="455" type="curve"/>
      <point x="75" y="453"/>
      <point x="74" y="450"/>
      <point x="72" y="440" type="curve" smooth="yes"/>
      <point x="70" y="429"/>
      <point x="70" y="425"/>
      <point x="73" y="425" type="curve" smooth="yes"/>
      <point x="88" y="425"/>
      <point x="91" y="425"/>
      <point x="104" y="418" type="curve" smooth="yes"/>
      <point x="110" y="418"/>
      <point x="120" y="400"/>
      <point x="134" y="364" type="curve" smooth="yes"/>
      <point x="182" y="251" type="line" smooth="yes"/>
      <point x="185" y="245"/>
      <point x="189" y="232"/>
      <point x="189" y="232" type="curve" smooth="yes"/>
      <point x="160" y="94" type="line" smooth="yes"/>
      <point x="154" y="69"/>
      <point x="150" y="54"/>
      <point x="144" y="45" type="curve"/>
      <point x="142" y="39"/>
      <point x="105" y="27"/>
      <point x="90" y="27" type="curve" smooth="yes"/>
      <point x="89" y="27"/>
      <point x="88" y="21"/>
      <point x="85" y="9" type="curve" smooth="yes"/>
      <point x="83" y="3"/>
      <point x="84" y="-1"/>
    </contour>
  </outline>
</glyph>
<glyph name="bracketleft" format="1">
  <advance width="305"/>
  <unicode hex="005B"/>
  <outline>
    <contour>
      <point x="155" y="-42" type="curve"/>
      <point x="271" y="507" type="line"/>
      <point x="289" y="509"/>
      <point x="333" y="517"/>
      <point x="372" y="532" type="curve"/>
      <point x="377" y="538"/>
      <point x="378" y="542"/>
      <point x="380" y="552" type="curve" smooth="yes"/>
      <point x="381" y="557"/>
      <point x="381" y="563"/>
      <point x="379" y="565" type="curve"/>
      <point x="299" y="551"/>
      <point x="238" y="543"/>
      <point x="169" y="543" type="curve" smooth="yes"/>
      <point x="160" y="543"/>
      <point x="155" y="539"/>
      <point x="154" y="532" type="curve" smooth="yes"/>
      <point x="28" y="-67" type="line" smooth="yes"/>
      <point x="26" y="-74"/>
      <point x="29" y="-78"/>
      <point x="39" y="-78" type="curve" smooth="yes"/>
      <point x="107" y="-78"/>
      <point x="166" y="-86"/>
      <point x="239" y="-101" type="curve"/>
      <point x="241" y="-98"/>
      <point x="245" y="-92"/>
      <point x="246" y="-87" type="curve" smooth="yes"/>
      <point x="248" y="-77"/>
      <point x="249" y="-73"/>
      <point x="246" y="-67" type="curve"/>
      <point x="214" y="-52"/>
      <point x="173" y="-44"/>
    </contour>
  </outline>
</glyph>
<glyph name="backslash" format="1">
  <advance width="317"/>
  <unicode hex="005C"/>
  <outline>
    <contour>
      <point x="89" y="519" type="line"/>
      <point x="200" y="-19" type="line"/>
      <point x="269" y="-19" type="line"/>
      <point x="157" y="519" type="line"/>
    </contour>
  </outline>
</glyph>
<glyph name="asciicircum" format="1">
  <advance width="422"/>
  <unicode hex="005E"/>
  <outline>
    <contour>
      <point x="376" y="110" type="line"/>
      <point x="287" y="369" type="line"/>
      <point x="224" y="369" type="line"/>
      <point x="28" y="110" type="line"/>
      <point x="87" y="81" type="line"/>
      <point x="259" y="308" type="line"/>
      <point x="229" y="308" type="line"/>
      <point x="304" y="81" type="line"/>
    </contour>
  </outline>
</glyph>
<glyph name="underscore" format="1">
  <advance width="372"/>
  <unicode hex="005F"/>
  <outline>
    <contour>
      <point x="312" y="0" type="curve"/>
      <point x="-8" y="0" type="line" smooth="yes"/>
      <point x="-14" y="0"/>
      <point x="-18" y="-29"/>
      <point x="-18" y="-40" type="curve" smooth="yes"/>
      <point x="-18" y="-48"/>
      <point x="-17" y="-53"/>
      <point x="-16" y="-56" type="curve"/>
      <point x="303" y="-56" type="line" smooth="yes"/>
      <point x="310" y="-56"/>
      <point x="314" y="-27"/>
      <point x="314" y="-16" type="curve" smooth="yes"/>
      <point x="314" y="-8"/>
      <point x="313" y="-3"/>
    </contour>
  </outline>
</glyph>
<glyph name="a" format="1">
  <advance width="368"/>
  <unicode hex="0061"/>
  <outline>
    <contour>
      <point x="226" y="306" type="move" name="top"/>
    </contour>
    <contour>
      <point x="275" y="7" type="move" name="ogonek"/>
    </contour>
    <contour>
      <point x="161" y="0" type="move" name="bottom"/>
    </contour>
    <contour>
      <point x="241" y="315" type="curve" smooth="yes"/>
      <point x="124" y="315"/>
      <point x="4" y="211"/>
      <point x="4" y="94" type="curve" smooth="yes"/>
      <point x="4" y="43"/>
      <point x="42" y="-7"/>
      <point x="90" y="-7" type="curve" smooth="yes"/>
      <point x="125" y="-7"/>
      <point x="147" y="1"/>
      <point x="187" y="73" type="curve"/>
      <point x="178" y="43"/>
      <point x="182" y="41"/>
      <point x="182" y="37" type="curve" smooth="yes"/>
      <point x="182" y="16"/>
      <point x="203" y="-6"/>
      <point x="238" y="-6" type="curve" smooth="yes"/>
      <point x="281" y="-6"/>
      <point x="331" y="24"/>
      <point x="371" y="74" type="curve"/>
      <point x="369" y="80"/>
      <point x="353" y="103"/>
      <point x="350" y="103" type="curve"/>
      <point x="330" y="81"/>
      <point x="311" y="67"/>
      <point x="305" y="67" type="curve" smooth="yes"/>
      <point x="300" y="67"/>
      <point x="296" y="73"/>
      <point x="296" y="83" type="curve" smooth="yes"/>
      <point x="296" y="93"/>
      <point x="299" y="108"/>
      <point x="301" y="117" type="curve" smooth="yes"/>
      <point x="341" y="304" type="line"/>
      <point x="306" y="312"/>
      <point x="278" y="315"/>
    </contour>
    <contour>
      <point x="196" y="259" type="curve" smooth="yes"/>
      <point x="207" y="259"/>
      <point x="218" y="256"/>
      <point x="221" y="254" type="curve"/>
      <point x="214" y="219" type="line" smooth="yes"/>
      <point x="198" y="143"/>
      <point x="153" y="65"/>
      <point x="127" y="65" type="curve" smooth="yes"/>
      <point x="126" y="65"/>
      <point x="121" y="83"/>
      <point x="121" y="104" type="curve" smooth="yes"/>
      <point x="121" y="168"/>
      <point x="154" y="259"/>
    </contour>
  </outline>
</glyph>
<glyph name="b" format="1">
  <advance width="344"/>
  <unicode hex="0062"/>
  <outline>
    <contour>
      <point x="249" y="453" type="move" name="top"/>
    </contour>
    <contour>
      <point x="153" y="0" type="move" name="bottom"/>
    </contour>
    <contour>
      <point x="254" y="316" type="curve" smooth="yes"/>
      <point x="221" y="316"/>
      <point x="204" y="313"/>
      <point x="165" y="246" type="curve"/>
      <point x="198" y="399" type="line" smooth="yes"/>
      <point x="207" y="438"/>
      <point x="213" y="460"/>
      <point x="213" y="466" type="curve" smooth="yes"/>
      <point x="213" y="474"/>
      <point x="210" y="480"/>
      <point x="203" y="483" type="curve"/>
      <point x="156" y="469"/>
      <point x="80" y="456"/>
      <point x="37" y="458" type="curve"/>
      <point x="32" y="453"/>
      <point x="30" y="440"/>
      <point x="30" y="434" type="curve" smooth="yes"/>
      <point x="30" y="430"/>
      <point x="31" y="423"/>
      <point x="32" y="423" type="curve" smooth="yes"/>
      <point x="77" y="423"/>
      <point x="87" y="420"/>
      <point x="87" y="409" type="curve" smooth="yes"/>
      <point x="87" y="403"/>
      <point x="85" y="390"/>
      <point x="81" y="368" type="curve" smooth="yes"/>
      <point x="30" y="125" type="line" smooth="yes"/>
      <point x="9" y="29"/>
      <point x="53" y="-9"/>
      <point x="122" y="-9" type="curve" smooth="yes"/>
      <point x="242" y="-9"/>
      <point x="342" y="110"/>
      <point x="342" y="215" type="curve" smooth="yes"/>
      <point x="342" y="265"/>
      <point x="304" y="316"/>
    </contour>
    <contour>
      <point x="215" y="244" type="curve" smooth="yes"/>
      <point x="221" y="244"/>
      <point x="225" y="235"/>
      <point x="225" y="205" type="curve" smooth="yes"/>
      <point x="225" y="140"/>
      <point x="180" y="53"/>
      <point x="149" y="53" type="curve" smooth="yes"/>
      <point x="135" y="53"/>
      <point x="127" y="69"/>
      <point x="127" y="77" type="curve" smooth="yes"/>
      <point x="127" y="106"/>
      <point x="178" y="244"/>
    </contour>
  </outline>
</glyph>
<glyph name="c" format="1">
  <advance width="284"/>
  <unicode hex="0063"/>
  <outline>
    <contour>
      <point x="174" y="306" type="move" name="top"/>
    </contour>
    <contour>
      <point x="123" y="0" type="move" name="bottom"/>
    </contour>
    <contour>
      <point x="196" y="313" type="curve" smooth="yes"/>
      <point x="88" y="313"/>
      <point x="4" y="213"/>
      <point x="4" y="104" type="curve" smooth="yes"/>
      <point x="4" y="41"/>
      <point x="54" y="-7"/>
      <point x="121" y="-7" type="curve" smooth="yes"/>
      <point x="180" y="-7"/>
      <point x="229" y="31"/>
      <point x="265" y="79" type="curve"/>
      <point x="265" y="87"/>
      <point x="255" y="112"/>
      <point x="249" y="112" type="curve"/>
      <point x="214" y="77"/>
      <point x="188" y="65"/>
      <point x="164" y="65" type="curve" smooth="yes"/>
      <point x="149" y="65"/>
      <point x="120" y="76"/>
      <point x="120" y="98" type="curve" smooth="yes"/>
      <point x="120" y="186"/>
      <point x="163" y="271"/>
      <point x="192" y="271" type="curve" smooth="yes"/>
      <point x="212" y="271"/>
      <point x="199" y="201"/>
      <point x="246" y="201" type="curve" smooth="yes"/>
      <point x="270" y="201"/>
      <point x="285" y="224"/>
      <point x="285" y="249" type="curve" smooth="yes"/>
      <point x="285" y="293"/>
      <point x="251" y="313"/>
    </contour>
  </outline>
</glyph>
<glyph name="d" format="1">
  <advance width="368"/>
  <unicode hex="0064"/>
  <outline>
    <contour>
      <point x="155" y="0" type="move" name="bottom"/>
    </contour>
    <contour>
      <point x="268" y="364" type="move" name="stroke"/>
    </contour>
    <contour>
      <point x="250" y="453" type="move" name="top"/>
    </contour>
    <contour>
      <point x="353" y="306" type="move" name="topright"/>
    </contour>
    <contour>
      <point x="187" y="153" type="move" name="center"/>
    </contour>
    <contour>
      <point x="90" y="-7" type="curve" smooth="yes"/>
      <point x="125" y="-7"/>
      <point x="147" y="1"/>
      <point x="187" y="73" type="curve"/>
      <point x="178" y="43"/>
      <point x="182" y="41"/>
      <point x="182" y="37" type="curve" smooth="yes"/>
      <point x="182" y="16"/>
      <point x="203" y="-6"/>
      <point x="238" y="-6" type="curve" smooth="yes"/>
      <point x="281" y="-6"/>
      <point x="331" y="24"/>
      <point x="371" y="74" type="curve"/>
      <point x="369" y="80"/>
      <point x="353" y="103"/>
      <point x="350" y="103" type="curve"/>
      <point x="330" y="81"/>
      <point x="311" y="67"/>
      <point x="305" y="67" type="curve" smooth="yes"/>
      <point x="300" y="67"/>
      <point x="296" y="72"/>
      <point x="296" y="83" type="curve" smooth="yes"/>
      <point x="296" y="92"/>
      <point x="296" y="93"/>
      <point x="296" y="93" type="curve" smooth="yes"/>
      <point x="364" y="399" type="line" smooth="yes"/>
      <point x="374" y="445"/>
      <point x="377" y="458"/>
      <point x="377" y="464" type="curve" smooth="yes"/>
      <point x="377" y="473"/>
      <point x="374" y="481"/>
      <point x="368" y="483" type="curve"/>
      <point x="319" y="469"/>
      <point x="244" y="456"/>
      <point x="203" y="458" type="curve"/>
      <point x="198" y="453"/>
      <point x="196" y="440"/>
      <point x="196" y="434" type="curve" smooth="yes"/>
      <point x="196" y="430"/>
      <point x="196" y="423"/>
      <point x="198" y="423" type="curve" smooth="yes"/>
      <point x="243" y="423"/>
      <point x="253" y="420"/>
      <point x="253" y="409" type="curve" smooth="yes"/>
      <point x="253" y="405"/>
      <point x="250" y="387"/>
      <point x="243" y="356" type="curve" smooth="yes"/>
      <point x="229" y="295" type="line"/>
      <point x="283" y="314" type="line"/>
      <point x="273" y="315"/>
      <point x="239" y="315"/>
      <point x="241" y="315" type="curve" smooth="yes"/>
      <point x="124" y="315"/>
      <point x="4" y="211"/>
      <point x="4" y="94" type="curve" smooth="yes"/>
      <point x="4" y="43"/>
      <point x="42" y="-7"/>
    </contour>
    <contour>
      <point x="127" y="65" type="curve" smooth="yes"/>
      <point x="126" y="65"/>
      <point x="121" y="83"/>
      <point x="121" y="104" type="curve" smooth="yes"/>
      <point x="121" y="168"/>
      <point x="154" y="259"/>
      <point x="196" y="259" type="curve" smooth="yes"/>
      <point x="208" y="259"/>
      <point x="221" y="253"/>
      <point x="216" y="231" type="curve" smooth="yes"/>
      <point x="214" y="219" type="line" smooth="yes"/>
      <point x="198" y="143"/>
      <point x="153" y="65"/>
    </contour>
  </outline>
</glyph>
<glyph name="e" format="1">
  <advance width="299"/>
  <unicode hex="0065"/>
  <outline>
    <contour>
      <point x="187" y="306" type="move" name="top"/>
    </contour>
    <contour>
      <point x="180" y="7" type="move" name="ogonek"/>
    </contour>
    <contour>
      <point x="122" y="0" type="move" name="bottom"/>
    </contour>
    <contour>
      <point x="125" y="-7" type="curve" smooth="yes"/>
      <point x="172" y="-7"/>
      <point x="226" y="19"/>
      <point x="273" y="79" type="curve"/>
      <point x="273" y="89"/>
      <point x="261" y="112"/>
      <point x="257" y="112" type="curve"/>
      <point x="225" y="80"/>
      <point x="194" y="65"/>
      <point x="167" y="65" type="curve" smooth="yes"/>
      <point x="142" y="65"/>
      <point x="120" y="83"/>
      <point x="120" y="98" type="curve" smooth="yes"/>
      <point x="120" y="176"/>
      <point x="159" y="271"/>
      <point x="185" y="271" type="curve" smooth="yes"/>
      <point x="196" y="271"/>
      <point x="202" y="258"/>
      <point x="202" y="241" type="curve" smooth="yes"/>
      <point x="202" y="205"/>
      <point x="180" y="171"/>
      <point x="113" y="152" type="curve"/>
      <point x="109" y="109" type="line"/>
      <point x="242" y="143"/>
      <point x="306" y="199"/>
      <point x="306" y="243" type="curve" smooth="yes"/>
      <point x="306" y="290"/>
      <point x="266" y="313"/>
      <point x="207" y="313" type="curve" smooth="yes"/>
      <point x="103" y="313"/>
      <point x="4" y="229"/>
      <point x="4" y="104" type="curve" smooth="yes"/>
      <point x="4" y="43"/>
      <point x="52" y="-7"/>
    </contour>
  </outline>
</glyph>
<glyph name="f" format="1">
  <advance width="294"/>
  <unicode hex="0066"/>
  <outline>
    <contour>
      <point x="221" y="453" type="move" name="top"/>
    </contour>
    <contour>
      <point x="126" y="0" type="move" name="bottom"/>
    </contour>
    <contour>
      <point x="-61" y="-144" type="curve" smooth="yes"/>
      <point x="37" y="-144"/>
      <point x="121" y="-68"/>
      <point x="144" y="44" type="curve" smooth="yes"/>
      <point x="207" y="342" type="line" smooth="yes"/>
      <point x="219" y="399"/>
      <point x="250" y="442"/>
      <point x="277" y="442" type="curve" smooth="yes"/>
      <point x="309" y="442"/>
      <point x="295" y="381"/>
      <point x="330" y="381" type="curve" smooth="yes"/>
      <point x="362" y="381"/>
      <point x="385" y="401"/>
      <point x="385" y="438" type="curve" smooth="yes"/>
      <point x="385" y="468"/>
      <point x="359" y="488"/>
      <point x="301" y="488" type="curve" smooth="yes"/>
      <point x="199" y="488"/>
      <point x="118" y="430"/>
      <point x="98" y="336" type="curve" smooth="yes"/>
      <point x="20" y="-18" type="line" smooth="yes"/>
      <point x="4" y="-89"/>
      <point x="-7" y="-99"/>
      <point x="-39" y="-99" type="curve" smooth="yes"/>
      <point x="-69" y="-99"/>
      <point x="-60" y="-46"/>
      <point x="-102" y="-46" type="curve" smooth="yes"/>
      <point x="-128" y="-46"/>
      <point x="-144" y="-61"/>
      <point x="-144" y="-87" type="curve" smooth="yes"/>
      <point x="-144" y="-120"/>
      <point x="-108" y="-144"/>
    </contour>
    <contour>
      <point x="26" y="248" type="curve" smooth="yes"/>
      <point x="282" y="248" type="line"/>
      <point x="293" y="263"/>
      <point x="299" y="277"/>
      <point x="299" y="289" type="curve" smooth="yes"/>
      <point x="299" y="298"/>
      <point x="296" y="303"/>
      <point x="291" y="303" type="curve" smooth="yes"/>
      <point x="60" y="303" type="line" smooth="yes"/>
      <point x="48" y="303"/>
      <point x="25" y="270"/>
      <point x="25" y="252" type="curve" smooth="yes"/>
      <point x="25" y="250"/>
      <point x="25" y="248"/>
    </contour>
  </outline>
</glyph>
<glyph name="g" format="1">
  <advance width="337"/>
  <unicode hex="0067"/>
  <outline>
    <contour>
      <point x="184" y="306" type="move" name="top"/>
    </contour>
    <contour>
      <point x="87" y="-153" type="move" name="bottom"/>
    </contour>
    <contour>
      <point x="110" y="-143" type="curve" smooth="yes"/>
      <point x="206" y="-143"/>
      <point x="293" y="-84"/>
      <point x="293" y="-34" type="curve" smooth="yes"/>
      <point x="293" y="0"/>
      <point x="261" y="23"/>
      <point x="166" y="35" type="curve" smooth="yes"/>
      <point x="112" y="41"/>
      <point x="108" y="43"/>
      <point x="108" y="50" type="curve" smooth="yes"/>
      <point x="108" y="56"/>
      <point x="121" y="62"/>
      <point x="178" y="84" type="curve" smooth="yes"/>
      <point x="244" y="109"/>
      <point x="303" y="181"/>
      <point x="303" y="236" type="curve" smooth="yes"/>
      <point x="303" y="245"/>
      <point x="295" y="267"/>
      <point x="293" y="267" type="curve"/>
      <point x="293" y="250" type="line"/>
      <point x="347" y="250" type="line"/>
      <point x="352" y="261"/>
      <point x="354" y="271"/>
      <point x="354" y="283" type="curve" smooth="yes"/>
      <point x="354" y="291"/>
      <point x="350" y="296"/>
      <point x="346" y="296" type="curve" smooth="yes"/>
      <point x="298" y="296" type="line" smooth="yes"/>
      <point x="257" y="296"/>
      <point x="234" y="311"/>
      <point x="198" y="311" type="curve" smooth="yes"/>
      <point x="119" y="311"/>
      <point x="33" y="233"/>
      <point x="33" y="153" type="curve" smooth="yes"/>
      <point x="33" y="114"/>
      <point x="53" y="90"/>
      <point x="96" y="75" type="curve"/>
      <point x="38" y="55"/>
      <point x="8" y="33"/>
      <point x="8" y="4" type="curve" smooth="yes"/>
      <point x="8" y="-14"/>
      <point x="33" y="-39"/>
      <point x="47" y="-38" type="curve"/>
      <point x="5" y="-35"/>
      <point x="-34" y="-55"/>
      <point x="-34" y="-80" type="curve" smooth="yes"/>
      <point x="-34" y="-120"/>
      <point x="25" y="-143"/>
    </contour>
    <contour>
      <point x="115" y="-106" type="curve" smooth="yes"/>
      <point x="84" y="-106"/>
      <point x="53" y="-88"/>
      <point x="53" y="-73" type="curve" smooth="yes"/>
      <point x="53" y="-58"/>
      <point x="58" y="-52"/>
      <point x="70" y="-45" type="curve"/>
      <point x="162" y="-52"/>
      <point x="190" y="-59"/>
      <point x="190" y="-70" type="curve" smooth="yes"/>
      <point x="190" y="-92"/>
      <point x="156" y="-106"/>
    </contour>
    <contour>
      <point x="149" y="118" type="curve" smooth="yes"/>
      <point x="144" y="118"/>
      <point x="138" y="130"/>
      <point x="138" y="148" type="curve" smooth="yes"/>
      <point x="138" y="194"/>
      <point x="172" y="268"/>
      <point x="188" y="268" type="curve" smooth="yes"/>
      <point x="193" y="268"/>
      <point x="198" y="260"/>
      <point x="198" y="243" type="curve" smooth="yes"/>
      <point x="198" y="190"/>
      <point x="167" y="118"/>
    </contour>
  </outline>
</glyph>
<glyph name="h" format="1">
  <advance width="386"/>
  <unicode hex="0068"/>
  <outline>
    <contour>
      <point x="178" y="365" type="move" name="stroke"/>
    </contour>
    <contour>
      <point x="221" y="453" type="move" name="top"/>
    </contour>
    <contour>
      <point x="173" y="226" type="move" name="center"/>
    </contour>
    <contour>
      <point x="125" y="0" type="move" name="bottom"/>
    </contour>
    <contour>
      <point x="255" y="-6" type="curve" smooth="yes"/>
      <point x="298" y="-6"/>
      <point x="348" y="24"/>
      <point x="388" y="74" type="curve"/>
      <point x="386" y="80"/>
      <point x="370" y="103"/>
      <point x="367" y="103" type="curve"/>
      <point x="347" y="81"/>
      <point x="328" y="67"/>
      <point x="322" y="67" type="curve" smooth="yes"/>
      <point x="317" y="67"/>
      <point x="313" y="73"/>
      <point x="313" y="83" type="curve" smooth="yes"/>
      <point x="313" y="93"/>
      <point x="314" y="102"/>
      <point x="319" y="122" type="curve" smooth="yes"/>
      <point x="338" y="195" type="line" smooth="yes"/>
      <point x="346" y="222"/>
      <point x="351" y="246"/>
      <point x="351" y="260" type="curve" smooth="yes"/>
      <point x="351" y="302"/>
      <point x="331" y="315"/>
      <point x="299" y="315" type="curve" smooth="yes"/>
      <point x="236" y="315"/>
      <point x="165" y="247"/>
      <point x="160" y="200" type="curve"/>
      <point x="160" y="184" type="line"/>
      <point x="210" y="399" type="line" smooth="yes"/>
      <point x="219" y="436"/>
      <point x="225" y="458"/>
      <point x="225" y="466" type="curve" smooth="yes"/>
      <point x="225" y="474"/>
      <point x="222" y="480"/>
      <point x="215" y="483" type="curve"/>
      <point x="167" y="469"/>
      <point x="91" y="456"/>
      <point x="49" y="458" type="curve"/>
      <point x="44" y="453"/>
      <point x="42" y="440"/>
      <point x="42" y="434" type="curve" smooth="yes"/>
      <point x="42" y="430"/>
      <point x="42" y="423"/>
      <point x="44" y="423" type="curve" smooth="yes"/>
      <point x="89" y="423"/>
      <point x="99" y="420"/>
      <point x="99" y="409" type="curve" smooth="yes"/>
      <point x="99" y="403"/>
      <point x="97" y="390"/>
      <point x="92" y="368" type="curve" smooth="yes"/>
      <point x="14" y="0" type="line"/>
      <point x="29" y="-3"/>
      <point x="47" y="-5"/>
      <point x="69" y="-5" type="curve" smooth="yes"/>
      <point x="93" y="-5"/>
      <point x="111" y="-3"/>
      <point x="123" y="0" type="curve"/>
      <point x="134" y="51" type="line" smooth="yes"/>
      <point x="154" y="145"/>
      <point x="191" y="226"/>
      <point x="215" y="226" type="curve" smooth="yes"/>
      <point x="224" y="226"/>
      <point x="231" y="223"/>
      <point x="231" y="209" type="curve" smooth="yes"/>
      <point x="231" y="197"/>
      <point x="230" y="184"/>
      <point x="222" y="157" type="curve" smooth="yes"/>
      <point x="205" y="95" type="line" smooth="yes"/>
      <point x="199" y="73"/>
      <point x="196" y="52"/>
      <point x="196" y="35" type="curve" smooth="yes"/>
      <point x="196" y="13"/>
      <point x="220" y="-6"/>
    </contour>
  </outline>
</glyph>
<glyph name="i" format="1">
  <advance width="228"/>
  <unicode hex="0069"/>
  <outline>
    <contour>
      <point x="156" y="383" type="curve" smooth="yes"/>
      <point x="199" y="383"/>
      <point x="240" y="418"/>
      <point x="240" y="460" type="curve" smooth="yes"/>
      <point x="240" y="487"/>
      <point x="221" y="505"/>
      <point x="190" y="505" type="curve" smooth="yes"/>
      <point x="145" y="505"/>
      <point x="104" y="471"/>
      <point x="104" y="426" type="curve" smooth="yes"/>
      <point x="104" y="401"/>
      <point x="123" y="383"/>
    </contour>
    <contour>
      <point x="70" y="-205" type="curve" smooth="yes"/>
      <point x="143" y="-205"/>
      <point x="252" y="-133"/>
      <point x="319" y="-43" type="curve"/>
      <point x="317" y="-33"/>
      <point x="291" y="6"/>
      <point x="286" y="6" type="curve"/>
      <point x="235" y="-48"/>
      <point x="199" y="-76"/>
      <point x="182" y="-76" type="curve" smooth="yes"/>
      <point x="170" y="-76"/>
      <point x="163" y="-63"/>
      <point x="163" y="-41" type="curve" smooth="yes"/>
      <point x="163" y="-22"/>
      <point x="164" y="-2"/>
      <point x="172" y="31" type="curve" smooth="yes"/>
      <point x="235" y="292" type="line" smooth="yes"/>
      <point x="248" y="341"/>
      <point x="253" y="380"/>
      <point x="253" y="413" type="curve" smooth="yes"/>
      <point x="253" y="468"/>
      <point x="222" y="514"/>
      <point x="160" y="514" type="curve" smooth="yes"/>
      <point x="87" y="514"/>
      <point x="-31" y="437"/>
      <point x="-94" y="349" type="curve"/>
      <point x="-94" y="341"/>
      <point x="-66" y="299"/>
      <point x="-61" y="299" type="curve"/>
      <point x="-4" y="358"/>
      <point x="30" y="385"/>
      <point x="49" y="385" type="curve" smooth="yes"/>
      <point x="61" y="385"/>
      <point x="67" y="372"/>
      <point x="67" y="350" type="curve" smooth="yes"/>
      <point x="67" y="332"/>
      <point x="65" y="312"/>
      <point x="59" y="285" type="curve" smooth="yes"/>
      <point x="-8" y="-9" type="line" smooth="yes"/>
      <point x="-17" y="-52"/>
      <point x="-23" y="-89"/>
      <point x="-23" y="-117" type="curve" smooth="yes"/>
      <point x="-23" y="-167"/>
      <point x="14" y="-205"/>
    </contour>
  </outline>
</glyph>
<glyph name="j" format="1">
  <advance width="206"/>
  <unicode hex="006A"/>
  <outline>
    <contour>
      <point x="150" y="383" type="curve" smooth="yes"/>
      <point x="193" y="383"/>
      <point x="234" y="418"/>
      <point x="234" y="460" type="curve" smooth="yes"/>
      <point x="234" y="487"/>
      <point x="215" y="505"/>
      <point x="184" y="505" type="curve" smooth="yes"/>
      <point x="139" y="505"/>
      <point x="98" y="471"/>
      <point x="98" y="426" type="curve" smooth="yes"/>
      <point x="98" y="401"/>
      <point x="117" y="383"/>
    </contour>
    <contour>
      <point x="126" y="315" type="curve" smooth="yes"/>
      <point x="86" y="315"/>
      <point x="33" y="288"/>
      <point x="-11" y="231" type="curve"/>
      <point x="-11" y="228"/>
      <point x="8" y="203"/>
      <point x="10" y="203" type="curve"/>
      <point x="38" y="232"/>
      <point x="54" y="242"/>
      <point x="61" y="242" type="curve" smooth="yes"/>
      <point x="66" y="242"/>
      <point x="69" y="236"/>
      <point x="69" y="224" type="curve" smooth="yes"/>
      <point x="69" y="219"/>
      <point x="69" y="215"/>
      <point x="70" y="218" type="curve" smooth="yes"/>
      <point x="41" y="104" type="line" smooth="yes"/>
      <point x="11" y="-19"/>
      <point x="12" y="-38"/>
      <point x="-65" y="-111" type="curve"/>
      <point x="-65" y="-119"/>
      <point x="-56" y="-145"/>
      <point x="-54" y="-142" type="curve"/>
      <point x="94" y="-86"/>
      <point x="124" y="-8"/>
      <point x="147" y="82" type="curve" smooth="yes"/>
      <point x="174" y="188" type="line" smooth="yes"/>
      <point x="181" y="216"/>
      <point x="186" y="239"/>
      <point x="186" y="261" type="curve" smooth="yes"/>
      <point x="186" y="288"/>
      <point x="168" y="315"/>
    </contour>
  </outline>
</glyph>
<glyph name="k" format="1">
  <advance width="405"/>
  <unicode hex="006B"/>
  <outline>
    <contour>
      <point x="243" y="453" type="move" name="top"/>
    </contour>
    <contour>
      <point x="148" y="0" type="move" name="bottom"/>
    </contour>
    <contour>
      <point x="78" y="-7" type="curve" smooth="yes"/>
      <point x="102" y="-7"/>
      <point x="119" y="-4"/>
      <point x="131" y="0" type="curve"/>
      <point x="155" y="120" type="line"/>
      <point x="140" y="125" type="line"/>
      <point x="209" y="44" type="line" smooth="yes"/>
      <point x="244" y="4"/>
      <point x="251" y="-6"/>
      <point x="278" y="-6" type="curve" smooth="yes"/>
      <point x="328" y="-6"/>
      <point x="371" y="30"/>
      <point x="407" y="67" type="curve"/>
      <point x="407" y="66"/>
      <point x="389" y="93"/>
      <point x="381" y="93" type="curve"/>
      <point x="367" y="75"/>
      <point x="348" y="65"/>
      <point x="339" y="65" type="curve" smooth="yes"/>
      <point x="338" y="65"/>
      <point x="335" y="57"/>
      <point x="321" y="69" type="curve" smooth="yes"/>
      <point x="235" y="157" type="line"/>
      <point x="208" y="131" type="line"/>
      <point x="298" y="142"/>
      <point x="368" y="193"/>
      <point x="369" y="252" type="curve" smooth="yes"/>
      <point x="371" y="292"/>
      <point x="341" y="315"/>
      <point x="295" y="315" type="curve" smooth="yes"/>
      <point x="244" y="315"/>
      <point x="198" y="290"/>
      <point x="171" y="248" type="curve"/>
      <point x="175" y="219" type="line"/>
      <point x="214" y="399" type="line" smooth="yes"/>
      <point x="221" y="432"/>
      <point x="226" y="464"/>
      <point x="226" y="466" type="curve" smooth="yes"/>
      <point x="226" y="475"/>
      <point x="224" y="480"/>
      <point x="217" y="483" type="curve"/>
      <point x="163" y="468"/>
      <point x="91" y="456"/>
      <point x="53" y="458" type="curve"/>
      <point x="49" y="454"/>
      <point x="46" y="443"/>
      <point x="46" y="434" type="curve" smooth="yes"/>
      <point x="46" y="428"/>
      <point x="47" y="423"/>
      <point x="48" y="423" type="curve" smooth="yes"/>
      <point x="92" y="423"/>
      <point x="103" y="420"/>
      <point x="103" y="409" type="curve" smooth="yes"/>
      <point x="103" y="404"/>
      <point x="101" y="391"/>
      <point x="97" y="368" type="curve" smooth="yes"/>
      <point x="19" y="0" type="line"/>
      <point x="41" y="-4"/>
      <point x="62" y="-7"/>
    </contour>
    <contour>
      <point x="154" y="133" type="line"/>
      <point x="170" y="210"/>
      <point x="196" y="253"/>
      <point x="231" y="253" type="curve" smooth="yes"/>
      <point x="245" y="253"/>
      <point x="264" y="247"/>
      <point x="262" y="222" type="curve" smooth="yes"/>
      <point x="261" y="181"/>
      <point x="222" y="155"/>
      <point x="140" y="142" type="curve"/>
    </contour>
  </outline>
</glyph>
<glyph name="l" format="1">
  <advance width="219"/>
  <unicode hex="006C"/>
  <outline>
    <contour>
      <point x="173" y="453" type="move" name="top"/>
    </contour>
    <contour>
      <point x="78" y="0" type="move" name="bottom"/>
    </contour>
    <contour>
      <point x="121" y="226" type="move" name="center"/>
    </contour>
    <contour>
      <point x="261" y="226" type="move" name="dotacc"/>
    </contour>
    <contour>
      <point x="202" y="306" type="move" name="topright"/>
    </contour>
    <contour>
      <point x="90" y="-6" type="curve" smooth="yes"/>
      <point x="126" y="-6"/>
      <point x="178" y="18"/>
      <point x="222" y="74" type="curve"/>
      <point x="219" y="80"/>
      <point x="203" y="103"/>
      <point x="201" y="103" type="curve"/>
      <point x="176" y="77"/>
      <point x="159" y="67"/>
      <point x="156" y="67" type="curve" smooth="yes"/>
      <point x="151" y="67"/>
      <point x="147" y="72"/>
      <point x="147" y="81" type="curve" smooth="yes"/>
      <point x="147" y="92"/>
      <point x="149" y="102"/>
      <point x="153" y="122" type="curve" smooth="yes"/>
      <point x="211" y="399" type="line" smooth="yes"/>
      <point x="220" y="438"/>
      <point x="226" y="460"/>
      <point x="226" y="466" type="curve" smooth="yes"/>
      <point x="226" y="474"/>
      <point x="223" y="480"/>
      <point x="217" y="483" type="curve"/>
      <point x="168" y="469"/>
      <point x="96" y="456"/>
      <point x="54" y="458" type="curve"/>
      <point x="49" y="453"/>
      <point x="46" y="440"/>
      <point x="46" y="434" type="curve" smooth="yes"/>
      <point x="46" y="430"/>
      <point x="47" y="423"/>
      <point x="49" y="423" type="curve" smooth="yes"/>
      <point x="94" y="423"/>
      <point x="104" y="420"/>
      <point x="104" y="409" type="curve" smooth="yes"/>
      <point x="104" y="405"/>
      <point x="101" y="387"/>
      <point x="94" y="356" type="curve" smooth="yes"/>
      <point x="39" y="95" type="line" smooth="yes"/>
      <point x="34" y="72"/>
      <point x="30" y="52"/>
      <point x="30" y="35" type="curve" smooth="yes"/>
      <point x="30" y="13"/>
      <point x="54" y="-6"/>
    </contour>
  </outline>
</glyph>
<glyph name="m" format="1">
  <advance width="556"/>
  <unicode hex="006D"/>
  <outline>
    <contour>
      <point x="311" y="306" type="move" name="top"/>
    </contour>
    <contour>
      <point x="246" y="0" type="move" name="bottom"/>
    </contour>
    <contour>
      <point x="425" y="-6" type="curve" smooth="yes"/>
      <point x="468" y="-6"/>
      <point x="518" y="24"/>
      <point x="558" y="74" type="curve"/>
      <point x="556" y="80"/>
      <point x="540" y="103"/>
      <point x="538" y="103" type="curve"/>
      <point x="517" y="81"/>
      <point x="499" y="67"/>
      <point x="492" y="67" type="curve" smooth="yes"/>
      <point x="487" y="67"/>
      <point x="484" y="73"/>
      <point x="484" y="83" type="curve" smooth="yes"/>
      <point x="484" y="93"/>
      <point x="484" y="102"/>
      <point x="489" y="122" type="curve" smooth="yes"/>
      <point x="509" y="195" type="line" smooth="yes"/>
      <point x="517" y="222"/>
      <point x="521" y="246"/>
      <point x="521" y="260" type="curve" smooth="yes"/>
      <point x="521" y="302"/>
      <point x="501" y="315"/>
      <point x="476" y="315" type="curve" smooth="yes"/>
      <point x="421" y="315"/>
      <point x="352" y="255"/>
      <point x="346" y="213" type="curve"/>
      <point x="342" y="197" type="line"/>
      <point x="346" y="208" type="line" smooth="yes"/>
      <point x="357" y="246"/>
      <point x="356" y="280"/>
      <point x="356" y="278" type="curve" smooth="yes"/>
      <point x="356" y="293"/>
      <point x="336" y="315"/>
      <point x="309" y="315" type="curve" smooth="yes"/>
      <point x="255" y="315"/>
      <point x="186" y="255"/>
      <point x="179" y="213" type="curve"/>
      <point x="175" y="197" type="line"/>
      <point x="173" y="177" type="line" smooth="yes"/>
      <point x="187" y="224"/>
      <point x="187" y="267"/>
      <point x="187" y="271" type="curve" smooth="yes"/>
      <point x="187" y="292"/>
      <point x="165" y="315"/>
      <point x="130" y="315" type="curve" smooth="yes"/>
      <point x="88" y="315"/>
      <point x="29" y="281"/>
      <point x="-7" y="231" type="curve"/>
      <point x="-7" y="228"/>
      <point x="11" y="203"/>
      <point x="14" y="203" type="curve"/>
      <point x="39" y="229"/>
      <point x="57" y="242"/>
      <point x="64" y="242" type="curve" smooth="yes"/>
      <point x="70" y="242"/>
      <point x="73" y="236"/>
      <point x="73" y="228" type="curve" smooth="yes"/>
      <point x="73" y="217"/>
      <point x="72" y="212"/>
      <point x="69" y="198" type="curve" smooth="yes"/>
      <point x="27" y="0" type="line"/>
      <point x="41" y="-3"/>
      <point x="59" y="-5"/>
      <point x="81" y="-5" type="curve" smooth="yes"/>
      <point x="105" y="-5"/>
      <point x="123" y="-3"/>
      <point x="135" y="0" type="curve"/>
      <point x="146" y="51" type="line" smooth="yes"/>
      <point x="166" y="145"/>
      <point x="207" y="226"/>
      <point x="223" y="226" type="curve" smooth="yes"/>
      <point x="228" y="226"/>
      <point x="234" y="223"/>
      <point x="234" y="209" type="curve" smooth="yes"/>
      <point x="234" y="202"/>
      <point x="232" y="184"/>
      <point x="226" y="157" type="curve" smooth="yes"/>
      <point x="193" y="0" type="line"/>
      <point x="207" y="-3"/>
      <point x="225" y="-5"/>
      <point x="248" y="-5" type="curve" smooth="yes"/>
      <point x="272" y="-5"/>
      <point x="290" y="-3"/>
      <point x="301" y="0" type="curve"/>
      <point x="312" y="51" type="line" smooth="yes"/>
      <point x="332" y="145"/>
      <point x="373" y="226"/>
      <point x="390" y="226" type="curve" smooth="yes"/>
      <point x="394" y="226"/>
      <point x="401" y="223"/>
      <point x="401" y="209" type="curve" smooth="yes"/>
      <point x="401" y="202"/>
      <point x="400" y="184"/>
      <point x="393" y="157" type="curve" smooth="yes"/>
      <point x="376" y="95" type="line" smooth="yes"/>
      <point x="369" y="73"/>
      <point x="367" y="52"/>
      <point x="367" y="35" type="curve" smooth="yes"/>
      <point x="367" y="13"/>
      <point x="391" y="-6"/>
    </contour>
  </outline>
</glyph>
<glyph name="n" format="1">
  <advance width="398"/>
  <unicode hex="006E"/>
  <outline>
    <contour>
      <point x="229" y="306" type="move" name="top"/>
    </contour>
    <contour>
      <point x="164" y="0" type="move" name="bottom"/>
    </contour>
    <contour>
      <point x="267" y="-6" type="curve" smooth="yes"/>
      <point x="310" y="-6"/>
      <point x="360" y="24"/>
      <point x="400" y="74" type="curve"/>
      <point x="398" y="80"/>
      <point x="382" y="103"/>
      <point x="380" y="103" type="curve"/>
      <point x="359" y="81"/>
      <point x="341" y="67"/>
      <point x="334" y="67" type="curve" smooth="yes"/>
      <point x="329" y="67"/>
      <point x="325" y="73"/>
      <point x="325" y="83" type="curve" smooth="yes"/>
      <point x="325" y="93"/>
      <point x="326" y="102"/>
      <point x="331" y="122" type="curve" smooth="yes"/>
      <point x="351" y="195" type="line" smooth="yes"/>
      <point x="358" y="222"/>
      <point x="363" y="246"/>
      <point x="363" y="260" type="curve" smooth="yes"/>
      <point x="363" y="302"/>
      <point x="343" y="315"/>
      <point x="311" y="315" type="curve" smooth="yes"/>
      <point x="251" y="315"/>
      <point x="187" y="255"/>
      <point x="179" y="213" type="curve"/>
      <point x="175" y="197" type="line"/>
      <point x="173" y="177" type="line" smooth="yes"/>
      <point x="187" y="224"/>
      <point x="187" y="267"/>
      <point x="187" y="271" type="curve" smooth="yes"/>
      <point x="187" y="292"/>
      <point x="165" y="315"/>
      <point x="130" y="315" type="curve" smooth="yes"/>
      <point x="88" y="315"/>
      <point x="29" y="281"/>
      <point x="-7" y="231" type="curve"/>
      <point x="-7" y="228"/>
      <point x="11" y="203"/>
      <point x="14" y="203" type="curve"/>
      <point x="39" y="229"/>
      <point x="57" y="242"/>
      <point x="64" y="242" type="curve" smooth="yes"/>
      <point x="70" y="242"/>
      <point x="73" y="236"/>
      <point x="73" y="228" type="curve" smooth="yes"/>
      <point x="73" y="217"/>
      <point x="72" y="212"/>
      <point x="69" y="198" type="curve" smooth="yes"/>
      <point x="27" y="0" type="line"/>
      <point x="41" y="-3"/>
      <point x="59" y="-5"/>
      <point x="81" y="-5" type="curve" smooth="yes"/>
      <point x="105" y="-5"/>
      <point x="123" y="-3"/>
      <point x="135" y="0" type="curve"/>
      <point x="146" y="51" type="line" smooth="yes"/>
      <point x="166" y="145"/>
      <point x="203" y="226"/>
      <point x="227" y="226" type="curve" smooth="yes"/>
      <point x="236" y="226"/>
      <point x="243" y="223"/>
      <point x="243" y="209" type="curve" smooth="yes"/>
      <point x="243" y="202"/>
      <point x="242" y="184"/>
      <point x="234" y="157" type="curve" smooth="yes"/>
      <point x="218" y="95" type="line" smooth="yes"/>
      <point x="211" y="73"/>
      <point x="209" y="52"/>
      <point x="209" y="35" type="curve" smooth="yes"/>
      <point x="209" y="13"/>
      <point x="233" y="-6"/>
    </contour>
  </outline>
</glyph>
<glyph name="o" format="1">
  <advance width="319"/>
  <unicode hex="006F"/>
  <outline>
    <contour>
      <point x="128" y="0" type="move" name="bottom"/>
    </contour>
    <contour>
      <point x="193" y="306" type="move" name="top"/>
    </contour>
    <contour>
      <point x="165" y="7" type="move" name="ogonek"/>
    </contour>
    <contour>
      <point x="328" y="306" type="move" name="topright"/>
    </contour>
    <contour>
      <point x="161" y="153" type="move" name="center"/>
    </contour>
    <contour>
      <point x="113" y="-7" type="curve" smooth="yes"/>
      <point x="236" y="-7"/>
      <point x="314" y="101"/>
      <point x="314" y="203" type="curve" smooth="yes"/>
      <point x="314" y="255"/>
      <point x="277" y="313"/>
      <point x="206" y="313" type="curve" smooth="yes"/>
      <point x="83" y="313"/>
      <point x="4" y="206"/>
      <point x="4" y="104" type="curve" smooth="yes"/>
      <point x="4" y="51"/>
      <point x="42" y="-7"/>
    </contour>
    <contour>
      <point x="139" y="35" type="curve" smooth="yes"/>
      <point x="129" y="35"/>
      <point x="120" y="54"/>
      <point x="120" y="87" type="curve" smooth="yes"/>
      <point x="120" y="182"/>
      <point x="163" y="271"/>
      <point x="180" y="271" type="curve" smooth="yes"/>
      <point x="189" y="271"/>
      <point x="199" y="252"/>
      <point x="199" y="219" type="curve" smooth="yes"/>
      <point x="199" y="123"/>
      <point x="155" y="35"/>
    </contour>
  </outline>
</glyph>
<glyph name="p" format="1">
  <advance width="369"/>
  <unicode hex="0070"/>
  <outline>
    <contour>
      <point x="183" y="306" type="move" name="top"/>
    </contour>
    <contour>
      <point x="118" y="0" type="move" name="bottom"/>
    </contour>
    <contour>
      <point x="-41" y="-158" type="curve"/>
      <point x="-10" y="-155"/>
      <point x="20" y="-152"/>
      <point x="53" y="-152" type="curve" smooth="yes"/>
      <point x="55" y="-152"/>
      <point x="98" y="-151"/>
      <point x="164" y="-150" type="curve"/>
      <point x="166" y="-149"/>
      <point x="169" y="-133"/>
      <point x="169" y="-124" type="curve" smooth="yes"/>
      <point x="169" y="-116"/>
      <point x="167" y="-113"/>
      <point x="161" y="-113" type="curve" smooth="yes"/>
      <point x="157" y="-113"/>
      <point x="150" y="-112"/>
      <point x="141" y="-110" type="curve"/>
      <point x="127" y="-107"/>
      <point x="121" y="-98"/>
      <point x="121" y="-79" type="curve" smooth="yes"/>
      <point x="121" y="-78"/>
      <point x="122" y="-74"/>
      <point x="122" y="-68" type="curve"/>
      <point x="139" y="11" type="line"/>
      <point x="82" y="-7" type="line"/>
      <point x="89" y="-7"/>
      <point x="108" y="-7"/>
      <point x="120" y="-7" type="curve" smooth="yes"/>
      <point x="242" y="-7"/>
      <point x="366" y="93"/>
      <point x="366" y="214" type="curve" smooth="yes"/>
      <point x="366" y="263"/>
      <point x="330" y="315"/>
      <point x="274" y="315" type="curve" smooth="yes"/>
      <point x="204" y="315"/>
      <point x="75" y="225"/>
      <point x="2" y="122" type="curve"/>
      <point x="3" y="117"/>
      <point x="14" y="87"/>
      <point x="22" y="83" type="curve"/>
      <point x="99" y="177"/>
      <point x="175" y="243"/>
      <point x="214" y="243" type="curve" smooth="yes"/>
      <point x="240" y="243"/>
      <point x="249" y="223"/>
      <point x="249" y="205" type="curve" smooth="yes"/>
      <point x="249" y="137"/>
      <point x="212" y="50"/>
      <point x="172" y="50" type="curve" smooth="yes"/>
      <point x="163" y="50"/>
      <point x="148" y="54"/>
      <point x="152" y="68" type="curve" smooth="yes"/>
      <point x="203" y="311" type="line"/>
      <point x="184" y="313"/>
      <point x="164" y="314"/>
      <point x="147" y="314" type="curve" smooth="yes"/>
      <point x="130" y="314"/>
      <point x="112" y="312"/>
      <point x="92" y="309" type="curve"/>
      <point x="11" y="-74" type="line" smooth="yes"/>
      <point x="7" y="-98"/>
      <point x="3" y="-109"/>
      <point x="4" y="-108" type="curve" smooth="yes"/>
      <point x="-2" y="-116"/>
      <point x="-16" y="-120"/>
      <point x="-37" y="-121" type="curve"/>
      <point x="-39" y="-123"/>
      <point x="-41" y="-129"/>
      <point x="-43" y="-152" type="curve" smooth="yes"/>
      <point x="-43" y="-155"/>
      <point x="-43" y="-158"/>
    </contour>
  </outline>
</glyph>
<glyph name="q" format="1">
  <advance width="358"/>
  <unicode hex="0071"/>
  <outline>
    <contour>
      <point x="214" y="306" type="move" name="top"/>
    </contour>
    <contour>
      <point x="149" y="0" type="move" name="bottom"/>
    </contour>
    <contour>
      <point x="82" y="-158" type="curve"/>
      <point x="127" y="-155"/>
      <point x="163" y="-152"/>
      <point x="191" y="-152" type="curve" smooth="yes"/>
      <point x="205" y="-152"/>
      <point x="247" y="-150"/>
      <point x="306" y="-150" type="curve"/>
      <point x="308" y="-148"/>
      <point x="311" y="-132"/>
      <point x="311" y="-124" type="curve" smooth="yes"/>
      <point x="311" y="-117"/>
      <point x="309" y="-113"/>
      <point x="303" y="-113" type="curve" smooth="yes"/>
      <point x="271" y="-113"/>
      <point x="255" y="-111"/>
      <point x="255" y="-81" type="curve" smooth="yes"/>
      <point x="255" y="-77"/>
      <point x="255" y="-72"/>
      <point x="258" y="-60" type="curve" smooth="yes"/>
      <point x="286" y="73" type="line"/>
      <point x="336" y="304" type="line"/>
      <point x="301" y="312"/>
      <point x="273" y="315"/>
      <point x="239" y="315" type="curve" smooth="yes"/>
      <point x="121" y="315"/>
      <point x="4" y="211"/>
      <point x="4" y="94" type="curve" smooth="yes"/>
      <point x="4" y="43"/>
      <point x="42" y="-7"/>
      <point x="87" y="-7" type="curve" smooth="yes"/>
      <point x="120" y="-7"/>
      <point x="142" y="1"/>
      <point x="177" y="68" type="curve"/>
      <point x="147" y="-74" type="line" smooth="yes"/>
      <point x="142" y="-98"/>
      <point x="140" y="-110"/>
      <point x="143" y="-110" type="curve" smooth="yes"/>
      <point x="139" y="-116"/>
      <point x="123" y="-118"/>
      <point x="86" y="-122" type="curve" smooth="yes"/>
      <point x="84" y="-125"/>
      <point x="80" y="-132"/>
      <point x="80" y="-153" type="curve" smooth="yes"/>
      <point x="80" y="-158"/>
      <point x="81" y="-158"/>
    </contour>
    <contour>
      <point x="124" y="65" type="curve" smooth="yes"/>
      <point x="124" y="65"/>
      <point x="121" y="83"/>
      <point x="121" y="104" type="curve" smooth="yes"/>
      <point x="121" y="168"/>
      <point x="151" y="259"/>
      <point x="194" y="259" type="curve" smooth="yes"/>
      <point x="202" y="259"/>
      <point x="213" y="256"/>
      <point x="216" y="254" type="curve"/>
      <point x="209" y="219" type="line" smooth="yes"/>
      <point x="193" y="143"/>
      <point x="149" y="65"/>
    </contour>
  </outline>
</glyph>
<glyph name="r" format="1">
  <advance width="357"/>
  <unicode hex="0072"/>
  <outline>
    <contour>
      <point x="211" y="306" type="move" name="top"/>
    </contour>
    <contour>
      <point x="85" y="0" type="move" name="bottom"/>
    </contour>
    <contour>
      <point x="130" y="315" type="curve" smooth="yes"/>
      <point x="89" y="315"/>
      <point x="37" y="288"/>
      <point x="-7" y="231" type="curve"/>
      <point x="-7" y="228"/>
      <point x="11" y="203"/>
      <point x="14" y="203" type="curve"/>
      <point x="32" y="225"/>
      <point x="54" y="242"/>
      <point x="64" y="242" type="curve" smooth="yes"/>
      <point x="70" y="242"/>
      <point x="73" y="239"/>
      <point x="73" y="228" type="curve" smooth="yes"/>
      <point x="73" y="220"/>
      <point x="72" y="208"/>
      <point x="69" y="198" type="curve" smooth="yes"/>
      <point x="27" y="0" type="line"/>
      <point x="42" y="-4"/>
      <point x="63" y="-5"/>
      <point x="82" y="-5" type="curve" smooth="yes"/>
      <point x="103" y="-5"/>
      <point x="126" y="-4"/>
      <point x="142" y="0" type="curve"/>
      <point x="149" y="41" type="line" smooth="yes"/>
      <point x="156" y="88"/>
      <point x="211" y="240"/>
      <point x="246" y="240" type="curve" smooth="yes"/>
      <point x="262" y="240"/>
      <point x="278" y="202"/>
      <point x="300" y="202" type="curve" smooth="yes"/>
      <point x="335" y="202"/>
      <point x="357" y="232"/>
      <point x="357" y="268" type="curve" smooth="yes"/>
      <point x="357" y="294"/>
      <point x="333" y="315"/>
      <point x="302" y="315" type="curve" smooth="yes"/>
      <point x="252" y="315"/>
      <point x="217" y="301"/>
      <point x="170" y="205" type="curve"/>
      <point x="180" y="201" type="line"/>
      <point x="184" y="236" type="line" smooth="yes"/>
      <point x="187" y="254"/>
      <point x="187" y="261"/>
      <point x="187" y="271" type="curve" smooth="yes"/>
      <point x="187" y="301"/>
      <point x="168" y="315"/>
    </contour>
  </outline>
</glyph>
<glyph name="s" format="1">
  <advance width="245"/>
  <unicode hex="0073"/>
  <outline>
    <contour>
      <point x="153" y="306" type="move" name="top"/>
    </contour>
    <contour>
      <point x="88" y="0" type="move" name="bottom"/>
    </contour>
    <contour>
      <point x="150" y="314" type="curve" smooth="yes"/>
      <point x="70" y="314"/>
      <point x="13" y="267"/>
      <point x="13" y="211" type="curve" smooth="yes"/>
      <point x="13" y="143"/>
      <point x="125" y="105"/>
      <point x="125" y="58" type="curve" smooth="yes"/>
      <point x="125" y="35"/>
      <point x="116" y="33"/>
      <point x="100" y="33" type="curve" smooth="yes"/>
      <point x="61" y="33"/>
      <point x="52" y="86"/>
      <point x="14" y="86" type="curve" smooth="yes"/>
      <point x="-2" y="86"/>
      <point x="-20" y="76"/>
      <point x="-20" y="48" type="curve" smooth="yes"/>
      <point x="-20" y="19"/>
      <point x="18" y="-6"/>
      <point x="91" y="-6" type="curve" smooth="yes"/>
      <point x="172" y="-6"/>
      <point x="229" y="35"/>
      <point x="229" y="93" type="curve" smooth="yes"/>
      <point x="229" y="150"/>
      <point x="117" y="192"/>
      <point x="117" y="247" type="curve" smooth="yes"/>
      <point x="117" y="269"/>
      <point x="130" y="276"/>
      <point x="137" y="276" type="curve" smooth="yes"/>
      <point x="174" y="276"/>
      <point x="169" y="228"/>
      <point x="216" y="228" type="curve" smooth="yes"/>
      <point x="235" y="228"/>
      <point x="248" y="234"/>
      <point x="248" y="260" type="curve" smooth="yes"/>
      <point x="248" y="292"/>
      <point x="208" y="314"/>
    </contour>
  </outline>
</glyph>
<glyph name="t" format="1">
  <advance width="226"/>
  <unicode hex="0074"/>
  <outline>
    <contour>
      <point x="155" y="344" type="move" name="top"/>
    </contour>
    <contour>
      <point x="83" y="0" type="move" name="bottom"/>
    </contour>
    <contour>
      <point x="138" y="185" type="move" name="center"/>
    </contour>
    <contour>
      <point x="223" y="306" type="move" name="topright"/>
    </contour>
    <contour>
      <point x="96" y="-6" type="curve" smooth="yes"/>
      <point x="139" y="-6"/>
      <point x="189" y="24"/>
      <point x="229" y="74" type="curve"/>
      <point x="229" y="78"/>
      <point x="210" y="103"/>
      <point x="208" y="103" type="curve"/>
      <point x="188" y="81"/>
      <point x="169" y="67"/>
      <point x="163" y="67" type="curve" smooth="yes"/>
      <point x="158" y="67"/>
      <point x="154" y="70"/>
      <point x="154" y="81" type="curve" smooth="yes"/>
      <point x="154" y="89"/>
      <point x="154" y="95"/>
      <point x="156" y="103" type="curve" smooth="yes"/>
      <point x="217" y="376" type="line"/>
      <point x="209" y="379"/>
      <point x="201" y="380"/>
      <point x="189" y="380" type="curve" smooth="yes"/>
      <point x="172" y="380"/>
      <point x="105" y="377"/>
      <point x="104" y="369" type="curve"/>
      <point x="45" y="90" type="line" smooth="yes"/>
      <point x="46" y="93"/>
      <point x="37" y="52"/>
      <point x="37" y="35" type="curve" smooth="yes"/>
      <point x="37" y="13"/>
      <point x="61" y="-6"/>
    </contour>
    <contour>
      <point x="45" y="251" type="curve" smooth="yes"/>
      <point x="253" y="251" type="line"/>
      <point x="259" y="260"/>
      <point x="263" y="271"/>
      <point x="263" y="286" type="curve" smooth="yes"/>
      <point x="263" y="294"/>
      <point x="260" y="299"/>
      <point x="253" y="299" type="curve" smooth="yes"/>
      <point x="52" y="299" type="line"/>
      <point x="48" y="297"/>
      <point x="41" y="273"/>
      <point x="41" y="260" type="curve" smooth="yes"/>
      <point x="41" y="254"/>
      <point x="42" y="251"/>
    </contour>
  </outline>
</glyph>
<glyph name="u" format="1">
  <advance width="396"/>
  <unicode hex="0075"/>
  <outline>
    <contour>
      <point x="231" y="306" type="move" name="top"/>
    </contour>
    <contour>
      <point x="329" y="7" type="move" name="ogonek"/>
    </contour>
    <contour>
      <point x="414" y="306" type="move" name="topright"/>
    </contour>
    <contour>
      <point x="167" y="0" type="move" name="bottom"/>
    </contour>
    <contour>
      <point x="92" y="-6" type="curve" smooth="yes"/>
      <point x="150" y="-6"/>
      <point x="214" y="54"/>
      <point x="222" y="98" type="curve"/>
      <point x="226" y="116" type="line"/>
      <point x="227" y="132" type="line" smooth="yes"/>
      <point x="213" y="84"/>
      <point x="213" y="53"/>
      <point x="213" y="49" type="curve" smooth="yes"/>
      <point x="213" y="16"/>
      <point x="234" y="-6"/>
      <point x="269" y="-6" type="curve" smooth="yes"/>
      <point x="312" y="-6"/>
      <point x="362" y="24"/>
      <point x="402" y="74" type="curve"/>
      <point x="402" y="78"/>
      <point x="383" y="103"/>
      <point x="381" y="103" type="curve"/>
      <point x="361" y="81"/>
      <point x="342" y="67"/>
      <point x="336" y="67" type="curve" smooth="yes"/>
      <point x="330" y="67"/>
      <point x="327" y="72"/>
      <point x="327" y="81" type="curve" smooth="yes"/>
      <point x="327" y="92"/>
      <point x="328" y="97"/>
      <point x="331" y="111" type="curve" smooth="yes"/>
      <point x="373" y="309" type="line"/>
      <point x="359" y="312"/>
      <point x="341" y="314"/>
      <point x="319" y="314" type="curve" smooth="yes"/>
      <point x="295" y="314"/>
      <point x="277" y="312"/>
      <point x="265" y="309" type="curve"/>
      <point x="254" y="257" type="line" smooth="yes"/>
      <point x="234" y="164"/>
      <point x="199" y="83"/>
      <point x="177" y="83" type="curve" smooth="yes"/>
      <point x="172" y="83"/>
      <point x="165" y="86"/>
      <point x="165" y="100" type="curve" smooth="yes"/>
      <point x="165" y="106"/>
      <point x="166" y="125"/>
      <point x="174" y="152" type="curve" smooth="yes"/>
      <point x="191" y="213" type="line" smooth="yes"/>
      <point x="197" y="236"/>
      <point x="200" y="257"/>
      <point x="200" y="274" type="curve" smooth="yes"/>
      <point x="200" y="296"/>
      <point x="175" y="315"/>
      <point x="140" y="315" type="curve" smooth="yes"/>
      <point x="98" y="315"/>
      <point x="39" y="281"/>
      <point x="3" y="231" type="curve"/>
      <point x="5" y="225"/>
      <point x="21" y="203"/>
      <point x="23" y="203" type="curve"/>
      <point x="49" y="229"/>
      <point x="67" y="242"/>
      <point x="74" y="242" type="curve" smooth="yes"/>
      <point x="79" y="242"/>
      <point x="83" y="236"/>
      <point x="83" y="225" type="curve" smooth="yes"/>
      <point x="83" y="215"/>
      <point x="83" y="207"/>
      <point x="77" y="187" type="curve" smooth="yes"/>
      <point x="58" y="114" type="line" smooth="yes"/>
      <point x="50" y="87"/>
      <point x="45" y="63"/>
      <point x="45" y="49" type="curve" smooth="yes"/>
      <point x="45" y="6"/>
      <point x="65" y="-6"/>
    </contour>
  </outline>
</glyph>
<glyph name="v" format="1">
  <advance width="338"/>
  <unicode hex="0076"/>
  <outline>
    <contour>
      <point x="206" y="306" type="move" name="top"/>
    </contour>
    <contour>
      <point x="141" y="0" type="move" name="bottom"/>
    </contour>
    <contour>
      <point x="132" y="315" type="curve" smooth="yes"/>
      <point x="88" y="315"/>
      <point x="29" y="279"/>
      <point x="-5" y="231" type="curve"/>
      <point x="-3" y="225"/>
      <point x="13" y="203"/>
      <point x="15" y="203" type="curve"/>
      <point x="41" y="229"/>
      <point x="59" y="242"/>
      <point x="66" y="242" type="curve" smooth="yes"/>
      <point x="72" y="242"/>
      <point x="75" y="236"/>
      <point x="75" y="225" type="curve" smooth="yes"/>
      <point x="75" y="219"/>
      <point x="74" y="204"/>
      <point x="69" y="187" type="curve" smooth="yes"/>
      <point x="48" y="110" type="line" smooth="yes"/>
      <point x="42" y="88"/>
      <point x="42" y="75"/>
      <point x="42" y="63" type="curve" smooth="yes"/>
      <point x="42" y="20"/>
      <point x="73" y="-6"/>
      <point x="113" y="-6" type="curve" smooth="yes"/>
      <point x="199" y="-6"/>
      <point x="337" y="132"/>
      <point x="337" y="257" type="curve" smooth="yes"/>
      <point x="337" y="307"/>
      <point x="317" y="315"/>
      <point x="289" y="315" type="curve" smooth="yes"/>
      <point x="260" y="315"/>
      <point x="233" y="296"/>
      <point x="233" y="266" type="curve" smooth="yes"/>
      <point x="233" y="229"/>
      <point x="264" y="226"/>
      <point x="264" y="189" type="curve" smooth="yes"/>
      <point x="264" y="146"/>
      <point x="205" y="75"/>
      <point x="169" y="75" type="curve" smooth="yes"/>
      <point x="162" y="75"/>
      <point x="157" y="83"/>
      <point x="157" y="101" type="curve" smooth="yes"/>
      <point x="157" y="110"/>
      <point x="158" y="126"/>
      <point x="163" y="143" type="curve" smooth="yes"/>
      <point x="183" y="213" type="line" smooth="yes"/>
      <point x="189" y="238"/>
      <point x="192" y="258"/>
      <point x="192" y="274" type="curve" smooth="yes"/>
      <point x="192" y="296"/>
      <point x="167" y="315"/>
    </contour>
  </outline>
</glyph>
<glyph name="w" format="1">
  <advance width="546"/>
  <unicode hex="0077"/>
  <outline>
    <contour>
      <point x="304" y="306" type="move" name="top"/>
    </contour>
    <contour>
      <point x="239" y="0" type="move" name="bottom"/>
    </contour>
    <contour>
      <point x="497" y="315" type="curve" smooth="yes"/>
      <point x="468" y="315"/>
      <point x="440" y="296"/>
      <point x="440" y="266" type="curve" smooth="yes"/>
      <point x="440" y="229"/>
      <point x="472" y="226"/>
      <point x="472" y="189" type="curve" smooth="yes"/>
      <point x="472" y="146"/>
      <point x="407" y="75"/>
      <point x="371" y="75" type="curve" smooth="yes"/>
      <point x="364" y="75"/>
      <point x="359" y="82"/>
      <point x="359" y="99" type="curve" smooth="yes"/>
      <point x="359" y="109"/>
      <point x="360" y="126"/>
      <point x="365" y="143" type="curve" smooth="yes"/>
      <point x="381" y="206" type="line" smooth="yes"/>
      <point x="391" y="247"/>
      <point x="393" y="258"/>
      <point x="393" y="269" type="curve" smooth="yes"/>
      <point x="393" y="294"/>
      <point x="374" y="315"/>
      <point x="341" y="315" type="curve" smooth="yes"/>
      <point x="302" y="315"/>
      <point x="274" y="287"/>
      <point x="270" y="255" type="curve" smooth="yes"/>
      <point x="255" y="149" type="line"/>
      <point x="235" y="111"/>
      <point x="199" y="75"/>
      <point x="168" y="75" type="curve" smooth="yes"/>
      <point x="162" y="75"/>
      <point x="157" y="83"/>
      <point x="157" y="101" type="curve" smooth="yes"/>
      <point x="157" y="110"/>
      <point x="158" y="126"/>
      <point x="163" y="143" type="curve" smooth="yes"/>
      <point x="183" y="213" type="line" smooth="yes"/>
      <point x="189" y="238"/>
      <point x="192" y="258"/>
      <point x="192" y="274" type="curve" smooth="yes"/>
      <point x="192" y="296"/>
      <point x="167" y="315"/>
      <point x="132" y="315" type="curve" smooth="yes"/>
      <point x="88" y="315"/>
      <point x="29" y="279"/>
      <point x="-5" y="231" type="curve"/>
      <point x="-3" y="225"/>
      <point x="13" y="203"/>
      <point x="15" y="203" type="curve"/>
      <point x="41" y="229"/>
      <point x="59" y="242"/>
      <point x="66" y="242" type="curve" smooth="yes"/>
      <point x="72" y="242"/>
      <point x="75" y="236"/>
      <point x="75" y="225" type="curve" smooth="yes"/>
      <point x="75" y="219"/>
      <point x="74" y="204"/>
      <point x="69" y="187" type="curve" smooth="yes"/>
      <point x="48" y="110" type="line" smooth="yes"/>
      <point x="42" y="88"/>
      <point x="42" y="75"/>
      <point x="42" y="63" type="curve" smooth="yes"/>
      <point x="42" y="20"/>
      <point x="73" y="-6"/>
      <point x="112" y="-6" type="curve" smooth="yes"/>
      <point x="156" y="-6"/>
      <point x="215" y="28"/>
      <point x="263" y="79" type="curve"/>
      <point x="246" y="84" type="line"/>
      <point x="231" y="28"/>
      <point x="267" y="-6"/>
      <point x="314" y="-6" type="curve" smooth="yes"/>
      <point x="401" y="-6"/>
      <point x="545" y="132"/>
      <point x="545" y="257" type="curve" smooth="yes"/>
      <point x="545" y="307"/>
      <point x="525" y="315"/>
    </contour>
  </outline>
</glyph>
<glyph name="x" format="1">
  <advance width="390"/>
  <unicode hex="0078"/>
  <outline>
    <contour>
      <point x="240" y="306" type="move" name="top"/>
    </contour>
    <contour>
      <point x="175" y="0" type="move" name="bottom"/>
    </contour>
    <contour>
      <point x="156" y="314" type="curve" smooth="yes"/>
      <point x="126" y="314"/>
      <point x="87" y="305"/>
      <point x="24" y="228" type="curve"/>
      <point x="24" y="224"/>
      <point x="41" y="199"/>
      <point x="44" y="199" type="curve"/>
      <point x="74" y="227"/>
      <point x="93" y="240"/>
      <point x="105" y="240" type="curve" smooth="yes"/>
      <point x="112" y="240"/>
      <point x="120" y="234"/>
      <point x="123" y="223" type="curve" smooth="yes"/>
      <point x="142" y="155" type="line"/>
      <point x="108" y="90" type="line" smooth="yes"/>
      <point x="99" y="72"/>
      <point x="92" y="71"/>
      <point x="84" y="71" type="curve" smooth="yes"/>
      <point x="71" y="71"/>
      <point x="55" y="81"/>
      <point x="40" y="81" type="curve" smooth="yes"/>
      <point x="8" y="81"/>
      <point x="-10" y="64"/>
      <point x="-10" y="33" type="curve" smooth="yes"/>
      <point x="-10" y="10"/>
      <point x="8" y="-4"/>
      <point x="43" y="-4" type="curve" smooth="yes"/>
      <point x="82" y="-4"/>
      <point x="112" y="6"/>
      <point x="142" y="64" type="curve" smooth="yes"/>
      <point x="158" y="96" type="line"/>
      <point x="173" y="47" type="line" smooth="yes"/>
      <point x="183" y="13"/>
      <point x="206" y="-3"/>
      <point x="246" y="-3" type="curve" smooth="yes"/>
      <point x="276" y="-3"/>
      <point x="314" y="6"/>
      <point x="377" y="83" type="curve"/>
      <point x="377" y="86"/>
      <point x="360" y="111"/>
      <point x="358" y="111" type="curve"/>
      <point x="328" y="84"/>
      <point x="308" y="71"/>
      <point x="296" y="71" type="curve" smooth="yes"/>
      <point x="289" y="71"/>
      <point x="281" y="76"/>
      <point x="279" y="87" type="curve" smooth="yes"/>
      <point x="254" y="174" type="line"/>
      <point x="277" y="221" type="line" smooth="yes"/>
      <point x="285" y="239"/>
      <point x="292" y="240"/>
      <point x="300" y="240" type="curve" smooth="yes"/>
      <point x="313" y="240"/>
      <point x="330" y="230"/>
      <point x="345" y="230" type="curve" smooth="yes"/>
      <point x="376" y="230"/>
      <point x="394" y="247"/>
      <point x="394" y="278" type="curve" smooth="yes"/>
      <point x="394" y="302"/>
      <point x="377" y="315"/>
      <point x="341" y="315" type="curve" smooth="yes"/>
      <point x="302" y="315"/>
      <point x="272" y="304"/>
      <point x="243" y="247" type="curve" smooth="yes"/>
      <point x="237" y="233" type="line"/>
      <point x="228" y="263" type="line" smooth="yes"/>
      <point x="219" y="298"/>
      <point x="195" y="314"/>
    </contour>
  </outline>
</glyph>
<glyph name="y" format="1">
  <advance width="372"/>
  <unicode hex="0079"/>
  <outline>
    <contour>
      <point x="175" y="306" type="move" name="top"/>
    </contour>
    <contour>
      <point x="62" y="0" type="move" name="bottom"/>
    </contour>
    <contour>
      <point x="128" y="315" type="curve" smooth="yes"/>
      <point x="88" y="315"/>
      <point x="37" y="288"/>
      <point x="-9" y="231" type="curve"/>
      <point x="-9" y="228"/>
      <point x="9" y="203"/>
      <point x="11" y="203" type="curve"/>
      <point x="43" y="234"/>
      <point x="54" y="244"/>
      <point x="66" y="244" type="curve" smooth="yes"/>
      <point x="78" y="244"/>
      <point x="79" y="239"/>
      <point x="92" y="187" type="curve" smooth="yes"/>
      <point x="119" y="89"/>
      <point x="133" y="14"/>
      <point x="133" y="-19" type="curve" smooth="yes"/>
      <point x="133" y="-41"/>
      <point x="124" y="-60"/>
      <point x="113" y="-70" type="curve" smooth="yes"/>
      <point x="105" y="-76"/>
      <point x="87" y="-77"/>
      <point x="47" y="-77" type="curve" smooth="yes"/>
      <point x="35" y="-77"/>
      <point x="14" y="-76"/>
      <point x="-14" y="-70" type="curve"/>
      <point x="-22" y="-82"/>
      <point x="-25" y="-93"/>
      <point x="-25" y="-103" type="curve" smooth="yes"/>
      <point x="-25" y="-130"/>
      <point x="-10" y="-143"/>
      <point x="19" y="-143" type="curve" smooth="yes"/>
      <point x="98" y="-143"/>
      <point x="181" y="-88"/>
      <point x="260" y="10" type="curve" smooth="yes"/>
      <point x="340" y="112"/>
      <point x="360" y="171"/>
      <point x="360" y="254" type="curve" smooth="yes"/>
      <point x="360" y="295"/>
      <point x="342" y="315"/>
      <point x="315" y="315" type="curve" smooth="yes"/>
      <point x="279" y="315"/>
      <point x="257" y="295"/>
      <point x="257" y="264" type="curve" smooth="yes"/>
      <point x="257" y="235"/>
      <point x="286" y="206"/>
      <point x="286" y="160" type="curve" smooth="yes"/>
      <point x="286" y="143"/>
      <point x="259" y="82"/>
      <point x="238" y="60" type="curve"/>
      <point x="227" y="159"/>
      <point x="210" y="223"/>
      <point x="193" y="267" type="curve" smooth="yes"/>
      <point x="171" y="315"/>
      <point x="162" y="315"/>
    </contour>
  </outline>
</glyph>
<glyph name="z" format="1">
  <advance width="336"/>
  <unicode hex="007A"/>
  <outline>
    <contour>
      <point x="205" y="306" type="move" name="top"/>
    </contour>
    <contour>
      <point x="173" y="153" type="move" name="center"/>
    </contour>
    <contour>
      <point x="140" y="0" type="move" name="bottom"/>
    </contour>
    <contour>
      <point x="7" y="-5" type="curve"/>
      <point x="13" y="5"/>
      <point x="58" y="11"/>
      <point x="77" y="11" type="curve" smooth="yes"/>
      <point x="124" y="11"/>
      <point x="160" y="-5"/>
      <point x="222" y="-5" type="curve" smooth="yes"/>
      <point x="266" y="-5"/>
      <point x="310" y="24"/>
      <point x="333" y="98" type="curve"/>
      <point x="334" y="102"/>
      <point x="317" y="121"/>
      <point x="312" y="124" type="curve"/>
      <point x="289" y="89"/>
      <point x="275" y="76"/>
      <point x="248" y="76" type="curve" smooth="yes"/>
      <point x="216" y="76"/>
      <point x="187" y="92"/>
      <point x="161" y="92" type="curve" smooth="yes"/>
      <point x="141" y="92"/>
      <point x="118" y="84"/>
      <point x="93" y="70" type="curve"/>
      <point x="91" y="61" type="line"/>
      <point x="307" y="249" type="line" smooth="yes"/>
      <point x="311" y="250"/>
      <point x="329" y="266"/>
      <point x="354" y="294" type="curve" smooth="yes"/>
      <point x="354" y="302"/>
      <point x="345" y="309"/>
      <point x="330" y="316" type="curve"/>
      <point x="315" y="303"/>
      <point x="294" y="302"/>
      <point x="278" y="302" type="curve" smooth="yes"/>
      <point x="229" y="302"/>
      <point x="185" y="316"/>
      <point x="140" y="316" type="curve" smooth="yes"/>
      <point x="88" y="316"/>
      <point x="53" y="282"/>
      <point x="24" y="205" type="curve"/>
      <point x="31" y="197"/>
      <point x="44" y="189"/>
      <point x="49" y="184" type="curve"/>
      <point x="72" y="221"/>
      <point x="89" y="234"/>
      <point x="108" y="234" type="curve" smooth="yes"/>
      <point x="149" y="234"/>
      <point x="165" y="222"/>
      <point x="188" y="222" type="curve" smooth="yes"/>
      <point x="207" y="222"/>
      <point x="223" y="227"/>
      <point x="251" y="244" type="curve"/>
      <point x="248" y="255" type="line"/>
      <point x="20" y="52" type="line" smooth="yes"/>
      <point x="12" y="47"/>
      <point x="5" y="40"/>
      <point x="-21" y="15" type="curve" smooth="yes"/>
      <point x="-18" y="6"/>
      <point x="-3" y="-3"/>
    </contour>
  </outline>
</glyph>
<glyph name="braceleft" format="1">
  <advance width="246"/>
  <unicode hex="007B"/>
  <outline>
    <contour>
      <point x="183" y="149" type="curve" smooth="yes"/>
      <point x="183" y="185"/>
      <point x="150" y="212"/>
      <point x="89" y="215" type="curve"/>
      <point x="161" y="219"/>
      <point x="217" y="247"/>
      <point x="217" y="318" type="curve" smooth="yes"/>
      <point x="217" y="338"/>
      <point x="216" y="359"/>
      <point x="216" y="381" type="curve" smooth="yes"/>
      <point x="216" y="443"/>
      <point x="237" y="482"/>
      <point x="298" y="482" type="curve"/>
      <point x="303" y="485"/>
      <point x="305" y="495"/>
      <point x="307" y="513" type="curve"/>
      <point x="202" y="515"/>
      <point x="100" y="468"/>
      <point x="100" y="369" type="curve" smooth="yes"/>
      <point x="100" y="340"/>
      <point x="104" y="311"/>
      <point x="104" y="288" type="curve" smooth="yes"/>
      <point x="104" y="240"/>
      <point x="68" y="235"/>
      <point x="16" y="228" type="curve"/>
      <point x="13" y="224"/>
      <point x="9" y="210"/>
      <point x="9" y="197" type="curve"/>
      <point x="50" y="192"/>
      <point x="79" y="184"/>
      <point x="79" y="160" type="curve" smooth="yes"/>
      <point x="79" y="124"/>
      <point x="22" y="66"/>
      <point x="22" y="10" type="curve" smooth="yes"/>
      <point x="22" y="-57"/>
      <point x="83" y="-89"/>
      <point x="180" y="-88" type="curve"/>
      <point x="182" y="-84"/>
      <point x="185" y="-65"/>
      <point x="185" y="-57" type="curve"/>
      <point x="129" y="-56"/>
      <point x="131" y="-32"/>
      <point x="131" y="-14" type="curve" smooth="yes"/>
      <point x="131" y="41"/>
      <point x="183" y="110"/>
    </contour>
  </outline>
</glyph>
<glyph name="bar" format="1">
  <advance width="224"/>
  <unicode hex="007C"/>
  <outline>
    <contour>
      <point x="102" y="-78" type="line"/>
      <point x="228" y="526" type="line"/>
      <point x="152" y="526" type="line"/>
      <point x="26" y="-78" type="line"/>
    </contour>
  </outline>
</glyph>
<glyph name="brokenbar" format="1">
  <advance width="224"/>
  <unicode hex="00A6"/>
  <outline>
    <contour>
      <point x="155" y="180" type="line"/>
      <point x="79" y="180" type="line"/>
      <point x="26" y="-78" type="line"/>
      <point x="102" y="-78" type="line"/>
    </contour>
    <contour>
      <point x="98" y="268" type="line"/>
      <point x="174" y="268" type="line"/>
      <point x="228" y="526" type="line"/>
      <point x="152" y="526" type="line"/>
    </contour>
  </outline>
</glyph>
<glyph name="section" format="1">
  <advance width="367"/>
  <unicode hex="00A7"/>
  <outline>
    <contour>
      <point x="206" y="299" type="curve"/>
      <point x="172" y="307" type="line"/>
      <point x="81" y="270"/>
      <point x="48" y="240"/>
      <point x="48" y="189" type="curve" smooth="yes"/>
      <point x="48" y="102"/>
      <point x="174" y="104"/>
      <point x="174" y="50" type="curve" smooth="yes"/>
      <point x="174" y="32"/>
      <point x="162" y="17"/>
      <point x="147" y="17" type="curve" smooth="yes"/>
      <point x="114" y="17"/>
      <point x="138" y="72"/>
      <point x="82" y="72" type="curve" smooth="yes"/>
      <point x="53" y="72"/>
      <point x="29" y="51"/>
      <point x="29" y="24" type="curve" smooth="yes"/>
      <point x="29" y="-8"/>
      <point x="65" y="-28"/>
      <point x="124" y="-28" type="curve" smooth="yes"/>
      <point x="203" y="-28"/>
      <point x="279" y="26"/>
      <point x="279" y="81" type="curve" smooth="yes"/>
      <point x="279" y="158"/>
      <point x="141" y="173"/>
      <point x="141" y="227" type="curve" smooth="yes"/>
      <point x="141" y="247"/>
      <point x="162" y="271"/>
    </contour>
    <contour>
      <point x="187" y="131" type="curve"/>
      <point x="221" y="123" type="line"/>
      <point x="308" y="158"/>
      <point x="345" y="190"/>
      <point x="345" y="237" type="curve" smooth="yes"/>
      <point x="345" y="316"/>
      <point x="219" y="315"/>
      <point x="219" y="378" type="curve" smooth="yes"/>
      <point x="219" y="398"/>
      <point x="231" y="413"/>
      <point x="246" y="413" type="curve" smooth="yes"/>
      <point x="279" y="413"/>
      <point x="255" y="358"/>
      <point x="311" y="358" type="curve" smooth="yes"/>
      <point x="340" y="358"/>
      <point x="363" y="379"/>
      <point x="363" y="406" type="curve" smooth="yes"/>
      <point x="363" y="438"/>
      <point x="328" y="458"/>
      <point x="269" y="458" type="curve" smooth="yes"/>
      <point x="189" y="458"/>
      <point x="113" y="402"/>
      <point x="113" y="344" type="curve" smooth="yes"/>
      <point x="113" y="261"/>
      <point x="251" y="246"/>
      <point x="251" y="201" type="curve" smooth="yes"/>
      <point x="251" y="183"/>
      <point x="231" y="159"/>
    </contour>
  </outline>
</glyph>
<glyph name="copyright" format="1">
  <advance width="574"/>
  <unicode hex="00A9"/>
  <outline>
    <contour>
      <point x="303" y="-5" type="curve" smooth="yes"/>
      <point x="441" y="-5"/>
      <point x="554" y="92"/>
      <point x="554" y="226" type="curve" smooth="yes"/>
      <point x="554" y="361"/>
      <point x="441" y="458"/>
      <point x="303" y="458" type="curve" smooth="yes"/>
      <point x="165" y="458"/>
      <point x="51" y="361"/>
      <point x="51" y="226" type="curve" smooth="yes"/>
      <point x="51" y="92"/>
      <point x="165" y="-5"/>
    </contour>
    <contour>
      <point x="315" y="82" type="curve" smooth="yes"/>
      <point x="342" y="82"/>
      <point x="359" y="86"/>
      <point x="398" y="98" type="curve"/>
      <point x="401" y="100"/>
      <point x="416" y="143"/>
      <point x="416" y="161" type="curve"/>
      <point x="418" y="165"/>
      <point x="409" y="166"/>
      <point x="392" y="166" type="curve"/>
      <point x="388" y="155"/>
      <point x="384" y="144"/>
      <point x="377" y="134" type="curve" smooth="yes"/>
      <point x="365" y="119"/>
      <point x="346" y="108"/>
      <point x="321" y="108" type="curve" smooth="yes"/>
      <point x="274" y="108"/>
      <point x="241" y="155"/>
      <point x="241" y="234" type="curve" smooth="yes"/>
      <point x="241" y="311"/>
      <point x="263" y="344"/>
      <point x="316" y="344" type="curve" smooth="yes"/>
      <point x="350" y="344"/>
      <point x="385" y="322"/>
      <point x="395" y="289" type="curve"/>
      <point x="408" y="287"/>
      <point x="413" y="287"/>
      <point x="420" y="289" type="curve"/>
      <point x="416" y="303"/>
      <point x="410" y="349"/>
      <point x="401" y="358" type="curve"/>
      <point x="374" y="367"/>
      <point x="337" y="373"/>
      <point x="314" y="373" type="curve" smooth="yes"/>
      <point x="224" y="373"/>
      <point x="145" y="311"/>
      <point x="145" y="224" type="curve" smooth="yes"/>
      <point x="145" y="136"/>
      <point x="215" y="82"/>
    </contour>
    <contour>
      <point x="303" y="20" type="curve" smooth="yes"/>
      <point x="180" y="20"/>
      <point x="80" y="106"/>
      <point x="80" y="226" type="curve" smooth="yes"/>
      <point x="80" y="347"/>
      <point x="180" y="433"/>
      <point x="303" y="433" type="curve" smooth="yes"/>
      <point x="426" y="433"/>
      <point x="526" y="347"/>
      <point x="526" y="226" type="curve" smooth="yes"/>
      <point x="526" y="106"/>
      <point x="426" y="20"/>
    </contour>
  </outline>
</glyph>
<glyph name="logicalnot" format="1">
  <advance width="423"/>
  <unicode hex="00AC"/>
  <outline>
    <contour>
      <point x="66" y="289" type="line"/>
      <point x="54" y="229" type="line"/>
      <point x="335" y="229" type="line"/>
      <point x="312" y="116" type="line"/>
      <point x="379" y="116" type="line"/>
      <point x="414" y="289" type="line"/>
    </contour>
  </outline>
</glyph>
<glyph name="registered" format="1">
  <advance width="574"/>
  <unicode hex="00AE"/>
  <outline>
    <contour>
      <point x="303" y="-5" type="curve" smooth="yes"/>
      <point x="441" y="-5"/>
      <point x="554" y="92"/>
      <point x="554" y="226" type="curve" smooth="yes"/>
      <point x="554" y="361"/>
      <point x="441" y="458"/>
      <point x="303" y="458" type="curve" smooth="yes"/>
      <point x="165" y="458"/>
      <point x="51" y="361"/>
      <point x="51" y="226" type="curve" smooth="yes"/>
      <point x="51" y="92"/>
      <point x="165" y="-5"/>
    </contour>
    <contour>
      <point x="303" y="20" type="curve" smooth="yes"/>
      <point x="180" y="20"/>
      <point x="80" y="106"/>
      <point x="80" y="226" type="curve" smooth="yes"/>
      <point x="80" y="347"/>
      <point x="180" y="433"/>
      <point x="303" y="433" type="curve" smooth="yes"/>
      <point x="426" y="433"/>
      <point x="526" y="347"/>
      <point x="526" y="226" type="curve" smooth="yes"/>
      <point x="526" y="106"/>
      <point x="426" y="20"/>
    </contour>
    <contour>
      <point x="449" y="83" type="curve" smooth="yes"/>
      <point x="457" y="83"/>
      <point x="464" y="84"/>
      <point x="469" y="84" type="curve"/>
      <point x="471" y="88"/>
      <point x="471" y="91"/>
      <point x="471" y="95" type="curve" smooth="yes"/>
      <point x="471" y="100"/>
      <point x="471" y="102"/>
      <point x="469" y="104" type="curve"/>
      <point x="454" y="104"/>
      <point x="434" y="136"/>
      <point x="412" y="163" type="curve" smooth="yes"/>
      <point x="391" y="191"/>
      <point x="375" y="210"/>
      <point x="360" y="223" type="curve"/>
      <point x="362" y="213" type="line"/>
      <point x="421" y="235"/>
      <point x="433" y="259"/>
      <point x="433" y="304" type="curve" smooth="yes"/>
      <point x="433" y="341"/>
      <point x="399" y="372"/>
      <point x="335" y="372" type="curve" smooth="yes"/>
      <point x="307" y="372"/>
      <point x="290" y="373"/>
      <point x="254" y="373" type="curve" smooth="yes"/>
      <point x="238" y="373"/>
      <point x="212" y="374"/>
      <point x="176" y="376" type="curve"/>
      <point x="175" y="375"/>
      <point x="175" y="372"/>
      <point x="175" y="367" type="curve" smooth="yes"/>
      <point x="175" y="361"/>
      <point x="175" y="358"/>
      <point x="176" y="358" type="curve" smooth="yes"/>
      <point x="183" y="358"/>
      <point x="205" y="347"/>
      <point x="206" y="344" type="curve"/>
      <point x="209" y="337"/>
      <point x="209" y="327"/>
      <point x="209" y="312" type="curve" smooth="yes"/>
      <point x="209" y="149" type="line" smooth="yes"/>
      <point x="209" y="135"/>
      <point x="209" y="122"/>
      <point x="206" y="113" type="curve"/>
      <point x="206" y="108"/>
      <point x="184" y="103"/>
      <point x="177" y="103" type="curve" smooth="yes"/>
      <point x="175" y="103"/>
      <point x="175" y="99"/>
      <point x="175" y="92" type="curve" smooth="yes"/>
      <point x="175" y="88"/>
      <point x="175" y="87"/>
      <point x="177" y="85" type="curve"/>
      <point x="204" y="86"/>
      <point x="230" y="88"/>
      <point x="255" y="88" type="curve" smooth="yes"/>
      <point x="266" y="88"/>
      <point x="293" y="87"/>
      <point x="335" y="85" type="curve"/>
      <point x="335" y="87"/>
      <point x="336" y="90"/>
      <point x="336" y="94" type="curve" smooth="yes"/>
      <point x="336" y="100"/>
      <point x="335" y="104"/>
      <point x="335" y="104" type="curve" smooth="yes"/>
      <point x="324" y="104"/>
      <point x="299" y="107"/>
      <point x="298" y="114" type="curve"/>
      <point x="296" y="126"/>
      <point x="294" y="137"/>
      <point x="294" y="147" type="curve" smooth="yes"/>
      <point x="294" y="209" type="line"/>
      <point x="294" y="210"/>
      <point x="293" y="210"/>
      <point x="291" y="210" type="curve" smooth="yes"/>
      <point x="284" y="210"/>
      <point x="285" y="207"/>
      <point x="282" y="212" type="curve" smooth="yes"/>
      <point x="334" y="143" type="line" smooth="yes"/>
      <point x="363" y="102"/>
      <point x="387" y="83"/>
    </contour>
    <contour>
      <point x="303" y="237" type="line"/>
      <point x="299" y="237"/>
      <point x="296" y="238"/>
      <point x="294" y="238" type="curve"/>
      <point x="294" y="289" type="line" smooth="yes"/>
      <point x="294" y="319"/>
      <point x="296" y="339"/>
      <point x="298" y="341" type="curve"/>
      <point x="298" y="343"/>
      <point x="302" y="345"/>
      <point x="309" y="345" type="curve" smooth="yes"/>
      <point x="327" y="345"/>
      <point x="338" y="326"/>
      <point x="338" y="291" type="curve" smooth="yes"/>
      <point x="338" y="258"/>
      <point x="328" y="237"/>
      <point x="299" y="237" type="curve" smooth="yes"/>
    </contour>
  </outline>
</glyph>
<glyph name="degree" format="1">
  <advance width="309"/>
  <unicode hex="00B0"/>
  <outline>
    <contour>
      <point x="197" y="255" type="curve" smooth="yes"/>
      <point x="260" y="255"/>
      <point x="310" y="297"/>
      <point x="310" y="356" type="curve" smooth="yes"/>
      <point x="310" y="415"/>
      <point x="260" y="457"/>
      <point x="197" y="457" type="curve" smooth="yes"/>
      <point x="133" y="457"/>
      <point x="83" y="415"/>
      <point x="83" y="356" type="curve" smooth="yes"/>
      <point x="83" y="297"/>
      <point x="133" y="255"/>
    </contour>
    <contour>
      <point x="197" y="304" type="curve" smooth="yes"/>
      <point x="164" y="304"/>
      <point x="142" y="324"/>
      <point x="142" y="356" type="curve" smooth="yes"/>
      <point x="142" y="387"/>
      <point x="164" y="408"/>
      <point x="197" y="408" type="curve" smooth="yes"/>
      <point x="228" y="408"/>
      <point x="253" y="387"/>
      <point x="253" y="356" type="curve" smooth="yes"/>
      <point x="253" y="324"/>
      <point x="228" y="304"/>
    </contour>
  </outline>
</glyph>
<glyph name="plusminus" format="1">
  <advance width="423"/>
  <unicode hex="00B1"/>
  <outline>
    <contour>
      <point x="51" y="213" type="line"/>
      <point x="399" y="213" type="line"/>
      <point x="411" y="273" type="line"/>
      <point x="62" y="273" type="line"/>
    </contour>
    <contour>
      <point x="230" y="82" type="line"/>
      <point x="299" y="405" type="line"/>
      <point x="232" y="405" type="line"/>
      <point x="163" y="82" type="line"/>
    </contour>
    <contour>
      <point x="6" y="0" type="line"/>
      <point x="355" y="0" type="line"/>
      <point x="366" y="60" type="line"/>
      <point x="18" y="60" type="line"/>
    </contour>
  </outline>
</glyph>
<glyph name="periodcentered" format="1">
  <advance width="151"/>
  <unicode hex="00B7"/>
  <outline>
    <contour>
      <point x="81" y="101" type="curve" smooth="yes"/>
      <point x="114" y="101"/>
      <point x="140" y="130"/>
      <point x="140" y="163" type="curve" smooth="yes"/>
      <point x="140" y="194"/>
      <point x="112" y="220"/>
      <point x="78" y="220" type="curve" smooth="yes"/>
      <point x="33" y="220"/>
      <point x="17" y="190"/>
      <point x="17" y="162" type="curve" smooth="yes"/>
      <point x="17" y="132"/>
      <point x="35" y="101"/>
    </contour>
  </outline>
</glyph>
<glyph name="questiondown" format="1">
  <advance width="243"/>
  <unicode hex="00BF"/>
  <outline>
    <contour>
      <point x="101" y="142" type="curve"/>
      <point x="117" y="134"/>
      <point x="142" y="131"/>
      <point x="142" y="114" type="curve" smooth="yes"/>
      <point x="142" y="104"/>
      <point x="133" y="100"/>
      <point x="112" y="92" type="curve" smooth="yes"/>
      <point x="51" y="72" type="line" smooth="yes"/>
      <point x="-21" y="42"/>
      <point x="-32" y="0"/>
      <point x="-32" y="-40" type="curve" smooth="yes"/>
      <point x="-32" y="-104"/>
      <point x="27" y="-148"/>
      <point x="100" y="-148" type="curve" smooth="yes"/>
      <point x="142" y="-148"/>
      <point x="165" y="-130"/>
      <point x="165" y="-100" type="curve" smooth="yes"/>
      <point x="165" y="-72"/>
      <point x="145" y="-53"/>
      <point x="120" y="-53" type="curve" smooth="yes"/>
      <point x="107" y="-53"/>
      <point x="79" y="-83"/>
      <point x="63" y="-83" type="curve" smooth="yes"/>
      <point x="45" y="-83"/>
      <point x="37" y="-72"/>
      <point x="37" y="-51" type="curve" smooth="yes"/>
      <point x="37" y="-29"/>
      <point x="50" y="-15"/>
      <point x="78" y="-7" type="curve" smooth="yes"/>
      <point x="144" y="6" type="line" smooth="yes"/>
      <point x="194" y="23"/>
      <point x="207" y="51"/>
      <point x="207" y="80" type="curve" smooth="yes"/>
      <point x="207" y="140"/>
      <point x="140" y="162"/>
      <point x="112" y="162" type="curve"/>
      <point x="105" y="159"/>
      <point x="101" y="149"/>
    </contour>
    <contour>
      <point x="199" y="309" type="curve" smooth="yes"/>
      <point x="162" y="309"/>
      <point x="129" y="273"/>
      <point x="129" y="236" type="curve" smooth="yes"/>
      <point x="129" y="210"/>
      <point x="149" y="191"/>
      <point x="175" y="191" type="curve" smooth="yes"/>
      <point x="216" y="191"/>
      <point x="248" y="223"/>
      <point x="248" y="263" type="curve" smooth="yes"/>
      <point x="248" y="292"/>
      <point x="228" y="309"/>
    </contour>
  </outline>
</glyph>
<glyph name="AE" format="1">
  <advance width="690"/>
  <unicode hex="00C6"/>
  <outline>
    <contour>
      <point x="439" y="453" type="move" name="top"/>
    </contour>
    <contour>
      <point x="344" y="0" type="move" name="bottom"/>
    </contour>
    <contour>
      <point x="313" y="129" type="curve"/>
      <point x="317" y="179" type="line"/>
      <point x="309" y="176"/>
      <point x="291" y="176"/>
      <point x="277" y="176" type="curve" smooth="yes"/>
      <point x="249" y="176"/>
      <point x="225" y="177"/>
      <point x="226" y="180" type="curve"/>
      <point x="184" y="129" type="line"/>
      <point x="179" y="130"/>
      <point x="207" y="129"/>
      <point x="253" y="129" type="curve" smooth="yes"/>
      <point x="275" y="129"/>
      <point x="302" y="129"/>
    </contour>
    <contour>
      <point x="348" y="332" type="line"/>
      <point x="298" y="93" type="line"/>
      <point x="293" y="68"/>
      <point x="288" y="51"/>
      <point x="284" y="42" type="curve"/>
      <point x="280" y="36"/>
      <point x="249" y="26"/>
      <point x="238" y="26" type="curve" smooth="yes"/>
      <point x="236" y="26"/>
      <point x="234" y="20"/>
      <point x="232" y="9" type="curve" smooth="yes"/>
      <point x="231" y="2"/>
      <point x="231" y="-1"/>
      <point x="232" y="-3" type="curve"/>
      <point x="348" y="1" type="line"/>
      <point x="373" y="1"/>
      <point x="398" y="1"/>
      <point x="458" y="0" type="curve" smooth="yes"/>
      <point x="519" y="0"/>
      <point x="562" y="0"/>
      <point x="590" y="0" type="curve"/>
      <point x="595" y="11"/>
      <point x="602" y="28"/>
      <point x="657" y="121" type="curve"/>
      <point x="655" y="123"/>
      <point x="646" y="125"/>
      <point x="632" y="125" type="curve" smooth="yes"/>
      <point x="626" y="125"/>
      <point x="623" y="123"/>
      <point x="622" y="121" type="curve"/>
      <point x="604" y="97"/>
      <point x="572" y="72"/>
      <point x="551" y="64" type="curve" smooth="yes"/>
      <point x="519" y="50"/>
      <point x="490" y="42"/>
      <point x="482" y="42" type="curve" smooth="yes"/>
      <point x="476" y="42" type="line" smooth="yes"/>
      <point x="445" y="42"/>
      <point x="429" y="46"/>
      <point x="428" y="55" type="curve"/>
      <point x="428" y="65"/>
      <point x="428" y="78"/>
      <point x="431" y="95" type="curve" smooth="yes"/>
      <point x="454" y="201" type="line" smooth="yes"/>
      <point x="454" y="205"/>
      <point x="473" y="207"/>
      <point x="509" y="207" type="curve" smooth="yes"/>
      <point x="536" y="207"/>
      <point x="543" y="203"/>
      <point x="549" y="190" type="curve" smooth="yes"/>
      <point x="548" y="187"/>
      <point x="549" y="166"/>
      <point x="550" y="164" type="curve"/>
      <point x="551" y="160"/>
      <point x="554" y="158"/>
      <point x="561" y="158" type="curve" smooth="yes"/>
      <point x="571" y="158"/>
      <point x="577" y="159"/>
      <point x="579" y="161" type="curve"/>
      <point x="607" y="291" type="line"/>
      <point x="605" y="293"/>
      <point x="598" y="294"/>
      <point x="589" y="294" type="curve" smooth="yes"/>
      <point x="582" y="294"/>
      <point x="578" y="293"/>
      <point x="575" y="291" type="curve"/>
      <point x="578" y="298"/>
      <point x="571" y="256"/>
      <point x="567" y="252" type="curve" smooth="yes"/>
      <point x="569" y="251"/>
      <point x="548" y="250"/>
      <point x="502" y="250" type="curve" smooth="yes"/>
      <point x="497" y="250" type="line" smooth="yes"/>
      <point x="475" y="250"/>
      <point x="464" y="251"/>
      <point x="465" y="254" type="curve" smooth="yes"/>
      <point x="487" y="357" type="line" smooth="yes"/>
      <point x="492" y="380"/>
      <point x="497" y="397"/>
      <point x="501" y="408" type="curve"/>
      <point x="504" y="414"/>
      <point x="516" y="417"/>
      <point x="539" y="417" type="curve" smooth="yes"/>
      <point x="544" y="417" type="line" smooth="yes"/>
      <point x="572" y="417"/>
      <point x="624" y="376"/>
      <point x="642" y="351" type="curve"/>
      <point x="643" y="348"/>
      <point x="646" y="346"/>
      <point x="650" y="346" type="curve" smooth="yes"/>
      <point x="661" y="346"/>
      <point x="669" y="348"/>
      <point x="671" y="350" type="curve"/>
      <point x="671" y="410"/>
      <point x="671" y="466"/>
      <point x="672" y="457" type="curve"/>
      <point x="645" y="457"/>
      <point x="603" y="456"/>
      <point x="548" y="454" type="curve" smooth="yes"/>
      <point x="493" y="452"/>
      <point x="468" y="451"/>
      <point x="445" y="451" type="curve" smooth="yes"/>
      <point x="412" y="451"/>
      <point x="371" y="454"/>
      <point x="331" y="460" type="curve"/>
      <point x="330" y="459"/>
      <point x="328" y="453"/>
      <point x="326" y="444" type="curve" smooth="yes"/>
      <point x="324" y="435"/>
      <point x="324" y="430"/>
      <point x="326" y="430" type="curve" smooth="yes"/>
      <point x="337" y="430"/>
      <point x="362" y="419"/>
      <point x="360" y="409" type="curve" smooth="yes"/>
      <point x="359" y="405"/>
      <point x="358" y="403"/>
      <point x="357" y="402" type="curve" smooth="yes"/>
      <point x="80" y="89" type="line" smooth="yes"/>
      <point x="75" y="85"/>
      <point x="68" y="72"/>
      <point x="46" y="52" type="curve" smooth="yes"/>
      <point x="38" y="46"/>
      <point x="-27" y="26"/>
      <point x="-33" y="26" type="curve" smooth="yes"/>
      <point x="-32" y="26"/>
      <point x="-38" y="13"/>
      <point x="-40" y="7" type="curve" smooth="yes"/>
      <point x="-41" y="0"/>
      <point x="-41" y="-4"/>
      <point x="-40" y="-3" type="curve"/>
      <point x="-26" y="-1"/>
      <point x="49" y="5"/>
      <point x="67" y="5" type="curve" smooth="yes"/>
      <point x="83" y="5"/>
      <point x="124" y="0"/>
      <point x="156" y="-3" type="curve"/>
      <point x="161" y="1"/>
      <point x="167" y="19"/>
      <point x="166" y="26" type="curve"/>
      <point x="150" y="26"/>
      <point x="134" y="27"/>
      <point x="120" y="32" type="curve" smooth="yes"/>
      <point x="113" y="35"/>
      <point x="111" y="40"/>
      <point x="113" y="46" type="curve" smooth="yes"/>
      <point x="114" y="55"/>
      <point x="133" y="74"/>
      <point x="147" y="89" type="curve" smooth="yes"/>
      <point x="354" y="328" type="line"/>
    </contour>
  </outline>
</glyph>
<glyph name="multiply" format="1">
  <advance width="358"/>
  <unicode hex="00D7"/>
  <outline>
    <contour>
      <point x="115" y="300" type="line"/>
      <point x="60" y="257" type="line"/>
      <point x="251" y="38" type="line"/>
      <point x="306" y="81" type="line"/>
    </contour>
    <contour>
      <point x="305" y="300" type="line"/>
      <point x="23" y="81" type="line"/>
      <point x="61" y="38" type="line"/>
      <point x="343" y="257" type="line"/>
    </contour>
  </outline>
</glyph>
<glyph name="Thorn" format="1">
  <advance width="432"/>
  <unicode hex="00DE"/>
  <outline>
    <contour>
      <point x="-9" y="-3" type="curve"/>
      <point x="32" y="-2"/>
      <point x="72" y="1"/>
      <point x="103" y="1" type="curve" smooth="yes"/>
      <point x="120" y="1"/>
      <point x="162" y="0"/>
      <point x="227" y="-3" type="curve"/>
      <point x="229" y="0"/>
      <point x="230" y="4"/>
      <point x="232" y="11" type="curve" smooth="yes"/>
      <point x="234" y="21"/>
      <point x="234" y="26"/>
      <point x="231" y="26" type="curve" smooth="yes"/>
      <point x="206" y="26"/>
      <point x="177" y="34"/>
      <point x="178" y="42" type="curve" smooth="yes"/>
      <point x="178" y="60"/>
      <point x="181" y="78"/>
      <point x="184" y="97" type="curve" smooth="yes"/>
      <point x="217" y="251" type="line" smooth="yes"/>
      <point x="226" y="297"/>
      <point x="235" y="313"/>
      <point x="243" y="314" type="curve"/>
      <point x="242" y="317"/>
      <point x="253" y="319"/>
      <point x="252" y="319" type="curve" smooth="yes"/>
      <point x="283" y="319"/>
      <point x="299" y="304"/>
      <point x="299" y="270" type="curve" smooth="yes"/>
      <point x="299" y="214"/>
      <point x="283" y="141"/>
      <point x="232" y="141" type="curve" smooth="yes"/>
      <point x="219" y="141"/>
      <point x="212" y="144"/>
      <point x="210" y="146" type="curve"/>
      <point x="208" y="144"/>
      <point x="206" y="138"/>
      <point x="205" y="135" type="curve" smooth="yes"/>
      <point x="204" y="127"/>
      <point x="205" y="122"/>
      <point x="207" y="119" type="curve" smooth="yes"/>
      <point x="217" y="112"/>
      <point x="238" y="102"/>
      <point x="266" y="102" type="curve" smooth="yes"/>
      <point x="349" y="102"/>
      <point x="430" y="160"/>
      <point x="430" y="257" type="curve" smooth="yes"/>
      <point x="430" y="333"/>
      <point x="355" y="365"/>
      <point x="283" y="365" type="curve" smooth="yes"/>
      <point x="266" y="365"/>
      <point x="239" y="362"/>
      <point x="208" y="358" type="curve"/>
      <point x="231" y="326" type="line"/>
      <point x="240" y="371" type="line" smooth="yes"/>
      <point x="242" y="376"/>
      <point x="250" y="401"/>
      <point x="253" y="409" type="curve"/>
      <point x="256" y="415"/>
      <point x="298" y="426"/>
      <point x="306" y="426" type="curve" smooth="yes"/>
      <point x="308" y="426"/>
      <point x="310" y="431"/>
      <point x="311" y="442" type="curve" smooth="yes"/>
      <point x="312" y="446"/>
      <point x="313" y="450"/>
      <point x="312" y="455" type="curve"/>
      <point x="241" y="452"/>
      <point x="196" y="451"/>
      <point x="196" y="451" type="curve" smooth="yes"/>
      <point x="161" y="451"/>
      <point x="117" y="453"/>
      <point x="87" y="455" type="curve"/>
      <point x="88" y="456"/>
      <point x="85" y="450"/>
      <point x="83" y="440" type="curve" smooth="yes"/>
      <point x="81" y="431"/>
      <point x="81" y="426"/>
      <point x="84" y="426" type="curve" smooth="yes"/>
      <point x="94" y="426"/>
      <point x="118" y="415"/>
      <point x="123" y="407" type="curve"/>
      <point x="126" y="405"/>
      <point x="125" y="389"/>
      <point x="119" y="359" type="curve" smooth="yes"/>
      <point x="64" y="98" type="line" smooth="yes"/>
      <point x="60" y="74"/>
      <point x="54" y="54"/>
      <point x="49" y="41" type="curve"/>
      <point x="45" y="35"/>
      <point x="10" y="25"/>
      <point x="-3" y="25" type="curve" smooth="yes"/>
      <point x="-6" y="25"/>
      <point x="-9" y="19"/>
      <point x="-9" y="8" type="curve" smooth="yes"/>
      <point x="-10" y="2"/>
      <point x="-11" y="-1"/>
    </contour>
  </outline>
</glyph>
<glyph name="germandbls" format="1">
  <advance width="422"/>
  <unicode hex="00DF"/>
  <outline>
    <contour>
      <point x="-61" y="-144" type="curve" smooth="yes"/>
      <point x="37" y="-144"/>
      <point x="119" y="-68"/>
      <point x="144" y="44" type="curve" smooth="yes"/>
      <point x="205" y="318" type="line" smooth="yes"/>
      <point x="221" y="384"/>
      <point x="249" y="418"/>
      <point x="295" y="418" type="curve" smooth="yes"/>
      <point x="322" y="418"/>
      <point x="339" y="403"/>
      <point x="339" y="376" type="curve" smooth="yes"/>
      <point x="339" y="354"/>
      <point x="322" y="332"/>
      <point x="303" y="322" type="curve" smooth="yes"/>
      <point x="233" y="285"/>
      <point x="212" y="262"/>
      <point x="212" y="214" type="curve" smooth="yes"/>
      <point x="212" y="157"/>
      <point x="307" y="121"/>
      <point x="307" y="63" type="curve" smooth="yes"/>
      <point x="307" y="45"/>
      <point x="303" y="36"/>
      <point x="296" y="36" type="curve" smooth="yes"/>
      <point x="260" y="36"/>
      <point x="245" y="84"/>
      <point x="208" y="84" type="curve" smooth="yes"/>
      <point x="189" y="84"/>
      <point x="177" y="68"/>
      <point x="177" y="43" type="curve" smooth="yes"/>
      <point x="177" y="12"/>
      <point x="220" y="-9"/>
      <point x="281" y="-9" type="curve" smooth="yes"/>
      <point x="339" y="-9"/>
      <point x="408" y="39"/>
      <point x="408" y="101" type="curve" smooth="yes"/>
      <point x="408" y="172"/>
      <point x="312" y="202"/>
      <point x="312" y="255" type="curve" smooth="yes"/>
      <point x="312" y="270"/>
      <point x="322" y="282"/>
      <point x="330" y="286" type="curve" smooth="yes"/>
      <point x="402" y="325"/>
      <point x="426" y="343"/>
      <point x="426" y="379" type="curve" smooth="yes"/>
      <point x="426" y="430"/>
      <point x="377" y="463"/>
      <point x="308" y="463" type="curve" smooth="yes"/>
      <point x="202" y="463"/>
      <point x="115" y="403"/>
      <point x="95" y="312" type="curve" smooth="yes"/>
      <point x="20" y="-18" type="line" smooth="yes"/>
      <point x="2" y="-89"/>
      <point x="-7" y="-99"/>
      <point x="-39" y="-99" type="curve" smooth="yes"/>
      <point x="-69" y="-99"/>
      <point x="-60" y="-46"/>
      <point x="-102" y="-46" type="curve" smooth="yes"/>
      <point x="-128" y="-46"/>
      <point x="-144" y="-61"/>
      <point x="-144" y="-87" type="curve" smooth="yes"/>
      <point x="-145" y="-120"/>
      <point x="-109" y="-144"/>
    </contour>
    <contour>
      <point x="26" y="248" type="curve" smooth="yes"/>
      <point x="160" y="248" type="line"/>
      <point x="160" y="303" type="line"/>
      <point x="60" y="303" type="line" smooth="yes"/>
      <point x="48" y="303"/>
      <point x="25" y="270"/>
      <point x="25" y="252" type="curve" smooth="yes"/>
      <point x="25" y="250"/>
      <point x="25" y="248"/>
    </contour>
  </outline>
</glyph>
<glyph name="ae" format="1">
  <advance width="480"/>
  <unicode hex="00E6"/>
  <outline>
    <contour>
      <point x="273" y="306" type="move" name="top"/>
    </contour>
    <contour>
      <point x="208" y="0" type="move" name="bottom"/>
    </contour>
    <contour>
      <point x="71" y="-5" type="curve" smooth="yes"/>
      <point x="134" y="-5"/>
      <point x="187" y="30"/>
      <point x="227" y="44" type="curve"/>
      <point x="253" y="216" type="line"/>
      <point x="312" y="216" type="line"/>
      <point x="329" y="288"/>
      <point x="306" y="312"/>
      <point x="232" y="312" type="curve" smooth="yes"/>
      <point x="158" y="312"/>
      <point x="23" y="246"/>
      <point x="29" y="206" type="curve" smooth="yes"/>
      <point x="31" y="194"/>
      <point x="41" y="183"/>
      <point x="76" y="183" type="curve" smooth="yes"/>
      <point x="108" y="183"/>
      <point x="130" y="199"/>
      <point x="139" y="221" type="curve" smooth="yes"/>
      <point x="155" y="258"/>
      <point x="164" y="267"/>
      <point x="180" y="267" type="curve" smooth="yes"/>
      <point x="195" y="267"/>
      <point x="199" y="253"/>
      <point x="197" y="231" type="curve" smooth="yes"/>
      <point x="189" y="192" type="line" smooth="yes"/>
      <point x="187" y="188"/>
      <point x="185" y="185"/>
      <point x="182" y="184" type="curve" smooth="yes"/>
      <point x="58" y="149" type="line" smooth="yes"/>
      <point x="33" y="143"/>
      <point x="-10" y="108"/>
      <point x="-10" y="63" type="curve" smooth="yes"/>
      <point x="-10" y="20"/>
      <point x="33" y="-5"/>
    </contour>
    <contour>
      <point x="139" y="49" type="curve" smooth="yes"/>
      <point x="116" y="49"/>
      <point x="100" y="62"/>
      <point x="100" y="88" type="curve" smooth="yes"/>
      <point x="100" y="108"/>
      <point x="109" y="123"/>
      <point x="129" y="129" type="curve" smooth="yes"/>
      <point x="179" y="145" type="line"/>
      <point x="166" y="83" type="line" smooth="yes"/>
      <point x="159" y="52"/>
      <point x="149" y="49"/>
    </contour>
    <contour>
      <point x="306" y="-7" type="curve" smooth="yes"/>
      <point x="353" y="-7"/>
      <point x="407" y="19"/>
      <point x="454" y="79" type="curve"/>
      <point x="454" y="89"/>
      <point x="442" y="112"/>
      <point x="437" y="112" type="curve"/>
      <point x="406" y="80"/>
      <point x="375" y="65"/>
      <point x="348" y="65" type="curve" smooth="yes"/>
      <point x="323" y="65"/>
      <point x="301" y="83"/>
      <point x="301" y="98" type="curve" smooth="yes"/>
      <point x="301" y="176"/>
      <point x="340" y="271"/>
      <point x="366" y="271" type="curve" smooth="yes"/>
      <point x="377" y="271"/>
      <point x="383" y="258"/>
      <point x="383" y="241" type="curve" smooth="yes"/>
      <point x="383" y="205"/>
      <point x="361" y="171"/>
      <point x="294" y="152" type="curve"/>
      <point x="290" y="109" type="line"/>
      <point x="423" y="143"/>
      <point x="487" y="199"/>
      <point x="487" y="243" type="curve" smooth="yes"/>
      <point x="487" y="290"/>
      <point x="447" y="313"/>
      <point x="388" y="313" type="curve" smooth="yes"/>
      <point x="284" y="313"/>
      <point x="180" y="229"/>
      <point x="180" y="104" type="curve" smooth="yes"/>
      <point x="180" y="43"/>
      <point x="233" y="-7"/>
    </contour>
  </outline>
</glyph>
<glyph name="eth" format="1">
  <advance width="313"/>
  <unicode hex="00F0"/>
  <outline>
    <contour>
      <point x="113" y="-7" type="curve" smooth="yes"/>
      <point x="234" y="-7"/>
      <point x="314" y="100"/>
      <point x="314" y="242" type="curve" smooth="yes"/>
      <point x="314" y="322"/>
      <point x="264" y="460"/>
      <point x="114" y="481" type="curve"/>
      <point x="101" y="478"/>
      <point x="92" y="463"/>
      <point x="93" y="450" type="curve"/>
      <point x="157" y="430"/>
      <point x="206" y="350"/>
      <point x="205" y="316" type="curve"/>
      <point x="197" y="316"/>
      <point x="191" y="313"/>
      <point x="186" y="313" type="curve" smooth="yes"/>
      <point x="85" y="313"/>
      <point x="4" y="206"/>
      <point x="4" y="104" type="curve" smooth="yes"/>
      <point x="4" y="52"/>
      <point x="41" y="-7"/>
    </contour>
    <contour>
      <point x="139" y="35" type="curve" smooth="yes"/>
      <point x="129" y="35"/>
      <point x="121" y="54"/>
      <point x="120" y="87" type="curve" smooth="yes"/>
      <point x="118" y="182"/>
      <point x="154" y="271"/>
      <point x="174" y="271" type="curve" smooth="yes"/>
      <point x="184" y="271"/>
      <point x="196" y="248"/>
      <point x="199" y="219" type="curve" smooth="yes"/>
      <point x="202" y="164"/>
      <point x="168" y="35"/>
    </contour>
    <contour>
      <point x="100" y="352" type="line"/>
      <point x="295" y="454" type="line"/>
      <point x="275" y="485" type="line"/>
      <point x="80" y="383" type="line"/>
    </contour>
  </outline>
</glyph>
<glyph name="divide" format="1">
  <advance width="423"/>
  <unicode hex="00F7"/>
  <outline>
    <contour>
      <point x="34" y="139" type="line"/>
      <point x="383" y="139" type="line"/>
      <point x="396" y="199" type="line"/>
      <point x="48" y="199" type="line"/>
    </contour>
    <contour>
      <point x="195" y="3" type="curve" smooth="yes"/>
      <point x="229" y="3"/>
      <point x="254" y="32"/>
      <point x="254" y="65" type="curve" smooth="yes"/>
      <point x="254" y="96"/>
      <point x="226" y="122"/>
      <point x="193" y="122" type="curve" smooth="yes"/>
      <point x="148" y="122"/>
      <point x="131" y="92"/>
      <point x="131" y="63" type="curve" smooth="yes"/>
      <point x="131" y="34"/>
      <point x="149" y="3"/>
    </contour>
    <contour>
      <point x="241" y="217" type="curve" smooth="yes"/>
      <point x="274" y="217"/>
      <point x="300" y="246"/>
      <point x="300" y="278" type="curve" smooth="yes"/>
      <point x="300" y="310"/>
      <point x="272" y="335"/>
      <point x="238" y="335" type="curve" smooth="yes"/>
      <point x="193" y="335"/>
      <point x="176" y="305"/>
      <point x="176" y="277" type="curve" smooth="yes"/>
      <point x="176" y="248"/>
      <point x="195" y="217"/>
    </contour>
  </outline>
</glyph>
<glyph name="oslash" format="1">
  <advance width="319"/>
  <unicode hex="00F8"/>
  <outline>
    <contour>
      <point x="192" y="306" type="move" name="top"/>
    </contour>
    <contour>
      <point x="45" y="-33" type="line"/>
      <point x="311" y="313" type="line"/>
      <point x="276" y="339" type="line"/>
      <point x="10" y="-7" type="line"/>
    </contour>
    <contour>
      <point x="113" y="-7" type="curve" smooth="yes"/>
      <point x="236" y="-7"/>
      <point x="314" y="101"/>
      <point x="314" y="203" type="curve" smooth="yes"/>
      <point x="314" y="255"/>
      <point x="277" y="313"/>
      <point x="206" y="313" type="curve" smooth="yes"/>
      <point x="83" y="313"/>
      <point x="4" y="206"/>
      <point x="4" y="104" type="curve" smooth="yes"/>
      <point x="4" y="51"/>
      <point x="42" y="-7"/>
    </contour>
    <contour>
      <point x="139" y="35" type="curve" smooth="yes"/>
      <point x="129" y="35"/>
      <point x="120" y="54"/>
      <point x="120" y="87" type="curve" smooth="yes"/>
      <point x="120" y="182"/>
      <point x="163" y="271"/>
      <point x="180" y="271" type="curve" smooth="yes"/>
      <point x="189" y="271"/>
      <point x="199" y="252"/>
      <point x="199" y="219" type="curve" smooth="yes"/>
      <point x="199" y="123"/>
      <point x="155" y="35"/>
    </contour>
  </outline>
</glyph>
<glyph name="thorn" format="1">
  <advance width="344"/>
  <unicode hex="00FE"/>
  <outline>
    <contour>
      <point x="-63" y="-158" type="curve"/>
      <point x="-31" y="-155"/>
      <point x="-1" y="-152"/>
      <point x="31" y="-152" type="curve" smooth="yes"/>
      <point x="33" y="-152"/>
      <point x="77" y="-151"/>
      <point x="143" y="-150" type="curve"/>
      <point x="145" y="-149"/>
      <point x="147" y="-133"/>
      <point x="147" y="-124" type="curve" smooth="yes"/>
      <point x="147" y="-116"/>
      <point x="145" y="-113"/>
      <point x="140" y="-113" type="curve" smooth="yes"/>
      <point x="135" y="-113"/>
      <point x="129" y="-112"/>
      <point x="120" y="-110" type="curve"/>
      <point x="106" y="-107"/>
      <point x="99" y="-98"/>
      <point x="99" y="-79" type="curve" smooth="yes"/>
      <point x="99" y="-78"/>
      <point x="100" y="-74"/>
      <point x="100" y="-68" type="curve" smooth="yes"/>
      <point x="113" y="-12" type="line"/>
      <point x="117" y="-10"/>
      <point x="121" y="-9"/>
      <point x="124" y="-9" type="curve" smooth="yes"/>
      <point x="243" y="-9"/>
      <point x="343" y="110"/>
      <point x="343" y="215" type="curve" smooth="yes"/>
      <point x="343" y="265"/>
      <point x="305" y="316"/>
      <point x="255" y="316" type="curve" smooth="yes"/>
      <point x="223" y="316"/>
      <point x="205" y="313"/>
      <point x="167" y="246" type="curve"/>
      <point x="199" y="399" type="line" smooth="yes"/>
      <point x="207" y="438"/>
      <point x="214" y="460"/>
      <point x="214" y="466" type="curve" smooth="yes"/>
      <point x="214" y="474"/>
      <point x="211" y="480"/>
      <point x="205" y="483" type="curve"/>
      <point x="157" y="469"/>
      <point x="81" y="456"/>
      <point x="38" y="458" type="curve"/>
      <point x="33" y="453"/>
      <point x="31" y="440"/>
      <point x="31" y="434" type="curve" smooth="yes"/>
      <point x="31" y="430"/>
      <point x="32" y="423"/>
      <point x="33" y="423" type="curve" smooth="yes"/>
      <point x="79" y="423"/>
      <point x="88" y="420"/>
      <point x="88" y="409" type="curve" smooth="yes"/>
      <point x="88" y="403"/>
      <point x="84" y="377"/>
      <point x="82" y="368" type="curve" smooth="yes"/>
      <point x="-10" y="-74" type="line" smooth="yes"/>
      <point x="-15" y="-98"/>
      <point x="-18" y="-109"/>
      <point x="-17" y="-108" type="curve" smooth="yes"/>
      <point x="-24" y="-115"/>
      <point x="-37" y="-120"/>
      <point x="-58" y="-121" type="curve"/>
      <point x="-60" y="-123"/>
      <point x="-65" y="-141"/>
      <point x="-65" y="-152" type="curve" smooth="yes"/>
      <point x="-65" y="-155"/>
      <point x="-64" y="-158"/>
    </contour>
    <contour>
      <point x="146" y="53" type="curve" smooth="yes"/>
      <point x="144" y="53"/>
      <point x="134" y="50"/>
      <point x="127" y="59" type="curve" smooth="yes"/>
      <point x="116" y="83"/>
      <point x="173" y="244"/>
      <point x="217" y="244" type="curve" smooth="yes"/>
      <point x="222" y="244"/>
      <point x="226" y="235"/>
      <point x="226" y="205" type="curve" smooth="yes"/>
      <point x="226" y="140"/>
      <point x="181" y="53"/>
    </contour>
  </outline>
</glyph>
<glyph name="aogonek" format="1">
  <advance width="368"/>
  <unicode hex="0105"/>
  <outline>
    <contour>
      <point x="226" y="306" type="move" name="top"/>
    </contour>
    <contour>
      <point x="165" y="-148" type="curve" smooth="yes"/>
      <point x="196" y="-148"/>
      <point x="251" y="-123"/>
      <point x="268" y="-99" type="curve" smooth="yes"/>
      <point x="271" y="-94"/>
      <point x="279" y="-83"/>
      <point x="279" y="-71" type="curve" smooth="yes"/>
      <point x="278" y="-69"/>
      <point x="277" y="-67"/>
      <point x="276" y="-67" type="curve"/>
      <point x="263" y="-74"/>
      <point x="227" y="-88"/>
      <point x="211" y="-88" type="curve" smooth="yes"/>
      <point x="196" y="-88"/>
      <point x="181" y="-80"/>
      <point x="186" y="-65" type="curve" smooth="yes"/>
      <point x="195" y="-48"/>
      <point x="215" y="-26"/>
      <point x="281" y="2" type="curve" smooth="yes"/>
      <point x="309" y="15"/>
      <point x="343" y="39"/>
      <point x="371" y="74" type="curve"/>
      <point x="369" y="80"/>
      <point x="353" y="103"/>
      <point x="350" y="103" type="curve"/>
      <point x="330" y="81"/>
      <point x="311" y="67"/>
      <point x="305" y="67" type="curve" smooth="yes"/>
      <point x="300" y="67"/>
      <point x="296" y="73"/>
      <point x="296" y="83" type="curve" smooth="yes"/>
      <point x="296" y="93"/>
      <point x="299" y="108"/>
      <point x="301" y="117" type="curve" smooth="yes"/>
      <point x="341" y="304" type="line"/>
      <point x="306" y="312"/>
      <point x="278" y="315"/>
      <point x="241" y="315" type="curve" smooth="yes"/>
      <point x="124" y="315"/>
      <point x="4" y="211"/>
      <point x="4" y="94" type="curve" smooth="yes"/>
      <point x="4" y="43"/>
      <point x="42" y="-7"/>
      <point x="90" y="-7" type="curve" smooth="yes"/>
      <point x="125" y="-7"/>
      <point x="147" y="1"/>
      <point x="187" y="73" type="curve"/>
      <point x="178" y="43"/>
      <point x="182" y="41"/>
      <point x="182" y="37" type="curve" smooth="yes"/>
      <point x="182" y="16"/>
      <point x="203" y="-6"/>
      <point x="238" y="-6" type="curve"/>
      <point x="207" y="-1" type="line"/>
      <point x="202" y="-2"/>
      <point x="103" y="-56"/>
      <point x="103" y="-103" type="curve" smooth="yes"/>
      <point x="103" y="-133"/>
      <point x="130" y="-148"/>
    </contour>
    <contour>
      <point x="127" y="65" type="curve" smooth="yes"/>
      <point x="126" y="65"/>
      <point x="121" y="83"/>
      <point x="121" y="104" type="curve" smooth="yes"/>
      <point x="121" y="168"/>
      <point x="154" y="259"/>
      <point x="196" y="259" type="curve" smooth="yes"/>
      <point x="207" y="259"/>
      <point x="218" y="256"/>
      <point x="221" y="254" type="curve"/>
      <point x="214" y="219" type="line" smooth="yes"/>
      <point x="198" y="143"/>
      <point x="153" y="65"/>
    </contour>
  </outline>
</glyph>
<glyph name="dcaron" format="1">
  <advance width="368"/>
  <unicode hex="010F"/>
  <outline>
    <contour>
      <point x="383" y="408" type="curve" smooth="yes"/>
      <point x="383" y="383"/>
      <point x="401" y="385"/>
      <point x="403" y="365" type="curve" smooth="yes"/>
      <point x="405" y="347"/>
      <point x="389" y="332"/>
      <point x="358" y="311" type="curve"/>
      <point x="356" y="305"/>
      <point x="363" y="292"/>
      <point x="369" y="292" type="curve"/>
      <point x="422" y="315"/>
      <point x="480" y="369"/>
      <point x="480" y="417" type="curve" smooth="yes"/>
      <point x="480" y="447"/>
      <point x="459" y="458"/>
      <point x="437" y="458" type="curve" smooth="yes"/>
      <point x="412" y="458"/>
      <point x="383" y="440"/>
    </contour>
    <contour>
      <point x="90" y="-7" type="curve" smooth="yes"/>
      <point x="125" y="-7"/>
      <point x="147" y="1"/>
      <point x="187" y="73" type="curve"/>
      <point x="178" y="43"/>
      <point x="182" y="41"/>
      <point x="182" y="37" type="curve" smooth="yes"/>
      <point x="182" y="16"/>
      <point x="203" y="-6"/>
      <point x="238" y="-6" type="curve" smooth="yes"/>
      <point x="281" y="-6"/>
      <point x="331" y="24"/>
      <point x="371" y="74" type="curve"/>
      <point x="369" y="80"/>
      <point x="353" y="103"/>
      <point x="350" y="103" type="curve"/>
      <point x="330" y="81"/>
      <point x="311" y="67"/>
      <point x="305" y="67" type="curve" smooth="yes"/>
      <point x="300" y="67"/>
      <point x="296" y="72"/>
      <point x="296" y="83" type="curve" smooth="yes"/>
      <point x="296" y="92"/>
      <point x="296" y="93"/>
      <point x="296" y="93" type="curve" smooth="yes"/>
      <point x="364" y="399" type="line" smooth="yes"/>
      <point x="374" y="445"/>
      <point x="377" y="458"/>
      <point x="377" y="464" type="curve" smooth="yes"/>
      <point x="377" y="473"/>
      <point x="374" y="481"/>
      <point x="368" y="483" type="curve"/>
      <point x="319" y="469"/>
      <point x="244" y="456"/>
      <point x="203" y="458" type="curve"/>
      <point x="198" y="453"/>
      <point x="196" y="440"/>
      <point x="196" y="434" type="curve" smooth="yes"/>
      <point x="196" y="430"/>
      <point x="196" y="423"/>
      <point x="198" y="423" type="curve" smooth="yes"/>
      <point x="243" y="423"/>
      <point x="253" y="420"/>
      <point x="253" y="409" type="curve" smooth="yes"/>
      <point x="253" y="405"/>
      <point x="250" y="387"/>
      <point x="243" y="356" type="curve" smooth="yes"/>
      <point x="229" y="295" type="line"/>
      <point x="283" y="314" type="line"/>
      <point x="273" y="315"/>
      <point x="239" y="315"/>
      <point x="241" y="315" type="curve" smooth="yes"/>
      <point x="124" y="315"/>
      <point x="4" y="211"/>
      <point x="4" y="94" type="curve" smooth="yes"/>
      <point x="4" y="43"/>
      <point x="42" y="-7"/>
    </contour>
    <contour>
      <point x="127" y="65" type="curve" smooth="yes"/>
      <point x="126" y="65"/>
      <point x="121" y="83"/>
      <point x="121" y="104" type="curve" smooth="yes"/>
      <point x="121" y="168"/>
      <point x="154" y="259"/>
      <point x="196" y="259" type="curve" smooth="yes"/>
      <point x="208" y="259"/>
      <point x="221" y="253"/>
      <point x="216" y="231" type="curve" smooth="yes"/>
      <point x="214" y="219" type="line" smooth="yes"/>
      <point x="198" y="143"/>
      <point x="153" y="65"/>
    </contour>
  </outline>
</glyph>
<glyph name="eogonek" format="1">
  <advance width="299"/>
  <unicode hex="0119"/>
  <outline>
    <contour>
      <point x="187" y="306" type="move" name="top"/>
    </contour>
    <contour>
      <point x="113" y="152" type="curve"/>
      <point x="109" y="109" type="line"/>
      <point x="242" y="143"/>
      <point x="306" y="199"/>
      <point x="306" y="243" type="curve" smooth="yes"/>
      <point x="306" y="290"/>
      <point x="266" y="313"/>
      <point x="207" y="313" type="curve" smooth="yes"/>
      <point x="103" y="313"/>
      <point x="4" y="229"/>
      <point x="4" y="104" type="curve" smooth="yes"/>
      <point x="4" y="43"/>
      <point x="52" y="-7"/>
      <point x="125" y="-7" type="curve"/>
      <point x="108" y="-1" type="line"/>
      <point x="85" y="-9"/>
      <point x="8" y="-61"/>
      <point x="8" y="-103" type="curve" smooth="yes"/>
      <point x="8" y="-133"/>
      <point x="35" y="-148"/>
      <point x="70" y="-148" type="curve" smooth="yes"/>
      <point x="101" y="-148"/>
      <point x="156" y="-123"/>
      <point x="173" y="-99" type="curve" smooth="yes"/>
      <point x="176" y="-94"/>
      <point x="184" y="-83"/>
      <point x="183" y="-71" type="curve" smooth="yes"/>
      <point x="183" y="-69"/>
      <point x="182" y="-67"/>
      <point x="181" y="-67" type="curve"/>
      <point x="168" y="-74"/>
      <point x="131" y="-88"/>
      <point x="116" y="-88" type="curve" smooth="yes"/>
      <point x="101" y="-88"/>
      <point x="86" y="-80"/>
      <point x="91" y="-65" type="curve" smooth="yes"/>
      <point x="100" y="-47"/>
      <point x="106" y="-25"/>
      <point x="189" y="9" type="curve" smooth="yes"/>
      <point x="211" y="18"/>
      <point x="244" y="41"/>
      <point x="273" y="79" type="curve"/>
      <point x="273" y="89"/>
      <point x="261" y="112"/>
      <point x="257" y="112" type="curve"/>
      <point x="225" y="80"/>
      <point x="194" y="65"/>
      <point x="167" y="65" type="curve" smooth="yes"/>
      <point x="142" y="65"/>
      <point x="120" y="83"/>
      <point x="120" y="98" type="curve" smooth="yes"/>
      <point x="120" y="176"/>
      <point x="159" y="271"/>
      <point x="185" y="271" type="curve" smooth="yes"/>
      <point x="196" y="271"/>
      <point x="202" y="258"/>
      <point x="202" y="241" type="curve" smooth="yes"/>
      <point x="202" y="205"/>
      <point x="180" y="171"/>
    </contour>
  </outline>
</glyph>
<glyph name="Iogonek" format="1">
  <advance width="284"/>
  <unicode hex="012E"/>
  <outline>
    <contour>
      <point x="88" y="-148" type="curve" smooth="yes"/>
      <point x="119" y="-148"/>
      <point x="173" y="-123"/>
      <point x="184" y="-99" type="curve" smooth="yes"/>
      <point x="187" y="-94"/>
      <point x="193" y="-84"/>
      <point x="193" y="-71" type="curve" smooth="yes"/>
      <point x="192" y="-68"/>
      <point x="191" y="-67"/>
      <point x="189" y="-67" type="curve"/>
      <point x="178" y="-74"/>
      <point x="144" y="-88"/>
      <point x="129" y="-88" type="curve" smooth="yes"/>
      <point x="112" y="-88"/>
      <point x="101" y="-83"/>
      <point x="101" y="-69" type="curve" smooth="yes"/>
      <point x="101" y="-50"/>
      <point x="111" y="-27"/>
      <point x="168" y="1" type="curve"/>
      <point x="176" y="7" type="line"/>
      <point x="156" y="5" type="line"/>
      <point x="138" y="3" type="line"/>
      <point x="94" y="-2"/>
      <point x="21" y="-54"/>
      <point x="21" y="-97" type="curve" smooth="yes"/>
      <point x="21" y="-130"/>
      <point x="50" y="-148"/>
    </contour>
    <contour>
      <point x="-10" y="-3" type="curve"/>
      <point x="-10" y="-3"/>
      <point x="79" y="4"/>
      <point x="114" y="4" type="curve" smooth="yes"/>
      <point x="138" y="4"/>
      <point x="196" y="-2"/>
      <point x="215" y="-3" type="curve"/>
      <point x="217" y="0"/>
      <point x="218" y="4"/>
      <point x="220" y="11" type="curve" smooth="yes"/>
      <point x="223" y="21"/>
      <point x="222" y="26"/>
      <point x="220" y="26" type="curve" smooth="yes"/>
      <point x="211" y="26"/>
      <point x="181" y="39"/>
      <point x="179" y="45" type="curve"/>
      <point x="178" y="69"/>
      <point x="183" y="89"/>
      <point x="185" y="104" type="curve" smooth="yes"/>
      <point x="242" y="371" type="line" smooth="yes"/>
      <point x="243" y="376"/>
      <point x="251" y="401"/>
      <point x="254" y="409" type="curve"/>
      <point x="257" y="415"/>
      <point x="299" y="426"/>
      <point x="307" y="426" type="curve" smooth="yes"/>
      <point x="310" y="426"/>
      <point x="311" y="431"/>
      <point x="313" y="442" type="curve" smooth="yes"/>
      <point x="313" y="446"/>
      <point x="315" y="450"/>
      <point x="313" y="455" type="curve"/>
      <point x="242" y="452"/>
      <point x="210" y="451"/>
      <point x="208" y="451" type="curve" smooth="yes"/>
      <point x="160" y="451"/>
      <point x="117" y="453"/>
      <point x="87" y="455" type="curve"/>
      <point x="88" y="456"/>
      <point x="85" y="450"/>
      <point x="83" y="440" type="curve" smooth="yes"/>
      <point x="81" y="431"/>
      <point x="81" y="426"/>
      <point x="84" y="426" type="curve" smooth="yes"/>
      <point x="94" y="426"/>
      <point x="118" y="415"/>
      <point x="123" y="407" type="curve"/>
      <point x="126" y="405"/>
      <point x="125" y="389"/>
      <point x="119" y="359" type="curve" smooth="yes"/>
      <point x="64" y="96" type="line" smooth="yes"/>
      <point x="59" y="75"/>
      <point x="55" y="58"/>
      <point x="47" y="45" type="curve"/>
      <point x="43" y="38"/>
      <point x="5" y="26"/>
      <point x="-5" y="26" type="curve" smooth="yes"/>
      <point x="-6" y="26"/>
      <point x="-8" y="20"/>
      <point x="-11" y="8" type="curve" smooth="yes"/>
      <point x="-12" y="2"/>
      <point x="-11" y="-1"/>
    </contour>
  </outline>
</glyph>
<glyph name="iogonek" format="1">
  <advance width="228"/>
  <unicode hex="012F"/>
  <outline>
    <contour>
      <point x="230" y="74" type="curve"/>
      <point x="227" y="80"/>
      <point x="211" y="103"/>
      <point x="209" y="103" type="curve"/>
      <point x="190" y="82"/>
      <point x="170" y="67"/>
      <point x="164" y="67" type="curve" smooth="yes"/>
      <point x="158" y="67"/>
      <point x="155" y="73"/>
      <point x="155" y="83" type="curve" smooth="yes"/>
      <point x="155" y="94"/>
      <point x="156" y="102"/>
      <point x="161" y="122" type="curve"/>
      <point x="180" y="188" type="line" smooth="yes"/>
      <point x="188" y="216"/>
      <point x="192" y="239"/>
      <point x="192" y="261" type="curve" smooth="yes"/>
      <point x="192" y="288"/>
      <point x="174" y="315"/>
      <point x="132" y="315" type="curve" smooth="yes"/>
      <point x="91" y="315"/>
      <point x="32" y="281"/>
      <point x="-4" y="231" type="curve"/>
      <point x="-4" y="228"/>
      <point x="14" y="203"/>
      <point x="16" y="203" type="curve"/>
      <point x="42" y="229"/>
      <point x="60" y="242"/>
      <point x="67" y="242" type="curve" smooth="yes"/>
      <point x="72" y="242"/>
      <point x="75" y="236"/>
      <point x="75" y="227" type="curve" smooth="yes"/>
      <point x="75" y="216"/>
      <point x="73" y="208"/>
      <point x="70" y="194" type="curve" smooth="yes"/>
      <point x="47" y="95" type="line" smooth="yes"/>
      <point x="42" y="73"/>
      <point x="38" y="52"/>
      <point x="38" y="35" type="curve" smooth="yes"/>
      <point x="38" y="13"/>
      <point x="62" y="-6"/>
      <point x="98" y="-6" type="curve"/>
      <point x="80" y="-3" type="line"/>
      <point x="50" y="-8"/>
      <point x="-38" y="-60"/>
      <point x="-38" y="-103" type="curve" smooth="yes"/>
      <point x="-38" y="-133"/>
      <point x="-11" y="-148"/>
      <point x="23" y="-148" type="curve" smooth="yes"/>
      <point x="54" y="-148"/>
      <point x="110" y="-123"/>
      <point x="126" y="-99" type="curve" smooth="yes"/>
      <point x="129" y="-94"/>
      <point x="138" y="-83"/>
      <point x="137" y="-71" type="curve" smooth="yes"/>
      <point x="137" y="-69"/>
      <point x="135" y="-67"/>
      <point x="134" y="-67" type="curve"/>
      <point x="121" y="-74"/>
      <point x="85" y="-88"/>
      <point x="70" y="-88" type="curve" smooth="yes"/>
      <point x="55" y="-88"/>
      <point x="45" y="-85"/>
      <point x="45" y="-71" type="curve" smooth="yes"/>
      <point x="45" y="-50"/>
      <point x="78" y="-28"/>
      <point x="151" y="8" type="curve" smooth="yes"/>
      <point x="178" y="22"/>
      <point x="208" y="44"/>
    </contour>
    <contour>
      <point x="156" y="383" type="curve" smooth="yes"/>
      <point x="199" y="383"/>
      <point x="240" y="418"/>
      <point x="240" y="460" type="curve" smooth="yes"/>
      <point x="240" y="487"/>
      <point x="221" y="505"/>
      <point x="190" y="505" type="curve" smooth="yes"/>
      <point x="145" y="505"/>
      <point x="104" y="471"/>
      <point x="104" y="426" type="curve" smooth="yes"/>
      <point x="104" y="401"/>
      <point x="123" y="383"/>
    </contour>
  </outline>
</glyph>
<glyph name="kgreenlandic" format="1">
  <advance width="446"/>
  <unicode hex="0138"/>
  <outline>
    <contour>
      <point x="-6" y="-3" type="curve"/>
      <point x="-17" y="-3"/>
      <point x="78" y="4"/>
      <point x="92" y="4" type="curve" smooth="yes"/>
      <point x="122" y="4"/>
      <point x="206" y="-3"/>
      <point x="198" y="-3" type="curve"/>
      <point x="198" y="-2"/>
      <point x="203" y="17"/>
      <point x="203" y="26" type="curve" smooth="yes"/>
      <point x="202" y="27"/>
      <point x="203" y="27"/>
      <point x="203" y="27" type="curve" smooth="yes"/>
      <point x="197" y="28"/>
      <point x="172" y="40"/>
      <point x="173" y="45" type="curve" smooth="yes"/>
      <point x="173" y="53"/>
      <point x="173" y="71"/>
      <point x="181" y="110" type="curve" smooth="yes"/>
      <point x="188" y="142" type="line"/>
      <point x="191" y="144" type="line"/>
      <point x="251" y="43" type="line" smooth="yes"/>
      <point x="251" y="43"/>
      <point x="252" y="41"/>
      <point x="252" y="38" type="curve" smooth="yes"/>
      <point x="252" y="28"/>
      <point x="228" y="27"/>
      <point x="217" y="27" type="curve" smooth="yes"/>
      <point x="212" y="27"/>
      <point x="208" y="4"/>
      <point x="209" y="-3" type="curve" smooth="yes"/>
      <point x="209" y="-2"/>
      <point x="209" y="-3"/>
      <point x="210" y="-3" type="curve"/>
      <point x="253" y="-1"/>
      <point x="321" y="3"/>
      <point x="334" y="3" type="curve" smooth="yes"/>
      <point x="343" y="3"/>
      <point x="358" y="1"/>
      <point x="422" y="-2" type="curve"/>
      <point x="423" y="2"/>
      <point x="429" y="18"/>
      <point x="429" y="23" type="curve" smooth="yes"/>
      <point x="429" y="26"/>
      <point x="428" y="28"/>
      <point x="426" y="28" type="curve" smooth="yes"/>
      <point x="397" y="28"/>
      <point x="390" y="41"/>
      <point x="377" y="61" type="curve" smooth="yes"/>
      <point x="289" y="196" type="line"/>
      <point x="267" y="161" type="line"/>
      <point x="349" y="219" type="line" smooth="yes"/>
      <point x="385" y="246"/>
      <point x="429" y="264"/>
      <point x="463" y="265" type="curve" smooth="yes"/>
      <point x="465" y="274"/>
      <point x="468" y="288"/>
      <point x="467" y="293" type="curve" smooth="yes"/>
      <point x="467" y="295"/>
      <point x="466" y="297"/>
      <point x="466" y="297" type="curve"/>
      <point x="436" y="296"/>
      <point x="430" y="296"/>
      <point x="390" y="296" type="curve" smooth="yes"/>
      <point x="368" y="296"/>
      <point x="337" y="295"/>
      <point x="290" y="297" type="curve"/>
      <point x="288" y="296"/>
      <point x="286" y="292"/>
      <point x="285" y="284" type="curve" smooth="yes"/>
      <point x="283" y="276"/>
      <point x="283" y="268"/>
      <point x="282" y="266" type="curve"/>
      <point x="308" y="263"/>
      <point x="315" y="262"/>
      <point x="315" y="259" type="curve" smooth="yes"/>
      <point x="315" y="251"/>
      <point x="309" y="244"/>
      <point x="300" y="238" type="curve" smooth="yes"/>
      <point x="226" y="185" type="line" smooth="yes"/>
      <point x="222" y="182"/>
      <point x="213" y="179"/>
      <point x="195" y="174" type="curve"/>
      <point x="193" y="169" type="line" smooth="yes"/>
      <point x="206" y="228"/>
      <point x="227" y="283"/>
      <point x="225" y="300" type="curve"/>
      <point x="225" y="302"/>
      <point x="222" y="307"/>
      <point x="216" y="307" type="curve" smooth="yes"/>
      <point x="208" y="307"/>
      <point x="200" y="306"/>
      <point x="193" y="304" type="curve"/>
      <point x="156" y="297"/>
      <point x="97" y="286"/>
      <point x="54" y="279" type="curve" smooth="yes"/>
      <point x="52" y="279"/>
      <point x="45" y="262"/>
      <point x="45" y="251" type="curve" smooth="yes"/>
      <point x="45" y="250"/>
      <point x="45" y="249"/>
      <point x="47" y="249" type="curve" smooth="yes"/>
      <point x="75" y="247"/>
      <point x="87" y="230"/>
      <point x="87" y="196" type="curve" smooth="yes"/>
      <point x="87" y="186"/>
      <point x="86" y="177"/>
      <point x="84" y="170" type="curve" smooth="yes"/>
      <point x="69" y="100" type="line" smooth="yes"/>
      <point x="63" y="74"/>
      <point x="59" y="57"/>
      <point x="53" y="45" type="curve" smooth="yes"/>
      <point x="49" y="40"/>
      <point x="11" y="27"/>
      <point x="-1" y="27" type="curve" smooth="yes"/>
      <point x="-3" y="27"/>
      <point x="-5" y="24"/>
      <point x="-7" y="13" type="curve" smooth="yes"/>
      <point x="-7" y="8"/>
      <point x="-6" y="-2"/>
    </contour>
  </outline>
</glyph>
<glyph name="lcaron" format="1">
  <advance width="219"/>
  <unicode hex="013E"/>
  <outline>
    <contour>
      <point x="232" y="408" type="curve" smooth="yes"/>
      <point x="232" y="383"/>
      <point x="250" y="385"/>
      <point x="252" y="365" type="curve" smooth="yes"/>
      <point x="254" y="347"/>
      <point x="239" y="332"/>
      <point x="207" y="311" type="curve"/>
      <point x="205" y="305"/>
      <point x="212" y="292"/>
      <point x="218" y="292" type="curve"/>
      <point x="271" y="315"/>
      <point x="329" y="369"/>
      <point x="329" y="417" type="curve" smooth="yes"/>
      <point x="329" y="447"/>
      <point x="308" y="458"/>
      <point x="286" y="458" type="curve" smooth="yes"/>
      <point x="261" y="458"/>
      <point x="232" y="440"/>
    </contour>
    <contour>
      <point x="90" y="-6" type="curve" smooth="yes"/>
      <point x="126" y="-6"/>
      <point x="178" y="18"/>
      <point x="222" y="74" type="curve"/>
      <point x="219" y="80"/>
      <point x="203" y="103"/>
      <point x="201" y="103" type="curve"/>
      <point x="176" y="77"/>
      <point x="159" y="67"/>
      <point x="156" y="67" type="curve" smooth="yes"/>
      <point x="151" y="67"/>
      <point x="147" y="72"/>
      <point x="147" y="81" type="curve" smooth="yes"/>
      <point x="147" y="92"/>
      <point x="149" y="102"/>
      <point x="153" y="122" type="curve" smooth="yes"/>
      <point x="211" y="399" type="line" smooth="yes"/>
      <point x="220" y="438"/>
      <point x="226" y="460"/>
      <point x="226" y="466" type="curve" smooth="yes"/>
      <point x="226" y="474"/>
      <point x="223" y="480"/>
      <point x="217" y="483" type="curve"/>
      <point x="168" y="469"/>
      <point x="96" y="456"/>
      <point x="54" y="458" type="curve"/>
      <point x="49" y="453"/>
      <point x="46" y="440"/>
      <point x="46" y="434" type="curve" smooth="yes"/>
      <point x="46" y="430"/>
      <point x="47" y="423"/>
      <point x="49" y="423" type="curve" smooth="yes"/>
      <point x="94" y="423"/>
      <point x="104" y="420"/>
      <point x="104" y="409" type="curve" smooth="yes"/>
      <point x="104" y="405"/>
      <point x="101" y="387"/>
      <point x="94" y="356" type="curve" smooth="yes"/>
      <point x="39" y="95" type="line" smooth="yes"/>
      <point x="34" y="72"/>
      <point x="30" y="52"/>
      <point x="30" y="35" type="curve" smooth="yes"/>
      <point x="30" y="13"/>
      <point x="54" y="-6"/>
    </contour>
  </outline>
</glyph>
<glyph name="ldot" format="1">
  <advance width="275"/>
  <unicode hex="0140"/>
  <outline>
    <contour>
      <point x="254" y="169" type="curve" smooth="yes"/>
      <point x="289" y="169"/>
      <point x="324" y="194"/>
      <point x="324" y="234" type="curve" smooth="yes"/>
      <point x="324" y="265"/>
      <point x="301" y="286"/>
      <point x="271" y="286" type="curve" smooth="yes"/>
      <point x="235" y="286"/>
      <point x="199" y="258"/>
      <point x="199" y="220" type="curve" smooth="yes"/>
      <point x="199" y="188"/>
      <point x="222" y="169"/>
    </contour>
    <contour>
      <point x="90" y="-6" type="curve" smooth="yes"/>
      <point x="126" y="-6"/>
      <point x="178" y="18"/>
      <point x="222" y="74" type="curve"/>
      <point x="219" y="80"/>
      <point x="203" y="103"/>
      <point x="201" y="103" type="curve"/>
      <point x="176" y="77"/>
      <point x="159" y="67"/>
      <point x="156" y="67" type="curve" smooth="yes"/>
      <point x="151" y="67"/>
      <point x="147" y="72"/>
      <point x="147" y="81" type="curve" smooth="yes"/>
      <point x="147" y="92"/>
      <point x="149" y="102"/>
      <point x="153" y="122" type="curve" smooth="yes"/>
      <point x="211" y="399" type="line" smooth="yes"/>
      <point x="220" y="438"/>
      <point x="226" y="460"/>
      <point x="226" y="466" type="curve" smooth="yes"/>
      <point x="226" y="474"/>
      <point x="223" y="480"/>
      <point x="217" y="483" type="curve"/>
      <point x="168" y="469"/>
      <point x="96" y="456"/>
      <point x="54" y="458" type="curve"/>
      <point x="49" y="453"/>
      <point x="46" y="440"/>
      <point x="46" y="434" type="curve" smooth="yes"/>
      <point x="46" y="430"/>
      <point x="47" y="423"/>
      <point x="49" y="423" type="curve" smooth="yes"/>
      <point x="94" y="423"/>
      <point x="104" y="420"/>
      <point x="104" y="409" type="curve" smooth="yes"/>
      <point x="104" y="405"/>
      <point x="101" y="387"/>
      <point x="94" y="356" type="curve" smooth="yes"/>
      <point x="39" y="95" type="line" smooth="yes"/>
      <point x="34" y="72"/>
      <point x="30" y="52"/>
      <point x="30" y="35" type="curve" smooth="yes"/>
      <point x="30" y="13"/>
      <point x="54" y="-6"/>
    </contour>
  </outline>
</glyph>
<glyph name="lslash" format="1">
  <advance width="219"/>
  <unicode hex="0142"/>
  <outline>
    <contour>
      <point x="232" y="296" type="line"/>
      <point x="-9" y="184" type="line"/>
      <point x="8" y="156" type="line"/>
      <point x="248" y="269" type="line"/>
    </contour>
    <contour>
      <point x="90" y="-6" type="curve" smooth="yes"/>
      <point x="126" y="-6"/>
      <point x="178" y="18"/>
      <point x="222" y="74" type="curve"/>
      <point x="219" y="80"/>
      <point x="203" y="103"/>
      <point x="201" y="103" type="curve"/>
      <point x="176" y="77"/>
      <point x="159" y="67"/>
      <point x="156" y="67" type="curve" smooth="yes"/>
      <point x="151" y="67"/>
      <point x="147" y="72"/>
      <point x="147" y="81" type="curve" smooth="yes"/>
      <point x="147" y="92"/>
      <point x="149" y="102"/>
      <point x="153" y="122" type="curve" smooth="yes"/>
      <point x="211" y="399" type="line" smooth="yes"/>
      <point x="220" y="438"/>
      <point x="226" y="460"/>
      <point x="226" y="466" type="curve" smooth="yes"/>
      <point x="226" y="474"/>
      <point x="223" y="480"/>
      <point x="217" y="483" type="curve"/>
      <point x="168" y="469"/>
      <point x="96" y="456"/>
      <point x="54" y="458" type="curve"/>
      <point x="49" y="453"/>
      <point x="46" y="440"/>
      <point x="46" y="434" type="curve" smooth="yes"/>
      <point x="46" y="430"/>
      <point x="47" y="423"/>
      <point x="49" y="423" type="curve" smooth="yes"/>
      <point x="94" y="423"/>
      <point x="104" y="420"/>
      <point x="104" y="409" type="curve" smooth="yes"/>
      <point x="104" y="405"/>
      <point x="101" y="387"/>
      <point x="94" y="356" type="curve" smooth="yes"/>
      <point x="39" y="95" type="line" smooth="yes"/>
      <point x="34" y="72"/>
      <point x="30" y="52"/>
      <point x="30" y="35" type="curve" smooth="yes"/>
      <point x="30" y="13"/>
      <point x="54" y="-6"/>
    </contour>
  </outline>
</glyph>
<glyph name="eng" format="1">
  <advance width="396"/>
  <unicode hex="014B"/>
  <outline>
    <contour>
      <point x="128" y="-142" type="curve"/>
      <point x="276" y="-86"/>
      <point x="310" y="-8"/>
      <point x="329" y="82" type="curve" smooth="yes"/>
      <point x="351" y="195" type="line" smooth="yes"/>
      <point x="356" y="222"/>
      <point x="363" y="246"/>
      <point x="363" y="260" type="curve" smooth="yes"/>
      <point x="363" y="302"/>
      <point x="343" y="315"/>
      <point x="311" y="315" type="curve" smooth="yes"/>
      <point x="251" y="315"/>
      <point x="187" y="255"/>
      <point x="179" y="213" type="curve"/>
      <point x="175" y="197" type="line"/>
      <point x="173" y="177" type="line" smooth="yes"/>
      <point x="187" y="224"/>
      <point x="187" y="267"/>
      <point x="187" y="271" type="curve" smooth="yes"/>
      <point x="187" y="292"/>
      <point x="165" y="315"/>
      <point x="130" y="315" type="curve" smooth="yes"/>
      <point x="88" y="315"/>
      <point x="29" y="281"/>
      <point x="-7" y="231" type="curve"/>
      <point x="-7" y="228"/>
      <point x="11" y="203"/>
      <point x="14" y="203" type="curve"/>
      <point x="39" y="229"/>
      <point x="57" y="242"/>
      <point x="64" y="242" type="curve" smooth="yes"/>
      <point x="70" y="242"/>
      <point x="73" y="236"/>
      <point x="73" y="228" type="curve" smooth="yes"/>
      <point x="73" y="217"/>
      <point x="72" y="212"/>
      <point x="69" y="198" type="curve" smooth="yes"/>
      <point x="27" y="0" type="line"/>
      <point x="41" y="-3"/>
      <point x="59" y="-5"/>
      <point x="81" y="-5" type="curve" smooth="yes"/>
      <point x="105" y="-5"/>
      <point x="123" y="-3"/>
      <point x="135" y="0" type="curve"/>
      <point x="146" y="51" type="line" smooth="yes"/>
      <point x="166" y="145"/>
      <point x="203" y="226"/>
      <point x="227" y="226" type="curve" smooth="yes"/>
      <point x="236" y="226"/>
      <point x="243" y="223"/>
      <point x="243" y="209" type="curve" smooth="yes"/>
      <point x="243" y="202"/>
      <point x="241" y="184"/>
      <point x="234" y="157" type="curve" smooth="yes"/>
      <point x="223" y="104" type="line" smooth="yes"/>
      <point x="196" y="-19"/>
      <point x="194" y="-38"/>
      <point x="117" y="-111" type="curve"/>
      <point x="117" y="-119"/>
      <point x="126" y="-145"/>
    </contour>
  </outline>
</glyph>
